<?xml version="1.0" standalone="no"?>
<!DOCTYPE svg PUBLIC "-//W3C//DTD SVG 1.1//EN" "http://www.w3.org/Graphics/SVG/1.1/DTD/svg11.dtd" >
<svg>
<metadata>
Created by FontForge 20090914 at Wed Aug  6 08:08:36 2014
 By www-data
Copyright (c) 2014 by PSTL. All rights reserved.
</metadata>
<defs>
<font id="RSASansMedium" horiz-adv-x="612" >
  <font-face 
    font-family="RSA Sans Medium"
    font-weight="440"
    font-stretch="normal"
    units-per-em="1000"
    panose-1="2 0 0 0 0 0 0 0 0 0"
    ascent="770"
    descent="-230"
    x-height="546"
    cap-height="720"
    bbox="-57 -258.997 1056 962"
    underline-thickness="50"
    underline-position="-50"
    unicode-range="U+000D-U+FB02"
  />
<missing-glyph horiz-adv-x="570" 
d="M80 0v670h410v-670h-410zM421 601h-272v-532h272v532z" />
    <glyph glyph-name="fi" unicode="fi" horiz-adv-x="633" 
d="M565 0h-122v546h122v-546zM567 619h-126v123h126v-123zM391 665c-37.333 6 -66.668 8.99805 -88.001 8.99805c-19.333 0 -34.833 -1.83301 -46.5 -5.5s-20.667 -9.16699 -27 -16.5s-10.666 -16.166 -12.999 -26.499s-3.5 -22.166 -3.5 -35.499v-45h156v-104h-152v-441
h-122v441h-67v93c11.333 1.33301 22.5 3 33.5 5l33.5 6v69c0 56 13.333 96.833 40 122.5s71 38.5 133 38.5c22 0 44 -0.833008 66 -2.5s41 -4.16699 57 -7.5v-100z" />
    <glyph glyph-name="fl" unicode="fl" horiz-adv-x="635" 
d="M564 0h-122v763h122v-763zM391 665c-37.333 6 -66.668 8.99805 -88.001 8.99805c-19.333 0 -34.833 -1.83301 -46.5 -5.5s-20.667 -9.16699 -27 -16.5s-10.666 -16.166 -12.999 -26.499s-3.5 -22.166 -3.5 -35.499v-45h156v-104h-152v-441h-122v441h-67v93
c11.333 1.33301 22.5 3 33.5 5l33.5 6v69c0 56 13.333 96.833 40 122.5s71 38.5 133 38.5c22 0 44 -0.833008 66 -2.5s41 -4.16699 57 -7.5v-100z" />
    <glyph glyph-name=".notdef" horiz-adv-x="570" 
d="M80 0v670h410v-670h-410zM421 601h-272v-532h272v532z" />
    <glyph glyph-name="NULL" horiz-adv-x="0" 
 />
    <glyph glyph-name="NULL" horiz-adv-x="0" 
 />
    <glyph glyph-name="nonmarkingreturn" unicode="&#xd;" horiz-adv-x="230" 
 />
    <glyph glyph-name="space" unicode=" " horiz-adv-x="249" 
 />
    <glyph glyph-name="exclam" unicode="!" horiz-adv-x="291" 
d="M81 124h130v-124h-130v124zM206 223h-122v497h122v-497z" />
    <glyph glyph-name="quotedbl" unicode="&#x22;" horiz-adv-x="389" 
d="M238 720h86v-224h-86v224zM65 720h85v-224h-85v224z" />
    <glyph glyph-name="numbersign" unicode="#" horiz-adv-x="711" 
d="M575 457l100.001 -0.000976562l-19 -106h-101c-3.33301 -19.333 -7.16602 -38.666 -11.499 -57.999s-8.16602 -38.666 -11.499 -57.999h106l-19 -104h-105l-7.5 -37.5l-9.5 -46c-3.33301 -15.667 -6.33301 -30.834 -9 -45.501s-5 -27 -7 -37h-117l33 166h-141l-33 -166
h-116l17 83l17 83h-109l10.5 52l10.5 52h107c0.666992 5.33301 2.16699 13.333 4.5 24s4.66602 22 6.99902 34s4.66602 23.333 6.99902 34s4.16602 18.667 5.49902 24h-109l19 106h109l33 176h115l-33 -176h141l33 176h115zM275.001 234.999h141
c0.666992 5.33301 2 13.333 4 24s4.33301 22 7 34s5 23.333 7 34s3.66699 18.667 5 24h-140z" />
    <glyph glyph-name="dollar" unicode="$" horiz-adv-x="549" 
d="M233 -91l-0.000976562 81.9971c-32 0 -63.333 1.66699 -94 5s-58.667 7.33301 -84 12v116c30 -6.66699 60.167 -12.667 90.5 -18s60.5 -8 90.5 -8c21.333 0 41 1.83301 59 5.5s33.5 9.83398 46.5 18.501s23 20.334 30 35.001s10.5 32.667 10.5 54
c0 20.667 -4.83301 37.167 -14.5 49.5s-22.334 22.5 -38.001 30.5s-33.667 14.667 -54 20l-62 17c-21 6 -41.5 13 -61.5 21s-37.833 19.167 -53.5 33.5s-28.334 32.333 -38.001 54s-14.5 48.834 -14.5 81.501c0 34.667 5 64.167 15 88.5s23.5 44.5 40.5 60.5
s36.833 28.5 59.5 37.5s46.667 15.5 72 19.5v96h107v-89c20 -0.666992 37 -1.5 51 -2.5s26.167 -2.16699 36.5 -3.5s19.333 -2.66602 27 -3.99902s14.834 -2.33301 21.501 -3v-108c-16.667 2.66699 -38.667 6 -66 10s-55.333 6 -84 6c-20 0 -39 -1.33301 -57 -4
s-33.833 -7.66699 -47.5 -15s-24.667 -17.166 -33 -29.499s-12.5 -27.833 -12.5 -46.5c0 -20 4.83301 -36 14.5 -48s22.334 -21.667 38.001 -29s33.5 -13.5 53.5 -18.5l61.5 -16c21 -5.66699 41.667 -12.834 62 -21.501s38.333 -20.667 54 -36s28.334 -34.833 38.001 -58.5
s14.5 -53.167 14.5 -88.5c0 -58.667 -15.667 -105.334 -47 -140.001s-73 -58 -125 -70v-96h-107z" />
    <glyph glyph-name="percent" unicode="%" horiz-adv-x="751" 
d="M590 720l-340 -720h-89l339 720h90zM32 560c0 24.667 2.66699 47.5 8 68.5s13.666 39.167 24.999 54.5s26 27.333 44 36s40 13 66 13s48.167 -4.33301 66.5 -13s33.166 -20.667 44.499 -36s19.666 -33.5 24.999 -54.5s8 -43.833 8 -68.5s-2.66699 -47.5 -8 -68.5
s-13.666 -39.167 -24.999 -54.5s-26.166 -27.333 -44.499 -36s-40.5 -13 -66.5 -13s-48 4.33301 -66 13s-32.667 20.667 -44 36s-19.666 33.5 -24.999 54.5s-8 43.833 -8 68.5zM239 560c0 32 -4.16699 58.167 -12.5 78.5s-25.5 30.5 -51.5 30.5
c-13.333 0 -24 -2.66699 -32 -8s-14.333 -12.833 -19 -22.5s-7.83398 -21.167 -9.50098 -34.5s-2.5 -28 -2.5 -44s0.833008 -30.667 2.5 -44s4.83398 -24.833 9.50098 -34.5s11 -17.167 19 -22.5s18.667 -8 32 -8c26 0 43.167 10.167 51.5 30.5s12.5 46.5 12.5 78.5z
M432 165c0 24.667 2.66699 47.5 8 68.5s13.666 39.167 24.999 54.5s26 27.333 44 36s40 13 66 13s48.167 -4.33301 66.5 -13s33.166 -20.667 44.499 -36s19.666 -33.5 24.999 -54.5s8 -43.833 8 -68.5s-2.66699 -47.5 -8 -68.5s-13.666 -39.167 -24.999 -54.5
s-26.166 -27.333 -44.499 -36s-40.5 -13 -66.5 -13s-48 4.33301 -66 13s-32.667 20.667 -44 36s-19.666 33.5 -24.999 54.5s-8 43.833 -8 68.5zM639 165c0 32 -4.16699 58.167 -12.5 78.5s-25.5 30.5 -51.5 30.5c-13.333 0 -24 -2.66699 -32 -8s-14.333 -12.833 -19 -22.5
s-7.83398 -21.167 -9.50098 -34.5s-2.5 -28 -2.5 -44s0.833008 -30.667 2.5 -44s4.83398 -24.833 9.50098 -34.5s11 -17.167 19 -22.5s18.667 -8 32 -8c26 0 43.167 10.167 51.5 30.5s12.5 46.5 12.5 78.5z" />
    <glyph glyph-name="ampersand" unicode="&#x26;" horiz-adv-x="707" 
d="M207 525c0 -18 3.49512 -33.6699 10.4951 -47.0029s16 -24.166 27 -32.499s23 -14.5 36 -18.5s25.833 -6 38.5 -6h348v-103h-99l96 -318h-122l-21 68c-8 -6 -19.5 -13.5 -34.5 -22.5s-32.833 -17.833 -53.5 -26.5s-43.667 -16 -69 -22s-53 -9 -83 -9
c-36.667 0 -69.667 4.83301 -99 14.5s-54.333 23.334 -75 41.001s-36.667 39 -48 64s-17 52.5 -17 82.5c0 40.667 10.333 76.834 31 108.501s55 56.167 103 73.5c-33.333 20 -58.166 44.167 -74.499 72.5s-24.5 59.833 -24.5 94.5c0 30.667 6.83301 58 20.5 82
s32.334 44.333 56.001 61s51 29.167 82 37.5s63.833 12.5 98.5 12.5c66.667 0 134.334 -9.33301 203.001 -28v-111l-29.5 9c-13 4 -28.167 7.66699 -45.5 11s-36.333 6.33301 -57 9s-41.667 4 -63 4c-18 0 -35.167 -1.83301 -51.5 -5.5s-30.666 -9.66699 -42.999 -18
s-22.166 -18.833 -29.499 -31.5s-11 -28 -11 -46zM293.995 317.997c-39.333 0 -69.833 -10.835 -91.5 -32.502s-32.5 -47.5 -32.5 -77.5c0 -20 3.66699 -37.167 11 -51.5s17 -26.166 29 -35.499s26.167 -16.166 42.5 -20.499s33.5 -6.5 51.5 -6.5c30 0 62 5.66699 96 17
s64 29 90 53l-45 154h-151z" />
    <glyph glyph-name="quotesingle" unicode="'" horiz-adv-x="215" 
d="M65 720h85v-224h-85v224z" />
    <glyph glyph-name="parenleft" unicode="(" horiz-adv-x="318" 
d="M42 279c0 53.333 4.16699 103 12.5 149s19.5 88.833 33.5 128.5s30 76.5 48 110.5s36.667 66 56 96h119c-22 -34 -42.667 -70 -62 -108s-36 -77.5 -50 -118.5s-25 -83.167 -33 -126.5s-12 -87 -12 -131s4 -87.667 12 -131s19 -85.5 33 -126.5s30.667 -80.5 50 -118.5
s40 -74 62 -108h-119c-19.333 30 -38 62 -56 96s-34 70.833 -48 110.5s-25.167 82.5 -33.5 128.5s-12.5 95.667 -12.5 149z" />
    <glyph glyph-name="parenright" unicode=")" horiz-adv-x="318" 
d="M276 279c0 -53.333 -4.16699 -103 -12.5 -149s-19.5 -88.833 -33.5 -128.5s-30 -76.5 -48 -110.5s-36.667 -66 -56 -96h-119c22 34 42.667 70 62 108s36 77.5 50 118.5s25 83.167 33 126.5s12 87 12 131s-4 87.667 -12 131s-19 85.5 -33 126.5s-30.667 80.5 -50 118.5
s-40 74 -62 108h119c19.333 -30 38 -62 56 -96s34 -70.833 48 -110.5s25.167 -82.5 33.5 -128.5s12.5 -95.667 12.5 -149z" />
    <glyph glyph-name="asterisk" unicode="*" horiz-adv-x="457" 
d="M271 734c0 -23.333 -0.166992 -46.332 -0.5 -68.999s-0.5 -45.334 -0.5 -68.001l63 22l63 22l24 -72l-67 -21l-66 -20l87 -110c-23.333 -18 -46 -34.667 -68 -50l-78 107l-75 -108l-34.5 25.5l-34.5 24.5l86 111l-66 19.5c-22 6.33301 -44 13.166 -66 20.499l24 73
l62.5 -22l62.5 -22c0 22.667 -0.166992 45.334 -0.5 68.001s-0.5 45.667 -0.5 69h85z" />
    <glyph glyph-name="plus" unicode="+" horiz-adv-x="552" 
d="M40 327h186v183h100v-183h186v-100h-186v-183h-100v183h-186v100z" />
    <glyph glyph-name="comma" unicode="," horiz-adv-x="239" 
d="M66 136l107.001 -0.00195312c1.33301 -9.33301 2.33301 -18.666 3 -27.999s1 -18.666 1 -27.999c0 -30 -5.33301 -63 -16 -99s-24.334 -69.667 -41.001 -101h-54v256z" />
    <glyph glyph-name="hyphen" unicode="-" horiz-adv-x="541" 
d="M65 323h411v-101h-411v101z" />
    <glyph glyph-name="period" unicode="." horiz-adv-x="238" 
d="M173 0h-108v136h108v-136z" />
    <glyph glyph-name="slash" unicode="/" horiz-adv-x="423" 
d="M285 763h111l-260 -969h-109z" />
    <glyph glyph-name="zero" unicode="0" horiz-adv-x="677" 
d="M182 360c0 -37.333 2.66699 -71.833 8 -103.5s14 -58.834 26 -81.501s28 -40.334 48 -53.001s44.667 -19 74 -19c30 0 55 6.33301 75 19s36 30.334 48 53.001s20.667 49.834 26 81.501s8 66.167 8 103.5s-2.66699 71.666 -8 102.999s-14 58.166 -26 80.499
s-28 39.833 -48 52.5s-45 19 -75 19c-29.333 0 -54 -6.33301 -74 -19s-36 -30.167 -48 -52.5s-20.667 -49.166 -26 -80.499s-8 -65.666 -8 -102.999zM51 360c0 49.333 4.66699 96.5 14 141.5s25 84.5 47 118.5s51.333 61.167 88 81.5s82.667 30.5 138 30.5
s101.5 -10.167 138.5 -30.5s66.5 -47.5 88.5 -81.5s37.667 -73.5 47 -118.5s14 -92.167 14 -141.5s-4.66699 -96.5 -14 -141.5s-25 -84.5 -47 -118.5s-51.5 -61.167 -88.5 -81.5s-83.167 -30.5 -138.5 -30.5s-101.333 10.167 -138 30.5s-66 47.5 -88 81.5
s-37.667 73.5 -47 118.5s-14 92.167 -14 141.5z" />
    <glyph glyph-name="one" unicode="1" horiz-adv-x="446" 
d="M29 106h140v484l-140 -56v113l170 73h94v-614h133v-106h-397v106z" />
    <glyph glyph-name="two" unicode="2" horiz-adv-x="550" 
d="M44 91c40 32 78.666 64.8311 115.999 98.498s70.5 67.5 99.5 101.5s52.333 67.667 70 101s26.5 66 26.5 98c0 22.667 -3.83301 42.334 -11.5 59.001s-18.5 30.334 -32.5 41.001s-30.5 18.5 -49.5 23.5s-39.833 7.5 -62.5 7.5s-47 -2 -73 -6s-50.667 -8.66699 -74 -14v111
c27.333 5.33301 55.5 10 84.5 14s57.5 6 85.5 6c35.333 0 68.833 -3.83301 100.5 -11.5s59.334 -20.5 83.001 -38.5s42.5 -41.833 56.5 -71.5s21 -66.5 21 -110.5c0 -33.333 -6.16699 -65.833 -18.5 -97.5s-30 -63.5 -53 -95.5s-50.667 -64.167 -83 -96.5
s-68.5 -65.833 -108.5 -100.5h286v-110h-463v91z" />
    <glyph glyph-name="three" unicode="3" horiz-adv-x="541" 
d="M50 107c28.667 -4 57.5 -6.83105 86.5 -8.49805s54.833 -2.5 77.5 -2.5c48 0 84.833 9.33301 110.5 28s38.5 46.667 38.5 84c0 18 -4 33.5 -12 46.5s-18.5 23.5 -31.5 31.5s-27.833 13.833 -44.5 17.5s-33.667 5.5 -51 5.5h-94v103h88c17.333 0 34 2.66699 50 8
s30.167 12.833 42.5 22.5s22.166 21.5 29.499 35.5s11 29.667 11 47c0 31.333 -12 55.166 -36 71.499s-56.667 24.5 -98 24.5c-13.333 0 -28 -0.833008 -44 -2.5s-31.5 -3.83398 -46.5 -6.50098s-29 -5.5 -42 -8.5s-22.833 -5.83301 -29.5 -8.5v110
c30.667 8.66699 62.667 15.167 96 19.5s65.333 6.5 96 6.5c32.667 0 63 -4.16699 91 -12.5s52.333 -20.5 73 -36.5s36.834 -35.5 48.501 -58.5s17.5 -49.5 17.5 -79.5c0 -38 -10.333 -72.5 -31 -103.5s-47.334 -55.167 -80.001 -72.5c20 -6 37.667 -14.667 53 -26
s28.333 -24.333 39 -39s18.834 -30.167 24.501 -46.5s8.5 -32.833 8.5 -49.5c0 -34 -6.5 -64.5 -19.5 -91.5s-31.5 -50 -55.5 -69s-52.5 -33.5 -85.5 -43.5s-69.5 -15 -109.5 -15c-10.667 0 -23.334 0.333008 -38.001 1s-29.667 1.5 -45 2.5s-30.666 2.33301 -45.999 4
l-42 4.5v107z" />
    <glyph glyph-name="four" unicode="4" horiz-adv-x="640" 
d="M313 720l-155.999 -433.999h226v75c1.33301 5.33301 2.66602 13.166 3.99902 23.499s3 22 5 35s4.33301 26.833 7 41.5s5.66699 29 9 43h97v-218h108v-110h-108v-176h-122v176h-350v100l156 444h124z" />
    <glyph glyph-name="five" unicode="5" horiz-adv-x="549" 
d="M376 228c0 22.667 -3.83203 41.166 -11.499 55.499s-17.667 25.833 -30 34.5s-26.666 14.667 -42.999 18s-33.5 5 -51.5 5h-171v379h411v-109h-291v-163c8 0 16.167 0.166992 24.5 0.5s16.5 0.5 24.5 0.5c35.333 0 69.166 -3 101.499 -9s60.666 -17 84.999 -33
s43.666 -38 57.999 -66s21.5 -64 21.5 -108c0 -45.333 -7.66699 -83.333 -23 -114s-35.833 -55.667 -61.5 -75s-55.667 -33.166 -90 -41.499s-70.5 -12.5 -108.5 -12.5c-24.667 0 -51.334 1.33301 -80.001 4s-55.334 6 -80.001 10c0 18.667 0.166992 37 0.5 55
s0.5 36.333 0.5 55c21.333 -4 45.833 -7.83301 73.5 -11.5s53.5 -5.5 77.5 -5.5c22.667 0 43.834 2.16699 63.501 6.5s36.834 11.666 51.501 21.999s26.334 23.833 35.001 40.5s13 37.334 13 62.001z" />
    <glyph glyph-name="six" unicode="6" horiz-adv-x="620" 
d="M534 610c-22 4 -43.1621 7.16602 -63.4951 9.49902s-39.833 3.5 -58.5 3.5c-34 0 -64.833 -4.16699 -92.5 -12.5s-51.667 -22 -72 -41s-36.333 -43.667 -48 -74s-18.5 -67.5 -20.5 -111.5c28 12.667 58.5 23.167 91.5 31.5s65.5 12.5 97.5 12.5
c28 0 54.833 -3.66699 80.5 -11s48.5 -19.166 68.5 -35.499s35.833 -37.666 47.5 -63.999s17.5 -58.833 17.5 -97.5c0 -35.333 -6.16699 -67.333 -18.5 -96s-29.833 -53 -52.5 -73s-49.834 -35.5 -81.501 -46.5s-66.5 -16.5 -104.5 -16.5
c-38.667 0 -74.834 6.16699 -108.501 18.5s-62.834 32.166 -87.501 59.499s-44 63.333 -58 108s-21 99 -21 163c0 59.333 7.33301 113.166 22 161.499s36.667 89.833 66 124.5s65.666 61.334 108.999 80.001s93.666 28 150.999 28c20 0 41.5 -1.16699 64.5 -3.5
s46.833 -5.5 71.5 -9.5v-108zM454.005 216.999c0 20 -3.16699 36.666 -9.5 49.999s-15 24 -26 32s-23.667 13.833 -38 17.5s-29.5 5.5 -45.5 5.5c-25.333 0 -52 -3.66699 -80 -11s-52 -15.666 -72 -24.999c0.666992 -32.667 4.66699 -61 12 -85s17.5 -43.667 30.5 -59
s28 -26.833 45 -34.5s35.5 -11.5 55.5 -11.5c38.667 0 69.667 10.667 93 32s35 51 35 89z" />
    <glyph glyph-name="seven" unicode="7" horiz-adv-x="510" 
d="M139 0c0.666992 59.333 6.49902 117.168 17.499 173.501s26 110.333 45 162s41.667 100.667 68 147s55.166 89.166 86.499 128.499h-333v109h469v-109c-37.333 -46 -69.666 -92 -96.999 -138s-50.166 -93.5 -68.499 -142.5s-32.5 -100.5 -42.5 -154.5
s-16.333 -112.667 -19 -176h-126z" />
    <glyph glyph-name="eight" unicode="8" horiz-adv-x="610" 
d="M306 -12c-44 0 -82.166 4.99707 -114.499 14.9971s-59.166 23.833 -80.499 41.5s-37.333 38.834 -48 63.501s-16 51.667 -16 81c0 14 2 29.167 6 45.5s10.5 32.833 19.5 49.5s21.167 32.834 36.5 48.501s34 29.5 56 41.5c-29.333 17.333 -52.833 39 -70.5 65
s-26.5 58 -26.5 96c0 24.667 5.16699 48.834 15.5 72.501s25.666 44.834 45.999 63.501s45.166 33.5 74.499 44.5s63 16.5 101 16.5s71.667 -5.16699 101 -15.5s54 -24.333 74 -42s35.167 -38 45.5 -61s15.5 -47.167 15.5 -72.5c0 -36 -8.33301 -68.333 -25 -97
s-40 -55.334 -70 -80.001c44.667 -22.667 75.167 -48.667 91.5 -78s24.5 -59.333 24.5 -90c0 -64.667 -22.667 -115.5 -68 -152.5s-108 -55.5 -188 -55.5zM306.001 95.9971c38 0 68.999 9.16504 92.999 27.498s36 43.166 36 74.499c0 18.667 -6.83301 34.834 -20.5 48.501
s-30.167 25.334 -49.5 35.001s-39.166 17.834 -59.499 24.501l-51.5 17c-25.333 -14.667 -44.833 -33 -58.5 -55s-20.5 -44.333 -20.5 -67c0 -28 11 -52.5 33 -73.5s54.667 -31.5 98 -31.5zM303 628.995c-16.667 0 -31.667 -2.66602 -45 -7.99902s-24.833 -12.5 -34.5 -21.5
s-17 -19.5 -22 -31.5s-7.5 -24.333 -7.5 -37c0 -30 13.333 -54.5 40 -73.5s66.667 -35.167 120 -48.5c19.333 14 34.333 31.167 45 51.5s16 41.166 16 62.499c0 30 -9.66699 55.167 -29 75.5s-47 30.5 -83 30.5z" />
    <glyph glyph-name="nine" unicode="9" horiz-adv-x="621" 
d="M88 108c44 -8 84.3291 -11.999 120.996 -11.999c34 0 64.833 4.16699 92.5 12.5s51.667 22 72 41s36.333 43.667 48 74s18.5 67.5 20.5 111.5c-28 -12.667 -58.5 -23.167 -91.5 -31.5s-65.5 -12.5 -97.5 -12.5c-28 0 -54.833 3.66699 -80.5 11s-48.5 19.166 -68.5 35.499
s-35.833 37.666 -47.5 63.999s-17.5 58.833 -17.5 97.5c0 35.333 6.16699 67.333 18.5 96s29.833 53 52.5 73s49.834 35.5 81.501 46.5s66.5 16.5 104.5 16.5c38.667 0 74.834 -6.16699 108.501 -18.5s62.834 -32.166 87.501 -59.499s44 -63.333 58 -108s21 -99 21 -163
c0 -59.333 -7.33301 -113.166 -22 -161.499s-36.667 -89.833 -66 -124.5s-65.666 -61.334 -108.999 -80.001s-93.666 -28 -150.999 -28c-20 0 -41.333 1.16699 -64 3.5s-46.334 5.5 -71.001 9.5v107zM166.996 502.001c0 -20 3.16699 -36.666 9.5 -49.999s15 -24 26 -32
s23.667 -13.833 38 -17.5s29.5 -5.5 45.5 -5.5c25.333 0 52 3.66699 80 11s52 15.666 72 24.999c-0.666992 32.667 -4.66699 61 -12 85s-17.5 43.667 -30.5 59s-28 26.833 -45 34.5s-35.5 11.5 -55.5 11.5c-38.667 0 -69.667 -10.667 -93 -32s-35 -51 -35 -89z" />
    <glyph glyph-name="colon" unicode=":" horiz-adv-x="238" 
d="M173 0h-108v136h108v-136zM173 316h-108v138h108v-138z" />
    <glyph glyph-name="semicolon" unicode=";" horiz-adv-x="243" 
d="M176 316h-109v137h109v-137zM67 136l107.001 -0.00195312c1.33301 -9.33301 2.33301 -18.666 3 -27.999s1 -18.666 1 -27.999c0 -30 -5.33301 -63 -16 -99s-24.334 -69.667 -41.001 -101h-54v256z" />
    <glyph glyph-name="less" unicode="&#x3c;" horiz-adv-x="543" 
d="M41 195v141l440 182v-129l-345 -123l345 -123v-129z" />
    <glyph glyph-name="equal" unicode="=" horiz-adv-x="606" 
d="M67 434h472v-100h-472v100zM67 215h472v-101h-472v101z" />
    <glyph glyph-name="greater" unicode="&#x3e;" horiz-adv-x="543" 
d="M502 337v-141l-440 -182v129l345 123l-345 123v129z" />
    <glyph glyph-name="question" unicode="?" horiz-adv-x="474" 
d="M126 253c0 32.667 4.6709 61.0029 14.0039 85.0029s20.833 45 34.5 63s28.667 34 45 48s31.333 27.667 45 41s25.167 26.666 34.5 39.999s14 28.666 14 45.999c0 25.333 -11 45.666 -33 60.999s-56 23 -102 23c-21.333 0 -44.5 -2.16699 -69.5 -6.5
s-49.167 -9.83301 -72.5 -16.5v113c31.333 8 63 14 95 18s61 6 87 6c34 0 65 -4.33301 93 -13s51.667 -20.834 71 -36.501s34.333 -34.5 45 -56.5s16 -46.333 16 -73c0 -26 -4.83301 -49.333 -14.5 -70s-21.834 -39.667 -36.501 -57s-30.334 -34 -47.001 -50
s-32.334 -32.167 -47.001 -48.5s-26.834 -33.666 -36.501 -51.999s-14.5 -38.833 -14.5 -61.5c0 -8 0.5 -16 1.5 -24s2.5 -17.333 4.5 -28h-122c-1.33301 8 -2.5 16.333 -3.5 25s-1.5 16.667 -1.5 24zM133.004 107.003h124v-107h-124v107z" />
    <glyph glyph-name="at" unicode="@" horiz-adv-x="929" 
d="M545 342c-11.333 6 -22.165 10 -32.498 12s-20.5 3 -30.5 3c-30 0 -53.333 -10.667 -70 -32s-25 -49.333 -25 -84c0 -54 21 -81 63 -81c11.333 0 23.166 2.5 35.499 7.5s25.166 12.167 38.499 21.5zM673.001 47c-37.333 0 -67.8301 7.82812 -91.4971 23.4951
s-38.5 37.167 -44.5 64.5h-5c-18 -20 -37.333 -33.833 -58 -41.5s-41.667 -11.5 -63 -11.5c-18 0 -34.667 3 -50 9s-28.666 15 -39.999 27s-20.333 27 -27 45s-10 39 -10 63c0 34.667 5.5 65.167 16.5 91.5s25.667 48.333 44 66s39.666 30.834 63.999 39.501
s49.833 13 76.5 13c26 0 53.5 -4.33301 82.5 -13s55.833 -20 80.5 -34l-31 -226c7.33301 -5.33301 16.666 -9.33301 27.999 -12s22.666 -4 33.999 -4c77.333 0 116 57.333 116 172c0 40 -9.16699 75.333 -27.5 106s-42.333 56.334 -72 77.001
s-63.334 36.334 -101.001 47.001s-75.834 16 -114.501 16c-50 0 -95.5 -8.33301 -136.5 -25s-76.333 -39.667 -106 -69s-52.5 -63.833 -68.5 -103.5s-24 -82.5 -24 -128.5c0 -53.333 7.66699 -99.666 23 -138.999s37.5 -72.166 66.5 -98.499s64.5 -46 106.5 -59
s89.333 -19.5 142 -19.5c24.667 0 51.5 1.66699 80.5 5s56.833 8.33301 83.5 15l12 -93c-32 -9.33301 -65.5 -16 -100.5 -20s-67.5 -6 -97.5 -6c-54.667 0 -107.334 7.83301 -158.001 23.5s-95.334 40.334 -134.001 74.001s-69.5 76.667 -92.5 129
s-34.5 115.166 -34.5 188.499c0 63.333 11.333 121 34 173s53.834 96.5 93.501 133.5s86.5 65.5 140.5 85.5s112 30 174 30c62.667 0 119.334 -8.33301 170.001 -25s94 -40 130 -70s63.833 -65.667 83.5 -107s29.5 -87 29.5 -137c0 -45.333 -5.83301 -85 -17.5 -119
s-27.5 -62.667 -47.5 -86s-43.667 -40.833 -71 -52.5s-56.666 -17.5 -87.999 -17.5z" />
    <glyph glyph-name="A" unicode="A" horiz-adv-x="675" 
d="M250 721h175l246 -721h-133l-50 151h-300l-50 -151h-133zM215 262h241l-114 351h-11z" />
    <glyph glyph-name="B" unicode="B" horiz-adv-x="650" 
d="M365 720c38 0 70.667 -5.16699 98 -15.5s50 -24 68 -41s31.333 -36.667 40 -59s13 -45.5 13 -69.5c0 -32 -7.66699 -62.167 -23 -90.5s-41 -53.166 -77 -74.499c46 -13.333 78.667 -35 98 -65s29 -64.333 29 -103c0 -30 -5.5 -57.333 -16.5 -82
s-26.667 -45.834 -47 -63.501s-45 -31.5 -74 -41.5s-61.5 -15 -97.5 -15h-297v720h286zM369 108c38.667 0 67.167 9.83301 85.5 29.5s27.5 44.5 27.5 74.5c0 32 -11 56 -33 72s-51 24 -87 24h-157v-200h164zM345 415c14 0 27.8311 2.5 41.498 7.5s25.834 12 36.501 21
s19.334 20 26.001 33s10 27.5 10 43.5c0 28 -9.83301 50.167 -29.5 66.5s-47.5 24.5 -83.5 24.5h-141v-196h140z" />
    <glyph glyph-name="C" unicode="C" 
d="M45 361c0 56.667 7.00195 107.998 21.002 153.998s35 85 63 117s62.667 56.667 104 74s89.333 26 144 26c30 0 60.667 -1.66699 92 -5s64.666 -9.66602 99.999 -18.999v-115c-11.333 3.33301 -23.833 6.83301 -37.5 10.5s-28 7 -43 10s-30 5.33301 -45 7
s-29.5 2.5 -43.5 2.5c-35.333 0 -66.833 -4.66699 -94.5 -14s-51.334 -24.166 -71.001 -44.499s-34.667 -47 -45 -80s-15.5 -73.167 -15.5 -120.5c0 -50 5.83301 -92.167 17.5 -126.5s27.5 -61.833 47.5 -82.5s43.333 -35.5 70 -44.5s54.667 -13.5 84 -13.5
c28 0 57.667 3 89 9s61 14.667 89 26v-113c-32 -11.333 -65.167 -19.333 -99.5 -24s-65.5 -7 -93.5 -7c-56 0 -105 8.5 -147 25.5s-76.667 41.5 -104 73.5s-47.833 71 -61.5 117s-20.5 98.333 -20.5 157z" />
    <glyph glyph-name="D" unicode="D" horiz-adv-x="716" 
d="M79 0v720h255c48.667 0 93.667 -7.5 135 -22.5s77 -37.5 107 -67.5s53.333 -67.667 70 -113s25 -98 25 -158s-8.33301 -112.5 -25 -157.5s-40 -82.5 -70 -112.5s-65.667 -52.333 -107 -67s-86.333 -22 -135 -22h-255zM542 359c0 36.667 -4.66699 70.332 -14 100.999
s-23.333 57.167 -42 79.5s-41.834 39.833 -69.501 52.5s-59.834 19 -96.501 19h-115v-502h115c36.667 0 68.834 6.16699 96.501 18.5s50.834 29.5 69.501 51.5s32.667 48.333 42 79s14 64.334 14 101.001z" />
    <glyph glyph-name="E" unicode="E" horiz-adv-x="605" 
d="M562 720v-109h-357v-195h308v-108h-308v-199h355v-109h-481v720h483z" />
    <glyph glyph-name="F" unicode="F" horiz-adv-x="587" 
d="M560 720v-109h-355v-217h311v-109h-311v-285h-126v720h481z" />
    <glyph glyph-name="G" unicode="G" horiz-adv-x="709" 
d="M655 36c-38.667 -13.333 -80.667 -24.665 -126 -33.998s-92 -14 -140 -14c-59.333 0 -110.5 8.5 -153.5 25.5s-78.833 41.667 -107.5 74s-49.834 71.666 -63.501 117.999s-20.5 98.833 -20.5 157.5c0 54 8 103.5 24 148.5s40 83.833 72 116.5s71.667 58.167 119 76.5
s102.333 27.5 165 27.5c33.333 0 67.833 -2.16699 103.5 -6.5s69.167 -10.166 100.5 -17.499v-18.5c0 -11.667 -0.166992 -24.5 -0.5 -38.5s-0.5 -26.833 -0.5 -38.5v-18.5c-31.333 9.33301 -65.5 16.5 -102.5 21.5s-69.167 7.5 -96.5 7.5c-32 0 -63.167 -4.66699 -93.5 -14
s-57.5 -24.5 -81.5 -45.5s-43.333 -48.167 -58 -81.5s-22 -74 -22 -122c0 -44.667 5.66699 -83.5 17 -116.5s27.333 -60.333 48 -82s45.334 -37.834 74.001 -48.501s60.667 -16 96 -16c20.667 0 40.5 1.66699 59.5 5s39.5 7.66602 61.5 12.999v170h-158v108h284v-357z" />
    <glyph glyph-name="H" unicode="H" horiz-adv-x="757" 
d="M205 720v-304h347v304h126v-720h-126v307h-347v-307h-126v720h126z" />
    <glyph glyph-name="I" unicode="I" horiz-adv-x="284" 
d="M79 720h126v-720h-126v720z" />
    <glyph glyph-name="J" unicode="J" horiz-adv-x="286" 
d="M207 101c0 -64 -13.833 -121 -41.5 -171s-67.5 -97.667 -119.5 -143l-74 98c34 30.667 60.667 62.5 80 95.5s29 71.167 29 114.5v625h126v-619z" />
    <glyph glyph-name="K" unicode="K" horiz-adv-x="667" 
d="M79 720l126.004 -0.000976562v-328l98 34c23.333 8 45 18.833 65 32.5s37.167 31 51.5 52s25.666 46.5 33.999 76.5s12.5 65.667 12.5 107v26h127v-17c0 -32 -2.16699 -64.5 -6.5 -97.5s-12.333 -64.667 -24 -95s-27.834 -58.666 -48.501 -84.999
s-47.334 -49.166 -80.001 -68.499l-17 -10l85 -148c10.667 -18.667 21 -33.834 31 -45.501s20.667 -20.667 32 -27s23.666 -10.5 36.999 -12.5s28 -3 44 -3v-113c-17.333 -2 -33.333 -3 -48 -3c-50 0 -93 14.333 -129 43s-67 67.667 -93 117l-77 142l-94 -36v-261h-126v720z
" />
    <glyph glyph-name="L" unicode="L" horiz-adv-x="546" 
d="M205 720v-611h331v-109h-457v720h126z" />
    <glyph glyph-name="M" unicode="M" horiz-adv-x="868" 
d="M400 185l-193 344h-7v-529h-121v720h151l204 -359l204 359h151v-720h-121v529h-7l-193 -344h-68z" />
    <glyph glyph-name="N" unicode="N" horiz-adv-x="760" 
d="M205 511v-511h-126v720h137l339 -523v523h126v-720h-136z" />
    <glyph glyph-name="O" unicode="O" horiz-adv-x="744" 
d="M46 360c0 58.667 6.5 111 19.5 157s33 85 60 117s61 56.333 102 73s89.5 25 145.5 25s104.5 -8.33301 145.5 -25s75 -41 102 -73s47 -71 60 -117s19.5 -98.333 19.5 -157s-6.5 -111 -19.5 -157s-33 -85 -60 -117s-61 -56.333 -102 -73s-89.5 -25 -145.5 -25
s-104.5 8.33301 -145.5 25s-75 41 -102 73s-47 71 -60 117s-19.5 98.333 -19.5 157zM571 360c0 90.667 -16.833 157.167 -50.5 199.5s-82.5 63.5 -146.5 63.5c-65.333 0 -114.833 -21.167 -148.5 -63.5s-50.5 -108.833 -50.5 -199.5s16.833 -157.167 50.5 -199.5
s82.5 -63.5 146.5 -63.5c64.667 0 114 21.167 148 63.5s51 108.833 51 199.5z" />
    <glyph glyph-name="P" unicode="P" horiz-adv-x="617" 
d="M205 215l0.00195312 -215h-126v720h266c38 0 72 -6.83301 102 -20.5s55.5 -32 76.5 -55s37 -49.833 48 -80.5s16.5 -63 16.5 -97s-5.5 -66.333 -16.5 -97s-26.833 -57.5 -47.5 -80.5s-45.834 -41.167 -75.501 -54.5s-62.834 -20 -99.501 -20h-144zM205.002 324
l125 0.00292969c22.667 0 42.167 4.16699 58.5 12.5s29.833 19.166 40.5 32.499s18.334 28.5 23.001 45.5s7 34.5 7 52.5s-2.33301 35.667 -7 53s-12.334 32.666 -23.001 45.999s-24.167 24.166 -40.5 32.499s-35.833 12.5 -58.5 12.5h-125v-287z" />
    <glyph glyph-name="Q" unicode="Q" horiz-adv-x="745" 
d="M46 360c0 58.667 6.5 111.005 19.5 157.005s33 85 60 117s61 56.333 102 73s89.5 25 145.5 25s104.5 -8.33301 145.5 -25s75 -41 102 -73s47 -71 60 -117s19.5 -98.333 19.5 -157c0 -98.667 -18.333 -178.834 -55 -240.501s-93.667 -101.834 -171 -120.501l8 -6
c36 -26.667 70 -45.834 102 -57.501s66.667 -17.5 104 -17.5v-99c-4.66699 -0.666992 -8.5 -1 -11.5 -1h-10.5c-40 0 -78 6.66699 -114 20s-73.667 33.666 -113 60.999l-133 94c-89.333 12.667 -155 50.667 -197 114s-63 147.666 -63 252.999zM571 360.005
c0 90.667 -16.833 157.167 -50.5 199.5s-82.5 63.5 -146.5 63.5c-65.333 0 -114.833 -21.167 -148.5 -63.5s-50.5 -108.833 -50.5 -199.5s16.833 -157.167 50.5 -199.5s82.5 -63.5 146.5 -63.5c64.667 0 114 21.167 148 63.5s51 108.833 51 199.5z" />
    <glyph glyph-name="R" unicode="R" horiz-adv-x="640" 
d="M402 100c-14 19.333 -27.665 39.498 -40.998 60.498l-40 63.5h-116v-224h-126v720h266c38 0 72 -6.5 102 -19.5s55.5 -30.833 76.5 -53.5s37 -49.167 48 -79.5s16.5 -62.5 16.5 -96.5c0 -49.333 -11.5 -94.166 -34.5 -134.499s-55.5 -70.166 -97.5 -89.499l36 -56
c10.667 -17.333 20.667 -31.5 30 -42.5s19.166 -19.667 29.499 -26s21.666 -10.833 33.999 -13.5s27.166 -4 44.499 -4v-107c-9.33301 -1.33301 -18.666 -2 -27.999 -2h-25c-34.667 0 -66 8.33301 -94 25s-55 43 -81 79zM205.002 332.998h126
c22.667 0 42.167 3.83301 58.5 11.5s29.666 18 39.999 31s17.833 27.667 22.5 44s7 33.5 7 51.5s-2.33301 35.333 -7 52s-12.167 31.5 -22.5 44.5s-23.666 23.5 -39.999 31.5s-35.833 12 -58.5 12h-126v-278z" />
    <glyph glyph-name="S" unicode="S" horiz-adv-x="577" 
d="M256 97c50.667 0 89.167 9.49805 115.5 28.498s39.5 47.5 39.5 85.5c0 20.667 -4.66699 37.334 -14 50.001s-21.666 22.5 -36.999 29.5s-32.833 12.167 -52.5 15.5s-40.167 6.33301 -61.5 9c-24 3.33301 -48.167 8.5 -72.5 15.5s-46 18 -65 33s-34.5 35 -46.5 60
s-18 57.167 -18 96.5c0 43.333 8 78.833 24 106.5s37 49.334 63 65.001s55.667 26.334 89 32.001s67 8.5 101 8.5c33.333 0 65.166 -1.5 95.499 -4.5s60.166 -6.16699 89.499 -9.5v-112l-86.5 11c-32.333 4 -64.5 6 -96.5 6c-50 0 -87.5 -8 -112.5 -24
s-37.5 -41.333 -37.5 -76c0 -18.667 3.83301 -33.667 11.5 -45s18.167 -20.5 31.5 -27.5s28.5 -12.333 45.5 -16s35.167 -6.83398 54.5 -9.50098c26 -4 52.333 -9 79 -15s50.834 -16 72.501 -30s39.167 -33.833 52.5 -59.5s20 -60.5 20 -104.5
c0 -40 -6.66699 -74.333 -20 -103s-32 -52.167 -56 -70.5s-52.833 -32 -86.5 -41s-70.834 -13.5 -111.501 -13.5c-40 0 -77.667 2 -113 6s-68.666 9 -99.999 15v113c38 -7.33301 73.667 -13.333 107 -18s65.333 -7 96 -7z" />
    <glyph glyph-name="T" unicode="T" horiz-adv-x="624" 
d="M613 611h-238v-611h-126v611h-238v109h602v-109z" />
    <glyph glyph-name="U" unicode="U" horiz-adv-x="722" 
d="M649 255c0 -87.333 -24.668 -153.666 -74.001 -198.999s-120.666 -68 -213.999 -68c-94 0 -165.5 22.667 -214.5 68s-73.5 111.666 -73.5 198.999v465h126v-476c0 -24.667 4.66699 -46.167 14 -64.5s21.5 -33.666 36.5 -45.999s32.333 -21.5 52 -27.5s39.5 -9 59.5 -9
c20.667 0 40.667 3 60 9s36.5 15.167 51.5 27.5s27.167 27.666 36.5 45.999s14 39.833 14 64.5v476h126v-465v0z" />
    <glyph glyph-name="V" unicode="V" horiz-adv-x="668" 
d="M422 0h-176l-241 720h136l187 -582h19l178 582h137z" />
    <glyph glyph-name="W" unicode="W" horiz-adv-x="990" 
d="M499 480h-8l-132 -482h-166l-174 722h134l130 -556h4l146 556h133l146 -556h5l125 556h128l-173 -722h-166z" />
    <glyph glyph-name="X" unicode="X" horiz-adv-x="643" 
d="M165 720l163 -259l153 259h146l-223 -353l234 -367h-154l-166 265l-159 -265h-154l239 371l-229 349h150z" />
    <glyph glyph-name="Y" unicode="Y" horiz-adv-x="622" 
d="M248 0v246l-246 474h143l167 -343h6l161 343h141l-123.5 -237l-122.5 -237v-246h-126z" />
    <glyph glyph-name="Z" unicode="Z" horiz-adv-x="647" 
d="M595 601l-392 -492h409v-109h-566v119l394 492h-401v109h556v-119z" />
    <glyph glyph-name="bracketleft" unicode="[" horiz-adv-x="291" 
d="M246 763v-108h-59v-752h59v-108h-168v968h168z" />
    <glyph glyph-name="backslash" unicode="\" horiz-adv-x="424" 
d="M396 -205h-110l-260 968h112z" />
    <glyph glyph-name="bracketright" unicode="]" horiz-adv-x="291" 
d="M45 -205v108h59v751h-59v109h168v-968h-168z" />
    <glyph glyph-name="asciicircum" unicode="^" horiz-adv-x="492" 
d="M295 692l36 -72l42.5 -86.5l42 -86.5l35.5 -72h-114l-88 187h-6l-86 -187h-116l154 317h100z" />
    <glyph glyph-name="underscore" unicode="_" horiz-adv-x="528" 
d="M64 86h400v-94h-400v94z" />
    <glyph glyph-name="grave" unicode="`" horiz-adv-x="500" 
d="M132 769h129l62 -154h-95z" />
    <glyph glyph-name="a" unicode="a" horiz-adv-x="563" 
d="M375 331l-0.00195312 41.001c0 25.333 -8.66699 45.666 -26 60.999s-48.333 23 -93 23c-12 0 -25.5 -0.5 -40.5 -1.5s-30.5 -2.66699 -46.5 -5s-31.833 -5 -47.5 -8s-30.5 -6.5 -44.5 -10.5v104c34 7.33301 69.833 13 107.5 17s71.167 6 100.5 6
c66.667 0 118.834 -16.167 156.501 -48.5s56.5 -80.833 56.5 -145.5v-364h-105l-9 61h-4c-30 -21.333 -59.833 -38 -89.5 -50s-59.5 -18 -89.5 -18c-23.333 0 -45.333 3.5 -66 10.5s-38.667 17.5 -54 31.5s-27.5 31.5 -36.5 52.5s-13.5 45.833 -13.5 74.5
c0 52.667 17.833 94 53.5 124s85.834 45 150.501 45h140zM374.998 244.001h-122c-65.333 0 -98 -24.333 -98 -73c0 -25.333 8 -44.333 24 -57s36.667 -19 62 -19c23.333 0 47 4.5 71 13.5s45 20.167 63 33.5v102z" />
    <glyph glyph-name="b" unicode="b" horiz-adv-x="610" 
d="M279 -12c-34.667 0 -70.168 2.83203 -106.501 8.49902s-71.5 13.167 -105.5 22.5v744h123v-260c29.333 17.333 58.5 30.833 87.5 40.5s59.5 14.5 91.5 14.5c26 0 51 -5 75 -15s45.333 -25.833 64 -47.5s33.5 -49.667 44.5 -84s16.5 -76.166 16.5 -125.499
c0 -57.333 -7.83301 -105 -23.5 -143s-36.667 -68.5 -63 -91.5s-57.166 -39.333 -92.499 -49s-72.333 -14.5 -111 -14.5zM442.999 278.999c0 58.667 -9.66895 101.834 -29.002 129.501s-48 41.5 -86 41.5c-18 0 -38.667 -3.83301 -62 -11.5s-48.666 -19.167 -75.999 -34.5
v-304c32.667 -6.66699 63.334 -10 92.001 -10c56.667 0 97.667 15.167 123 45.5s38 78.166 38 143.499z" />
    <glyph glyph-name="c" unicode="c" horiz-adv-x="526" 
d="M331 95c26 0 51.666 2.33203 76.999 6.99902s50.666 10.667 75.999 18v-107c-28.667 -8.66699 -56.667 -15 -84 -19s-56.666 -6 -87.999 -6c-33.333 0 -66.166 4.33301 -98.499 13s-61.333 23.667 -87 45s-46.5 50.5 -62.5 87.5s-24 83.5 -24 139.5s8 102.333 24 139
s36.833 65.834 62.5 87.501s54.667 36.834 87 45.501s65.166 13 98.499 13c31.333 0 60.666 -2 87.999 -6s55.333 -10.333 84 -19v-108c-25.333 8 -50.666 14.167 -75.999 18.5s-51 6.5 -77 6.5c-54 0 -95.167 -14 -123.5 -42s-42.5 -73 -42.5 -135
c0 -26 3.16699 -50 9.5 -72s16.333 -40.833 30 -56.5s30.834 -27.834 51.501 -36.501s45.667 -13 75 -13z" />
    <glyph glyph-name="d" unicode="d" horiz-adv-x="610" 
d="M41 259c0 56.667 7.16699 104.17 21.5 142.503s34 69.166 59 92.499s54.167 39.833 87.5 49.5s69.333 14.5 108 14.5c15.333 0 32 -0.833008 50 -2.5s35.333 -4.16699 52 -7.5v215h122v-763h-100c-2 3.33301 -4 10.166 -6 20.499s-4 17.166 -6 20.499
c-57.333 -34 -115.333 -51 -174 -51c-28 0 -54.833 4.66699 -80.5 14s-48.5 24.5 -68.5 45.5s-35.833 48.667 -47.5 83s-17.5 76.5 -17.5 126.5zM167 265.003c0 -60 10.668 -103.5 32.001 -130.5s49.666 -40.5 84.999 -40.5c20 0 41.5 3.83301 64.5 11.5
s46.167 18.167 69.5 31.5v309c-32 6 -61.333 9 -88 9c-56.667 0 -98 -14.833 -124 -44.5s-39 -78.167 -39 -145.5z" />
    <glyph glyph-name="e" unicode="e" horiz-adv-x="580" 
d="M527 23c-36.667 -11.333 -71.834 -20 -105.501 -26s-69.834 -9 -108.501 -9c-89.333 0 -157 22.833 -203 68.5s-69 117.834 -69 216.501c0 95.333 22.833 166.666 68.5 213.999s109.167 71 190.5 71c48 0 87.333 -7.33301 118 -22s54.834 -34 72.501 -58
s29.834 -51.833 36.501 -83.5s10 -64.5 10 -98.5v-56h-367c0.666992 -52.667 16 -90 46 -112s72 -33 126 -33c25.333 0 55 3.33301 89 10s66 14.667 96 24v-106zM412 329c0 14.667 -1.50098 29.833 -4.50098 45.5s-8.83301 30 -17.5 43s-20.667 23.5 -36 31.5
s-35.666 12 -60.999 12c-20.667 0 -38.834 -3.5 -54.501 -10.5s-28.667 -16.5 -39 -28.5s-18.166 -26 -23.499 -42s-8 -33 -8 -51h244z" />
    <glyph glyph-name="f" unicode="f" horiz-adv-x="383" 
d="M391 665c-37.333 6 -66.668 8.99805 -88.001 8.99805c-19.333 0 -34.833 -1.83301 -46.5 -5.5s-20.667 -9.16699 -27 -16.5s-10.666 -16.166 -12.999 -26.499s-3.5 -22.166 -3.5 -35.499v-45h156v-104h-152v-441h-122v441h-67v93l67 11v69c0 56 13.333 96.833 40 122.5
s71 38.5 133 38.5c22 0 44 -0.833008 66 -2.5s41 -4.16699 57 -7.5v-100z" />
    <glyph glyph-name="g" unicode="g" horiz-adv-x="594" 
d="M40 360c0 62 20.834 110.495 62.501 145.495s99.167 52.5 172.5 52.5c31.333 0 62.333 -2 93 -6s60.667 -6 90 -6c19.333 0 39 0.833008 59 2.5s39.333 4.16699 58 7.5v-98c-16 0 -33.167 0.166992 -51.5 0.5s-36.833 0.5 -55.5 0.5
c13.333 -11.333 23.833 -25.666 31.5 -42.999s11.5 -37 11.5 -59c0 -35.333 -6.83301 -64.666 -20.5 -87.999s-31.5 -42 -53.5 -56s-47.167 -23.833 -75.5 -29.5s-57.5 -8.5 -87.5 -8.5c-11.333 0 -22.833 0.333008 -34.5 1s-23.167 1.66699 -34.5 3
c-4.66699 -6 -8.5 -12.667 -11.5 -20s-4.5 -15.666 -4.5 -24.999c0 -11.333 3.33301 -20.666 10 -27.999s17.667 -11 33 -11h163c22 0 43 -2 63 -6s37.833 -11.167 53.5 -21.5s28.167 -24.5 37.5 -42.5s14 -41 14 -69c0 -59.333 -25.833 -103 -77.5 -131
s-124.5 -42 -218.5 -42c-80.667 0 -140 10.833 -178 32.5s-57 54.5 -57 98.5c0 24.667 6.5 47.834 19.5 69.501s37.167 38.5 72.5 50.5v5c-14.667 8.66699 -25.5 19.667 -32.5 33s-10.5 26.333 -10.5 39c0 16 4.16699 32.5 12.5 49.5s21.166 32.167 38.499 45.5
c-28 13.333 -50.333 32.833 -67 58.5s-25 57.5 -25 95.5zM388.001 361.995c0 30.667 -8.66699 55.166 -26 73.499s-45.666 27.5 -84.999 27.5c-40 0 -68.667 -9.16699 -86 -27.5s-26 -43.166 -26 -74.499s8.66699 -55.833 26 -73.5s46 -26.5 86 -26.5
c39.333 0 67.666 8.83301 84.999 26.5s26 42.5 26 74.5zM238.001 0.994141c-24 -3.33301 -43.333 -10.8301 -58 -22.4971s-22 -28.167 -22 -49.5c0 -24.667 10.333 -40.834 31 -48.501s52 -11.5 94 -11.5c50 0 88 5.16699 114 15.5s39 30.166 39 59.499
c0 19.333 -6 33.666 -18 42.999s-28.667 14 -50 14h-130z" />
    <glyph glyph-name="h" unicode="h" 
d="M423 0l-0.000976562 373.999c0 48 -24 72 -72 72c-22.667 0 -47.667 -5.16699 -75 -15.5s-55.333 -23.166 -84 -38.499v-392h-123v763h123v-275c34.667 20 68.334 36.5 101.001 49.5s64 19.5 94 19.5c50 0 89 -12.667 117 -38s42 -66 42 -122v-397h-123z" />
    <glyph glyph-name="i" unicode="i" horiz-adv-x="261" 
d="M192 0h-123v546h123v-546zM193 620h-126v122h126v-122z" />
    <glyph glyph-name="j" unicode="j" horiz-adv-x="262" 
d="M193 65c0 -34.667 -3.33398 -65.667 -10.001 -93s-16.667 -52 -30 -74s-30.166 -42 -50.499 -60s-43.833 -34.667 -70.5 -50l-59 88c20 14 36.333 27.333 49 40s22.5 26.334 29.5 41.001s11.833 31.167 14.5 49.5s4 40.166 4 65.499v474h123v-481zM194.999 620h-126v122
h126v-122z" />
    <glyph glyph-name="k" unicode="k" horiz-adv-x="570" 
d="M500 530c0 -23.333 -2.16797 -46.668 -6.50098 -70.001s-11.666 -45.833 -21.999 -67.5s-24 -42 -41 -61s-38.167 -35.833 -63.5 -50.5l54 -93c15.333 -27.333 33 -47.666 53 -60.999s44 -20.333 72 -21v-110c-6.66699 -1.33301 -13.167 -2.16602 -19.5 -2.49902
s-13.166 -0.5 -20.499 -0.5c-40.667 0 -76.834 11.167 -108.501 33.5s-60.5 56.833 -86.5 103.5l-55 101l-65 -27v-204h-122v763h122v-453l68 28c14 6 28 13.5 42 22.5s26.667 20.833 38 35.5s20.5 32.167 27.5 52.5s10.5 45.166 10.5 74.499v23h123v-16z" />
    <glyph glyph-name="l" unicode="l" horiz-adv-x="264" 
d="M193 0h-122v763h122v-763z" />
    <glyph glyph-name="m" unicode="m" horiz-adv-x="939" 
d="M410 0v375.002c0 23.333 -6 41.166 -18 53.499s-31 18.5 -57 18.5c-21.333 0 -44 -5 -68 -15s-49 -23.333 -75 -40v-392h-123v546h115v-61h4c30 20 60.667 37.167 92 51.5s63.333 21.5 96 21.5c32 0 60.333 -6.33301 85 -19s43 -32.667 55 -60
c34 23.333 67.5 42.333 100.5 57s66.5 22 100.5 22c22.667 0 43.5 -3.16699 62.5 -9.5s35.5 -16 49.5 -29s24.833 -29.667 32.5 -50s11.5 -44.833 11.5 -73.5v-396h-123v375c0 23.333 -5.83301 41.166 -17.5 53.499s-30.5 18.5 -56.5 18.5c-17.333 0 -39.833 -5 -67.5 -15
s-53.167 -23.333 -76.5 -40v-392h-122z" />
    <glyph glyph-name="n" unicode="n" horiz-adv-x="611" 
d="M423 0v374c0 23.333 -5.5 41.333 -16.5 54s-29.833 19 -56.5 19c-22.667 0 -47.834 -5.33301 -75.501 -16s-55.5 -23.667 -83.5 -39v-392h-122v546h114v-61h4c35.333 21.333 69.833 38.833 103.5 52.5s65.834 20.5 96.501 20.5c50 0 88.833 -12.833 116.5 -38.5
s41.5 -66.5 41.5 -122.5v-397h-122z" />
    <glyph glyph-name="o" unicode="o" horiz-adv-x="628" 
d="M166 273c0 -56.667 11.667 -100.834 35 -132.501s61.333 -47.5 114 -47.5c52 0 89.5 15.833 112.5 47.5s34.5 75.834 34.5 132.501s-11.5 100.667 -34.5 132s-60.5 47 -112.5 47c-52.667 0 -90.667 -15.667 -114 -47s-35 -75.333 -35 -132zM40 273
c0 50.667 7.16699 94 21.5 130s34 65.5 59 88.5s54.167 39.833 87.5 50.5s68.666 16 105.999 16s72.666 -5.5 105.999 -16.5s62.5 -28 87.5 -51s44.833 -52.5 59.5 -88.5s22 -79 22 -129s-7.33301 -93 -22 -129s-34.5 -65.5 -59.5 -88.5s-54.167 -40 -87.5 -51
s-68.666 -16.5 -105.999 -16.5s-72.666 5.33301 -105.999 16s-62.5 27.5 -87.5 50.5s-44.667 52.5 -59 88.5s-21.5 79.333 -21.5 130z" />
    <glyph glyph-name="p" unicode="p" horiz-adv-x="610" 
d="M69 -205l-0.000976562 751h122v-57c30 22 60.333 38.833 91 50.5s61 17.5 91 17.5c26 0 50.833 -5.16699 74.5 -15.5s44.5 -26.5 62.5 -48.5s32.333 -50 43 -84s16 -74.667 16 -122c0 -54 -6.5 -99.667 -19.5 -137s-31 -67.833 -54 -91.5s-50.167 -40.834 -81.5 -51.501
s-65.666 -16 -102.999 -16c-18.667 0 -38.5 1.33301 -59.5 4s-41.167 6.33398 -60.5 11.001v-211h-122zM442.999 280c0 60 -10.167 103.168 -30.5 129.501s-46.5 39.5 -78.5 39.5c-42.667 0 -90.334 -18.667 -143.001 -56v-286c18.667 -4.66699 37 -8.33398 55 -11.001
s34.667 -4 50 -4c50.667 0 87.834 15.833 111.501 47.5s35.5 78.5 35.5 140.5z" />
    <glyph glyph-name="q" unicode="q" horiz-adv-x="611" 
d="M331 558c34.667 0 70.165 -2.83203 106.498 -8.49902s71.5 -13.167 105.5 -22.5v-732h-123v248c-29.333 -17.333 -58.333 -30.833 -87 -40.5s-59 -14.5 -91 -14.5c-26 0 -51.167 5 -75.5 15s-45.666 25.833 -63.999 47.5s-33.166 49.667 -44.499 84
s-17 76.166 -17 125.499c0 56.667 7.83301 104.167 23.5 142.5s36.667 69 63 92s57 39.333 92 49s72.167 14.5 111.5 14.5zM166.998 267.001c0 -58.667 9.99805 -102 29.998 -130s48.333 -42 85 -42c18.667 0 40 3.83301 64 11.5s48.667 19.167 74 34.5v304
c-17.333 3.33301 -33.666 5.83301 -48.999 7.5s-29.666 2.5 -42.999 2.5c-60 0 -101.833 -16.167 -125.5 -48.5s-35.5 -78.833 -35.5 -139.5z" />
    <glyph glyph-name="r" unicode="r" horiz-adv-x="408" 
d="M392 422c-36 -5.33301 -69.332 -13.998 -99.999 -25.998s-64.334 -26 -101.001 -42v-354h-122v546h116v-92l45 30c15.333 10.667 31.5 20.667 48.5 30s34.833 17.166 53.5 23.499s38.667 10.166 60 11.499v-127z" />
    <glyph glyph-name="s" unicode="s" horiz-adv-x="495" 
d="M228 92c36.667 0 63.501 5.83008 80.501 17.4971s25.5 29.167 25.5 52.5c0 12 -3 21.833 -9 29.5s-14.5 13.834 -25.5 18.501s-23.833 8.33398 -38.5 11.001s-30.667 5.33398 -48 8.00098c-19.333 2.66699 -39.166 6.83398 -59.499 12.501s-38.666 14.334 -54.999 26.001
s-29.666 27 -39.999 46s-15.5 43.5 -15.5 73.5c0 32 5.66699 58.833 17 80.5s27.166 39.167 47.499 52.5s44.333 23 72 29s57.834 9 90.501 9c26.667 0 54.167 -1.33301 82.5 -4s54.5 -6 78.5 -10l-4 -106c-20.667 3.33301 -44.334 6.66602 -71.001 9.99902s-50.667 5 -72 5
c-41.333 0 -70.833 -4.83301 -88.5 -14.5s-26.5 -24.834 -26.5 -45.501c0 -11.333 2.66699 -20.5 8 -27.5s13 -12.833 23 -17.5s21.833 -8.33398 35.5 -11.001s28.5 -5.33398 44.5 -8.00098c20.667 -3.33301 41.834 -7.66602 63.501 -12.999s41 -13.666 58 -24.999
s31 -26.833 42 -46.5s16.5 -45.5 16.5 -77.5c0 -60 -19 -104.833 -57 -134.5s-94.333 -44.5 -169 -44.5c-14.667 0 -30.334 0.333008 -47.001 1s-33.334 1.5 -50.001 2.5s-32.834 2.33301 -48.501 4l-41.5 4.5l4 109c32 -4.66699 63.667 -8.66699 95 -12
s58.666 -5 81.999 -5z" />
    <glyph glyph-name="t" unicode="t" horiz-adv-x="399" 
d="M215 157c0 -23.333 6.99609 -39.165 20.9961 -47.498s29.667 -12.5 47 -12.5c12.667 0 25.834 1.33301 39.501 4s26.5 5.66699 38.5 9v-105c-21.333 -4 -44.666 -7.66699 -69.999 -11s-48.666 -5 -69.999 -5c-17.333 0 -33.666 1.66699 -48.999 5s-29 9.66602 -41 18.999
s-21.5 22.166 -28.5 38.499s-10.5 37.5 -10.5 63.5v326h-71v76l155 149h40v-121h166v-104h-167v-284z" />
    <glyph glyph-name="u" unicode="u" 
d="M189 546v-374c0 -23.333 5.5 -41.333 16.5 -54s29.5 -19 55.5 -19c22.667 0 48 5.16699 76 15.5s55.667 23.166 83 38.499v393h123v-546h-104l-10 60h-4c-36 -21.333 -70.667 -38.666 -104 -51.999s-65.333 -20 -96 -20c-50 0 -89 12.833 -117 38.5s-42 66.167 -42 121.5
v398h123z" />
    <glyph glyph-name="v" unicode="v" horiz-adv-x="554" 
d="M146 546l129 -412h6l129 412h129l-184 -547h-157l-182 547h130z" />
    <glyph glyph-name="w" unicode="w" horiz-adv-x="930" 
d="M187 546l0.00195312 -378.001c0 -48.667 28.667 -73 86 -73c21.333 0 43.333 4.83301 66 14.5s46.334 22.834 71.001 39.501c-1.33301 10 -2.33301 20.667 -3 32s-1 22.666 -1 33.999v331h116v-363c0 -31.333 10.167 -53.833 30.5 -67.5s46.166 -20.5 77.499 -20.5
c9.33301 0 20.5 1 33.5 3s25.333 6.33301 37 13s21.667 15.834 30 27.501s12.5 27.5 12.5 47.5v360h123v-363c0 -37.333 -6.66699 -68.5 -20 -93.5s-31 -45 -53 -60s-47.333 -25.667 -76 -32s-58.334 -9.5 -89.001 -9.5c-40.667 0 -77.167 6.33301 -109.5 19
s-59.5 34.334 -81.5 65.001c-30 -26.667 -60.5 -47.334 -91.5 -62.001s-64.5 -22 -100.5 -22c-62.667 0 -108.334 16.333 -137.001 49s-43 81 -43 145v364h122z" />
    <glyph glyph-name="x" unicode="x" horiz-adv-x="575" 
d="M12 546h153l124 -177l122 177h153l-198 -266l198 -280h-147l-131 186l-128 -186h-147l198 274z" />
    <glyph glyph-name="y" unicode="y" horiz-adv-x="560" 
d="M176 -205l68 205h-52l-87.5 273l-88.5 273h134l62.5 -206.5l62.5 -207.5h9l64 207.5l64 206.5h131l-239 -751h-128z" />
    <glyph glyph-name="z" unicode="z" horiz-adv-x="549" 
d="M39 546h457v-88l-285 -353h305v-105h-471v89l289 352h-295v105z" />
    <glyph glyph-name="braceleft" unicode="{" horiz-adv-x="456" 
d="M234 380c0 -10.667 -0.666016 -21.6709 -1.99902 -33.0039s-4 -22.333 -8 -33s-9.5 -20.334 -16.5 -29.001s-15.833 -16 -26.5 -22v-6c20.667 -11.333 34.667 -28 42 -50s11 -44.333 11 -67c0 -16 -1.16699 -32.167 -3.5 -48.5l-7 -48.5l-7 -47
c-2.33301 -15.333 -3.5 -29.666 -3.5 -42.999c0 -68 35 -102 105 -102c17.333 0 35.5 1.83301 54.5 5.5s37.167 7.83398 54.5 12.501v-107c-22.667 -5.33301 -44.167 -9.33301 -64.5 -12s-42.166 -4 -65.499 -4c-38 0 -69.833 5.16699 -95.5 15.5s-46.334 24.5 -62.001 42.5
s-26.834 38.833 -33.501 62.5s-10 48.834 -10 75.501c0 20 1.16699 38.833 3.5 56.5s5 34.5 8 50.5s5.66699 31 8 45s3.5 27 3.5 39c0 19.333 -4.16699 36 -12.5 50s-24.5 21 -48.5 21h-13.5c-7.66699 0 -11.834 -0.333008 -12.501 -1v114
c0.666992 -0.666992 4.83398 -1 12.501 -1h13.5c24 0 40.167 7 48.5 21s12.5 30.667 12.5 50c0 23.333 -3.66699 51.333 -11 84s-11 68.667 -11 108c0 26.667 3.33301 51.834 10 75.501s17.834 44.5 33.501 62.5s36.167 32.167 61.5 42.5s57 15.5 95 15.5
c23.333 0 45.166 -1.33301 65.499 -4s41.833 -7 64.5 -13v-107c-17.333 4.66699 -35.5 8.83398 -54.5 12.501s-37.167 5.5 -54.5 5.5c-70 0 -105 -34 -105 -102c0 -13.333 1.16699 -27.5 3.5 -42.5l7 -46.5l7 -49c2.33301 -16.667 3.5 -33 3.5 -49z" />
    <glyph glyph-name="bar" unicode="|" horiz-adv-x="280" 
d="M202 -205h-124v968h124v-968z" />
    <glyph glyph-name="braceright" unicode="}" horiz-adv-x="456" 
d="M222 141c0 10.667 0.666992 21.6729 2 33.0059s4 22.333 8 33s9.5 20.334 16.5 29.001s15.833 16 26.5 22v6c-10.667 6 -19.334 13.333 -26.001 22s-12 18.167 -16 28.5s-6.83301 21.166 -8.5 32.499s-2.5 22.666 -2.5 33.999c0 16 1.16699 32.167 3.5 48.5l7 48.5l7 47
c2.33301 15.333 3.5 29.666 3.5 42.999c0 68 -35 102 -105 102c-17.333 0 -35.5 -1.83301 -54.5 -5.5s-37.167 -7.83398 -54.5 -12.501v107c22.667 5.33301 44.167 9.33301 64.5 12s42.166 4 65.499 4c38 0 69.833 -5.16699 95.5 -15.5s46.334 -24.5 62.001 -42.5
s26.834 -38.833 33.501 -62.5s10 -48.834 10 -75.501c0 -20 -1.16699 -39 -3.5 -57s-5 -35 -8 -51s-5.66699 -30.833 -8 -44.5s-3.5 -26.5 -3.5 -38.5c0 -19.333 4.16699 -36 12.5 -50s24.5 -21 48.5 -21h13.5c7.66699 0 11.834 0.333008 12.501 1v-114
c-0.666992 0.666992 -4.83398 1 -12.501 1h-13.5c-24 0 -40.167 -7 -48.5 -21s-12.5 -30.667 -12.5 -50c0 -23.333 3.66699 -51.333 11 -84s11 -68.667 11 -108c0 -26.667 -3.33301 -51.834 -10 -75.501s-17.834 -44.5 -33.501 -62.5s-36.167 -32.167 -61.5 -42.5
s-57 -15.5 -95 -15.5c-23.333 0 -45.166 1.33301 -65.499 4s-41.833 7 -64.5 13v107c17.333 -4.66699 35.5 -8.83398 54.5 -12.501s37.167 -5.5 54.5 -5.5c70 0 105 34 105 102c0 13.333 -1.16699 27.5 -3.5 42.5l-7 46.5l-7 49c-2.33301 16.667 -3.5 33 -3.5 49z" />
    <glyph glyph-name="asciitilde" unicode="~" horiz-adv-x="597" 
d="M532 273c-19.333 -9.33301 -37.6689 -15.833 -55.002 -19.5s-33.666 -5.5 -48.999 -5.5c-22 0 -43.333 2 -64 6s-40.834 8.5 -60.501 13.5s-39.167 9.5 -58.5 13.5s-38.666 6 -57.999 6c-17.333 0 -35.166 -2 -53.499 -6s-37.833 -11.667 -58.5 -23l-9 91
c23.333 11.333 45.833 19.166 67.5 23.499s41.5 6.5 59.5 6.5c22.667 0 44.667 -2 66 -6s41.833 -8.33301 61.5 -13s38.834 -9 57.501 -13s37 -6 55 -6c15.333 0 30.166 1.33301 44.499 4s28.5 7.33398 42.5 14.001z" />
    <glyph glyph-name="uni00A0" unicode="&#xa0;" horiz-adv-x="249" 
 />
    <glyph glyph-name="exclamdown" unicode="&#xa1;" horiz-adv-x="273" 
d="M202 389h-131v126h131v-126zM76 292h122v-497h-122v497z" />
    <glyph glyph-name="cent" unicode="&#xa2;" horiz-adv-x="529" 
d="M245 -169l0.00195312 163.001c-28 4 -54.833 11.667 -80.5 23s-48.334 27.833 -68.001 49.5s-35.334 49.334 -47.001 83.001s-17.5 74.5 -17.5 122.5s5.83301 88.667 17.5 122s27.334 61 47.001 83s42.334 39 68.001 51s52.5 20 80.5 24v163h107v-160
c21.333 -1.33301 42.166 -3.83301 62.499 -7.5s41.166 -8.83398 62.499 -15.501v-111c-25.333 8 -50.833 14.167 -76.5 18.5s-51.167 6.5 -76.5 6.5c-54 0 -95.167 -13.5 -123.5 -40.5s-42.5 -71.5 -42.5 -133.5c0 -52.667 13.167 -94.834 39.5 -126.501
s68.5 -47.5 126.5 -47.5c25.333 0 50.833 2.33301 76.5 7s51.167 10.667 76.5 18v-110c-41.333 -12.667 -83 -20 -125 -22v-160h-107z" />
    <glyph glyph-name="sterling" unicode="&#xa3;" horiz-adv-x="545" 
d="M443 631c-27.333 -4 -50.833 -10.498 -70.5 -19.498s-35.834 -21.333 -48.501 -37s-22.167 -34.834 -28.5 -57.501s-9.5 -49.667 -9.5 -81v-18h166v-108h-172v-22c0 -14 -0.5 -29.833 -1.5 -47.5s-3.5 -35.334 -7.5 -53.001s-10 -34.167 -18 -49.5
s-19 -27.666 -33 -36.999c23.333 4 48 6.83301 74 8.5s56 2.5 90 2.5h121v-112h-474l14 104c26.667 2 47.5 8.83301 62.5 20.5s26 26.167 33 43.5s11.333 36.666 13 57.999s2.5 42 2.5 62v22h-79v108h81v16c0 92.667 23.333 166 70 220s113.334 83.667 200.001 89z" />
    <glyph glyph-name="yen" unicode="&#xa5;" horiz-adv-x="685" 
d="M77 347h151l-194 373h143l167 -343h7l160 343h141l-195 -373h151v-103h-202v-56h202v-103h-202v-85h-126v85h-203v103h203v56h-203v103z" />
    <glyph glyph-name="brokenbar" unicode="&#xa6;" horiz-adv-x="282" 
d="M203 245v-450h-124v450h124zM79 313v450h124v-450h-124z" />
    <glyph glyph-name="section" unicode="&#xa7;" horiz-adv-x="531" 
d="M208 424c-8 -13.333 -14.166 -25.499 -18.499 -36.499s-6.5 -22.5 -6.5 -34.5c0 -20.667 5 -36 15 -46s22.667 -17.333 38 -22s32.666 -8.33398 51.999 -11.001s38 -6.66699 56 -12c14 26 21 48.333 21 67c0 17.333 -3.66699 30.833 -11 40.5s-17.833 17.5 -31.5 23.5
s-30.167 11.167 -49.5 15.5s-41 9.5 -65 15.5zM476.001 118.001c0 -60 -18.998 -104.834 -56.998 -134.501s-94.333 -44.5 -169 -44.5c-14.667 0 -30.334 0.333008 -47.001 1s-33.334 1.5 -50.001 2.5s-32.834 2.33301 -48.501 4l-41.5 4.5l4 109
c32 -4.66699 63.667 -8.66699 95 -12s58.666 -5 81.999 -5c36.667 0 63.5 5.83301 80.5 17.5s25.5 29.167 25.5 52.5c0 12 -3 21.833 -9 29.5s-14.5 13.834 -25.5 18.501s-23.833 8.33398 -38.5 11.001s-30.667 5.33398 -48 8.00098
c-19.333 2.66699 -39.166 6.83398 -59.499 12.501s-38.666 14.334 -54.999 26.001s-29.666 27 -39.999 46s-15.5 43.5 -15.5 73.5c0 26.667 5 50.5 15 71.5s23.667 39.5 41 55.5c-15.333 12 -28.666 28 -39.999 48s-17 44 -17 72c0 32 5.66699 58.833 17 80.5
s27.166 39.167 47.499 52.5s44.333 23 72 29s57.834 9 90.501 9c26.667 0 54.167 -1.33301 82.5 -4s54.5 -6 78.5 -10l-4 -106c-20.667 3.33301 -44.334 6.66602 -71.001 9.99902s-50.667 5 -72 5c-41.333 0 -70.833 -4.83301 -88.5 -14.5s-26.5 -24.834 -26.5 -45.501
c0 -18.667 7.33301 -32.334 22 -41.001s33.167 -15.5 55.5 -20.5s46.333 -9.83301 72 -14.5s49.667 -12.5 72 -23.5s40.833 -26.667 55.5 -47s22 -48.833 22 -85.5c0 -24 -4.83301 -49 -14.5 -75s-21.167 -48.667 -34.5 -68c13.333 -11.333 23.666 -24.333 30.999 -39
s11 -34.334 11 -59.001z" />
    <glyph glyph-name="dieresis" unicode="&#xa8;" horiz-adv-x="833" 
d="M622 613h-109v125h109v-125zM376 613h-109v125h109v-125z" />
    <glyph glyph-name="copyright" unicode="&#xa9;" horiz-adv-x="843" 
d="M421 41c44.667 0 86.667 8.33301 126 25s73.5 39.334 102.5 68.001s51.833 62.5 68.5 101.5s25 80.833 25 125.5s-8.33301 86.667 -25 126s-39.5 73.333 -68.5 102s-63.167 51.334 -102.5 68.001s-81.333 25 -126 25s-86.5 -8.33301 -125.5 -25s-73 -39.334 -102 -68.001
s-51.833 -62.667 -68.5 -102s-25 -81.333 -25 -126s8.33301 -86.5 25 -125.5s39.5 -72.833 68.5 -101.5s63 -51.334 102 -68.001s80.833 -25 125.5 -25zM799 361c0 -52 -9.83301 -100.667 -29.5 -146s-46.667 -84.833 -81 -118.5s-74.5 -60.167 -120.5 -79.5
s-95 -29 -147 -29s-100.833 9.66699 -146.5 29s-85.667 45.833 -120 79.5s-61.333 73.167 -81 118.5s-29.5 94 -29.5 146s9.83301 100.833 29.5 146.5s46.667 85.334 81 119.001s74.333 60.167 120 79.5s94.5 29 146.5 29s101 -9.66699 147 -29s86.167 -45.833 120.5 -79.5
s61.333 -73.334 81 -119.001s29.5 -94.5 29.5 -146.5zM269 365c0 54 15.168 95.667 45.501 125s70.166 44 119.499 44c14 0 28.333 -0.666992 43 -2s29.667 -4 45 -8v-70c-11.333 2.66699 -23.833 5.16699 -37.5 7.5s-26.834 3.5 -39.501 3.5c-30.667 0 -54.5 -7 -71.5 -21
s-25.5 -40.333 -25.5 -79c0 -19.333 2.16699 -35.5 6.5 -48.5s10.666 -23.333 18.999 -31s18.5 -13 30.5 -16s25.667 -4.5 41 -4.5c12.667 0 25.834 1.16699 39.501 3.5s26.167 4.83301 37.5 7.5v-70c-15.333 -4 -30.333 -6.66699 -45 -8s-29 -2 -43 -2
c-49.333 0 -89.166 14.667 -119.499 44s-45.5 71 -45.5 125z" />
    <glyph glyph-name="ordfeminine" unicode="&#xaa;" horiz-adv-x="430" 
d="M282 470h-70.001c-9.33301 0 -18.666 -0.5 -27.999 -1.5s-17.833 -3.16699 -25.5 -6.5s-14 -8.33301 -19 -15s-7.5 -15.667 -7.5 -27c0 -16 5.66699 -28 17 -36s27 -12 47 -12c27.333 0 56 8.33301 86 25v73zM47.999 412c0 40.667 12.498 70 37.498 88
s62.833 27 113.5 27h83v17c0 21.333 -6.66699 37 -20 47s-35 15 -65 15c-14.667 0 -31.834 -1 -51.501 -3s-43.167 -6.33301 -70.5 -13v74c22.667 5.33301 45.334 9.66602 68.001 12.999s45.334 5 68.001 5c51.333 0 89.833 -11.167 115.5 -33.5s38.5 -57.5 38.5 -105.5
v-235h-64l-7 38c-21.333 -14.667 -42.166 -25.5 -62.499 -32.5s-41.5 -10.5 -63.5 -10.5c-16 0 -31.333 2.16699 -46 6.5s-27.5 11 -38.5 20s-19.667 20.333 -26 34s-9.5 29.834 -9.5 48.501z" />
    <glyph glyph-name="guillemotleft" unicode="&#xab;" horiz-adv-x="582" 
d="M308 531l-152 -258l152 -259h-117l-154 259l153 258h118zM546 531l-152 -258l152 -259h-117l-154 259l154 258h117z" />
    <glyph glyph-name="logicalnot" unicode="&#xac;" horiz-adv-x="620" 
d="M548 69l-93 9v139h-388v107h481v-255z" />
    <glyph glyph-name="registered" unicode="&#xae;" horiz-adv-x="519" 
d="M263 632c11.333 0 22.166 -1.16699 32.499 -3.5s19.333 -6.33301 27 -12s13.834 -13.167 18.501 -22.5s7 -21 7 -35c0 -10.667 -2.5 -21.5 -7.5 -32.5s-13.833 -20.167 -26.5 -27.5l40 -79h-52l-33 68h-34v-68h-48v212h76zM235 525l27 0.000976562
c15.333 0 25.5 3.66699 30.5 11s7.5 15.333 7.5 24c0 9.33301 -2.66699 17.166 -8 23.499s-15.333 9.5 -30 9.5h-27v-68zM260 342.001c24 0 46.667 4.5 68 13.5s40 21.5 56 37.5s28.667 34.667 38 56s14 44.333 14 69s-4.66699 47.667 -14 69s-22 40 -38 56
s-34.667 28.5 -56 37.5s-44 13.5 -68 13.5c-24.667 0 -47.667 -4.5 -69 -13.5s-40 -21.5 -56 -37.5s-28.5 -34.667 -37.5 -56s-13.5 -44.333 -13.5 -69s4.5 -47.667 13.5 -69s21.5 -40 37.5 -56s34.667 -28.5 56 -37.5s44.333 -13.5 69 -13.5zM475 518.001
c0 -30 -5.66699 -57.833 -17 -83.5s-26.833 -48.167 -46.5 -67.5s-42.5 -34.5 -68.5 -45.5s-53.667 -16.5 -83 -16.5c-30 0 -58 5.5 -84 16.5s-48.833 26.167 -68.5 45.5s-35.167 41.833 -46.5 67.5s-17 53.5 -17 83.5s5.66699 58 17 84s26.833 48.667 46.5 68
s42.5 34.5 68.5 45.5s54 16.5 84 16.5c29.333 0 57 -5.5 83 -16.5s48.833 -26.167 68.5 -45.5s35.167 -42 46.5 -68s17 -54 17 -84z" />
    <glyph glyph-name="macron" unicode="&#xaf;" horiz-adv-x="601" 
d="M100 720h401v-99h-401v99z" />
    <glyph glyph-name="degree" unicode="&#xb0;" horiz-adv-x="319" 
d="M44 610c0 17.333 3 33 9 47s14.333 26 25 36s23 17.667 37 23s29 8 45 8s31 -2.66699 45 -8s26.167 -13 36.5 -23s18.666 -22 24.999 -36s9.5 -29.667 9.5 -47s-3.16699 -33.166 -9.5 -47.499s-14.666 -26.5 -24.999 -36.5s-22.5 -17.667 -36.5 -23s-29 -8 -45 -8
s-31 2.66699 -45 8s-26.333 13 -37 23s-19 22.167 -25 36.5s-9 30.166 -9 47.499zM216 610c0 18 -5 32.5 -15 43.5s-23.667 16.5 -41 16.5s-31.166 -5.5 -41.499 -16.5s-15.5 -25.5 -15.5 -43.5c0 -18.667 5.16699 -33.334 15.5 -44.001s24.166 -16 41.499 -16
s31 5.33301 41 16s15 25.334 15 44.001z" />
    <glyph glyph-name="plusminus" unicode="&#xb1;" horiz-adv-x="592" 
d="M60 89h472v-89h-472v89zM60 442h186v183h100v-183h186v-100h-186v-183h-100v183h-186v100z" />
    <glyph glyph-name="twosuperior" unicode="&#xb2;" horiz-adv-x="421" 
d="M56 360l70.999 53.502c23.333 18.333 44.333 36.666 63 54.999s33.834 36.666 45.501 54.999s17.5 36.5 17.5 54.5c0 41.333 -31.333 62 -94 62c-15.333 0 -30.666 -1.16699 -45.999 -3.5s-30 -5.16602 -44 -8.49902v85c8 2 17.333 3.83301 28 5.5s21.5 3.16699 32.5 4.5
s22 2.33301 33 3s21.167 1 30.5 1c20 0 39.5 -2 58.5 -6s35.833 -11.167 50.5 -21.5s26.5 -24.333 35.5 -42s13.5 -39.834 13.5 -66.501c0 -20.667 -4.16699 -40.667 -12.5 -60s-19.5 -38 -33.5 -56s-30.333 -35.5 -49 -52.5s-38.334 -33.167 -59.001 -48.5h166v-85h-307v71
z" />
    <glyph glyph-name="threesuperior" unicode="&#xb3;" horiz-adv-x="404" 
d="M61 373c17.333 -2.66699 34.167 -4.66992 50.5 -6.00293s31.833 -2 46.5 -2c28.667 0 51.667 4 69 12s26 22.667 26 44c0 16.667 -7 29.334 -21 38.001s-32 13 -54 13h-66v66h59c19.333 0 36.666 4.16699 51.999 12.5s23 22.166 23 41.499
c0 18.667 -7.83301 31.334 -23.5 38.001s-33.5 10 -53.5 10c-19.333 0 -38.833 -1.66699 -58.5 -5s-35.167 -6.66602 -46.5 -9.99902v86c19.333 5.33301 40.5 9.33301 63.5 12s43.5 4 61.5 4c22.667 0 43.667 -2.33301 63 -7s36 -11.834 50 -21.501s25 -21.667 33 -36
s12 -31.166 12 -50.499c0 -20 -6.16699 -39.333 -18.5 -58s-30.166 -33.667 -53.499 -45c26 -7.33301 45.667 -20.333 59 -39s20 -38.667 20 -60c0 -44 -16.667 -77 -50 -99s-78.333 -33 -135 -33c-15.333 0 -33.333 0.833008 -54 2.5s-38.667 3.83398 -54 6.50098v86z" />
    <glyph glyph-name="acute" unicode="&#xb4;" horiz-adv-x="424" 
d="M210 615h-95l62 154h129z" />
    <glyph glyph-name="paragraph" unicode="&#xb6;" horiz-adv-x="567" 
d="M323 269l-73.002 0.000976562c-32.667 0 -62.5 5.66699 -89.5 17s-50.167 27.166 -69.5 47.499s-34.333 44.333 -45 72s-16 57.5 -16 89.5s5.33301 61.833 16 89.5s25.834 51.5 45.501 71.5s43.334 35.667 71.001 47s58.5 17 92.5 17h68v-451zM486.998 24.001
c0 -37.333 -4.16699 -70.667 -12.5 -100s-22.333 -54 -42 -74s-45.5 -35.333 -77.5 -46s-71.667 -16 -119 -16c-12.667 0 -26 0.5 -40 1.5s-29 2.16699 -45 3.5v113c12 -1.33301 24.167 -2.33301 36.5 -3s23.833 -1 34.5 -1c52 0 88.167 10.333 108.5 31
s30.5 53.667 30.5 99v688h126v-696z" />
    <glyph glyph-name="periodcentered" unicode="&#xb7;" horiz-adv-x="240" 
d="M175 199h-110v138h110v-138z" />
    <glyph glyph-name="cedilla" unicode="&#xb8;" horiz-adv-x="467" 
d="M112 -144c8.66699 -1.33301 19.667 -2.83301 33 -4.5s26.333 -2.5 39 -2.5c44 0 66 10.667 66 32c0 13.333 -9.5 22.333 -28.5 27s-42.5 7.66699 -70.5 9v11l37 72h75c-2 -4.66699 -6 -12 -12 -22s-10.333 -17 -13 -21c66.667 -6 100 -33.333 100 -82
c0 -16.667 -3.83301 -30.834 -11.5 -42.501s-18 -21.167 -31 -28.5s-28 -12.666 -45 -15.999s-35.167 -5 -54.5 -5c-17.333 0 -32.833 0.833008 -46.5 2.5s-26.167 3.5 -37.5 5.5v65z" />
    <glyph glyph-name="onesuperior" unicode="&#xb9;" horiz-adv-x="289" 
d="M121 289v330l-87 -33v90l108 45h76v-432h-97z" />
    <glyph glyph-name="ordmasculine" unicode="&#xba;" horiz-adv-x="462" 
d="M418 488c0 -34.667 -4.83301 -64.167 -14.5 -88.5s-23 -44.333 -40 -60s-36.833 -27 -59.5 -34s-47 -10.5 -73 -10.5c-25.333 0 -49.333 3.5 -72 10.5s-42.5 18.333 -59.5 34s-30.333 35.667 -40 60s-14.5 53.833 -14.5 88.5c0 32.667 4.83301 61.167 14.5 85.5
s23 44.5 40 60.5s36.833 27.833 59.5 35.5s46.667 11.5 72 11.5c26 0 50.333 -3.83301 73 -11.5s42.5 -19.5 59.5 -35.5s30.333 -36.167 40 -60.5s14.5 -52.833 14.5 -85.5zM331 488c0 38 -7.83301 66.667 -23.5 86s-41.167 29 -76.5 29s-60.666 -9.66699 -75.999 -29
s-23 -48 -23 -86s7.66699 -66.667 23 -86s40.666 -29 75.999 -29s60.833 9.66699 76.5 29s23.5 48 23.5 86z" />
    <glyph glyph-name="guillemotright" unicode="&#xbb;" horiz-adv-x="582" 
d="M274 14l152 258l-152 259h117l154 -259l-153 -258h-118zM36 14l152 258l-152 259h117l154 -259l-154 -258h-117z" />
    <glyph glyph-name="onequarter" unicode="&#xbc;" horiz-adv-x="884" 
d="M121 289v329l-87 -32v90l111 45h73v-432h-97zM672 431l-94 -258h115v49l17 84h79v-134h65v-83h-65v-89h-96v89h-212v81l94 261h97zM540 763h106l-441 -856h-105z" />
    <glyph glyph-name="onehalf" unicode="&#xbd;" horiz-adv-x="860" 
d="M517 71l70 53.001c23.333 18 44.333 36.333 63 55s33.834 37.167 45.501 55.5s17.5 36.5 17.5 54.5c0 21.333 -7.83301 36.833 -23.5 46.5s-38.834 14.5 -69.501 14.5c-15.333 0 -30.833 -1.16699 -46.5 -3.5s-30.167 -5.16602 -43.5 -8.49902v85
c8 2 17.333 3.83301 28 5.5s21.5 3.16699 32.5 4.5s22 2.5 33 3.5s20.833 1.5 29.5 1.5c20.667 0 40.5 -2 59.5 -6s35.833 -11.333 50.5 -22s26.334 -24.834 35.001 -42.501s13 -39.834 13 -66.501c0 -20.667 -4 -40.667 -12 -60s-19 -38 -33 -56s-30.333 -35.333 -49 -52
s-38.334 -32.667 -59.001 -48h166v-85h-307v71zM118 289.001v329l-87 -32v90l111 45h73v-432h-97zM537 763.001h106l-441 -856h-105z" />
    <glyph glyph-name="threequarters" unicode="&#xbe;" horiz-adv-x="955" 
d="M47 373c17.333 -2.66699 33.9961 -4.66797 49.9961 -6.00098s31.667 -2 47 -2c28.667 0 51.667 4 69 12s26 22.667 26 44c0 16.667 -7 29.334 -21 38.001s-32.333 13 -55 13h-66v66h60c18.667 0 35.667 4.16699 51 12.5s23 22.166 23 41.499s-7.66699 32.166 -23 38.499
s-33.333 9.5 -54 9.5c-19.333 0 -38.666 -1.66699 -57.999 -5s-34.666 -6.66602 -45.999 -9.99902v86c19.333 5.33301 40.333 9.33301 63 12s43.334 4 62.001 4c22.667 0 43.667 -2.33301 63 -7s36 -11.834 50 -21.501s25 -21.667 33 -36s12 -31.166 12 -50.499
c0 -20 -6.16699 -39.333 -18.5 -58s-30.166 -33.667 -53.499 -45c26 -7.33301 45.667 -20.333 59 -39s20 -38.667 20 -60c0 -44 -16.667 -77 -50 -99s-78.333 -33 -135 -33c-15.333 0 -33.333 0.833008 -54 2.5s-38.667 3.83398 -54 6.50098v86zM742.996 430.999l-94 -258
h115v49l17 84h79v-134h65v-83h-65v-89h-96v89h-212v81l94 261h97zM610.996 762.999h106l-441 -856h-105z" />
    <glyph glyph-name="questiondown" unicode="&#xbf;" horiz-adv-x="469" 
d="M345 261c0 -32.667 -4.50098 -61.165 -13.501 -85.498s-20.167 -45.666 -33.5 -63.999s-27.833 -34.333 -43.5 -48l-43.5 -39.5c-13.333 -12.667 -24.5 -25.5 -33.5 -38.5s-13.5 -27.5 -13.5 -43.5c0 -26 11.167 -46.333 33.5 -61s54.166 -22 95.499 -22
c22 0 45.333 2 70 6s48.667 9.66699 72 17v-117c-31.333 -8 -63 -14 -95 -18s-61 -6 -87 -6c-34 0 -64.833 4.33301 -92.5 13s-51.334 20.834 -71.001 36.501s-34.834 34.5 -45.501 56.5s-16 46.333 -16 73c0 25.333 4.83301 48.166 14.5 68.499
s21.834 39.166 36.501 56.499s30.334 34 47.001 50s32.334 32.167 47.001 48.5s26.834 33.666 36.501 51.999s14.5 39.166 14.5 62.499c0 8 -0.5 16 -1.5 24s-2.5 17.333 -4.5 28h122c1.33301 -8 2.5 -16.333 3.5 -25s1.5 -16.667 1.5 -24zM339.999 407.002h-123v108h123
v-108z" />
    <glyph glyph-name="Agrave" unicode="&#xc0;" horiz-adv-x="675" 
d="M250 721h175l246 -721h-133l-50 151h-300l-50 -151h-133zM215 262h241l-114 351h-11zM208 929h129l62 -154h-95z" />
    <glyph glyph-name="Aacute" unicode="&#xc1;" horiz-adv-x="675" 
d="M250 721h175l246 -721h-133l-50 151h-300l-50 -151h-133zM215 262h241l-114 351h-11zM387 775h-95l62 154h129z" />
    <glyph glyph-name="Acircumflex" unicode="&#xc2;" horiz-adv-x="675" 
d="M250 721h175l246 -721h-133l-50 151h-300l-50 -151h-133zM215 262h241l-114 351h-11zM339 886l-35 -55.5l-34 -55.5h-107c17.333 26 34 52.333 50 79s32.667 53 50 79h151l100 -158h-106z" />
    <glyph glyph-name="Atilde" unicode="&#xc3;" horiz-adv-x="675" 
d="M250 721h175l246 -721h-133l-50 151h-300l-50 -151h-133zM215 262h241l-114 351h-11zM114 874c17.333 16.667 36.833 30.334 58.5 41.001s43.167 16 64.5 16c22 0 41.167 -3.66699 57.5 -11s32 -15.333 47 -24s30.5 -16.667 46.5 -24s35 -11 57 -11
c21.333 0 42.833 5.33301 64.5 16s41.167 24.334 58.5 41.001v-96c-17.333 -16.667 -36.833 -30.334 -58.5 -41.001s-43.167 -16 -64.5 -16c-22 0 -41.167 3.66699 -57.5 11s-32 15.333 -47 24s-30.5 16.667 -46.5 24s-35 11 -57 11c-21.333 0 -42.833 -5.33301 -64.5 -16
s-41.167 -24.334 -58.5 -41.001v96z" />
    <glyph glyph-name="Adieresis" unicode="&#xc4;" horiz-adv-x="675" 
d="M250 721h175l246 -721h-133l-50 151h-300l-50 -151h-133zM215 262h241l-114 351h-11zM516 775h-109v125h109v-125zM270 775h-109v125h109v-125z" />
    <glyph glyph-name="Aring" unicode="&#xc5;" horiz-adv-x="675" 
d="M226 763c0 30 9.5 54.5 28.5 73.5s46.5 28.5 82.5 28.5s63.667 -9.5 83 -28.5s29 -43.5 29 -73.5c0 -22 -7 -39 -21 -51l243 -712h-133l-50 151h-300l-50 -151h-133l242 711c-14 12 -21 29.333 -21 52zM331 612l-116 -350h241l-114 350h-11zM289 763
c0 -12.667 3.5 -24 10.5 -34s19.5 -15 37.5 -15s30.667 5 38 15s11 21.333 11 34s-3.66699 24 -11 34s-20 15 -38 15s-30.5 -5 -37.5 -15s-10.5 -21.333 -10.5 -34z" />
    <glyph glyph-name="AE" unicode="&#xc6;" horiz-adv-x="1001" 
d="M957 720v-113h-357v-188h307v-113h-307v-194h355v-112h-482v151h-258c-2.66699 -4 -7.66699 -13.333 -15 -28l-24 -47.5l-24 -47.5l-14 -28h-145c5.33301 8.66699 14 24.834 26 48.501l43 84.5l54 107.5l59.5 119.5l59.5 119.5l54 107.5l43 84
c12 23.333 20.667 39.666 26 48.999h599zM265 260h208v347h-38z" />
    <glyph glyph-name="Ccedilla" unicode="&#xc7;" horiz-adv-x="613" 
d="M245 -144c8.66699 -1.33301 19.668 -2.83496 33.001 -4.50195s26.333 -2.5 39 -2.5c44 0 66 10.667 66 32c0 13.333 -9.5 22.333 -28.5 27s-42.5 7.66699 -70.5 9v11l33 64c-91.333 12 -159.333 50 -204 114s-67 149 -67 255c0 56.667 7 108 21 154s35 85 63 117
s62.667 56.667 104 74s89.333 26 144 26c30 0 60.667 -1.66699 92 -5s64.666 -9.66602 99.999 -18.999v-115c-11.333 3.33301 -23.833 6.83301 -37.5 10.5s-28 7 -43 10s-30 5.33301 -45 7s-29.5 2.5 -43.5 2.5c-35.333 0 -66.833 -4.66699 -94.5 -14
s-51.334 -24.166 -71.001 -44.499s-34.667 -47 -45 -80s-15.5 -73.167 -15.5 -120.5c0 -50 5.83301 -92.167 17.5 -126.5s27.5 -61.833 47.5 -82.5s43.333 -35.5 70 -44.5s54.667 -13.5 84 -13.5c28 0 57.667 3 89 9s61 14.667 89 26v-113
c-30 -10 -61.167 -17.5 -93.5 -22.5s-62.166 -7.83301 -89.499 -8.5l-18 -31c66.667 -6 100 -33.333 100 -82c0 -16.667 -3.83301 -30.834 -11.5 -42.501s-18 -21.167 -31 -28.5s-28 -12.666 -45 -15.999s-35.167 -5 -54.5 -5c-17.333 0 -32.833 0.833008 -46.5 2.5
s-26.167 3.5 -37.5 5.5v65z" />
    <glyph glyph-name="Egrave" unicode="&#xc8;" horiz-adv-x="605" 
d="M562 720v-109h-357v-195h308v-108h-308v-199h355v-109h-481v720h483zM190 929h129l62 -154h-95z" />
    <glyph glyph-name="Eacute" unicode="&#xc9;" horiz-adv-x="605" 
d="M562 720v-109h-357v-195h308v-108h-308v-199h355v-109h-481v720h483zM337 775h-95l62 154h129z" />
    <glyph glyph-name="Ecircumflex" unicode="&#xca;" horiz-adv-x="605" 
d="M562 720v-109h-357v-195h308v-108h-308v-199h355v-109h-481v720h483zM319 886l-35 -55.5l-34 -55.5h-107c17.333 26 34 52.333 50 79s32.667 53 50 79h151l100 -158h-106z" />
    <glyph glyph-name="Edieresis" unicode="&#xcb;" horiz-adv-x="605" 
d="M562 720v-109h-357v-195h308v-108h-308v-199h355v-109h-481v720h483zM510 775h-109v125h109v-125zM264 775h-109v125h109v-125z" />
    <glyph glyph-name="Igrave" unicode="&#xcc;" horiz-adv-x="284" 
d="M79 720h126v-720h-126v720zM8 929h129l62 -154h-95z" />
    <glyph glyph-name="Iacute" unicode="&#xcd;" horiz-adv-x="284" 
d="M79 720h126v-720h-126v720zM190 775h-95l62 154h129z" />
    <glyph glyph-name="Icircumflex" unicode="&#xce;" horiz-adv-x="284" 
d="M79 720h126v-720h-126v720zM143 886l-35 -55.5l-34 -55.5h-107c17.333 26 34 52.333 50 79s32.667 53 50 79h151l100 -158h-106z" />
    <glyph glyph-name="Idieresis" unicode="&#xcf;" horiz-adv-x="284" 
d="M79 720h126v-720h-126v720zM330 775h-109v125h109v-125zM84 775h-109v125h109v-125z" />
    <glyph glyph-name="Eth" unicode="&#xd0;" horiz-adv-x="756" 
d="M1 411h117v309h256c48.667 0 93.667 -7.5 135 -22.5s77 -37.5 107 -67.5s53.333 -67.667 70 -113s25 -98 25 -158s-8.33301 -112.5 -25 -157.5s-40 -82.5 -70 -112.5s-65.667 -52.333 -107 -67s-86.333 -22 -135 -22h-256v299h-117v112zM581 359
c0 36.667 -4.66699 70.167 -14 100.5s-23.333 56.5 -42 78.5s-41.834 39 -69.501 51s-59.834 18 -96.501 18h-114v-196h131v-112h-131v-187h114c36.667 0 68.834 6 96.501 18s50.834 28.833 69.501 50.5s32.667 47.667 42 78s14 63.833 14 100.5z" />
    <glyph glyph-name="Ntilde" unicode="&#xd1;" horiz-adv-x="760" 
d="M205 511v-511h-126v720h137l339 -523v523h126v-720h-136zM143 873c17.333 16.667 36.833 30.334 58.5 41.001s43.167 16 64.5 16c22 0 41.167 -3.66699 57.5 -11s32 -15.333 47 -24s30.5 -16.667 46.5 -24s35 -11 57 -11c21.333 0 42.833 5.33301 64.5 16
s41.167 24.334 58.5 41.001v-96c-17.333 -16.667 -36.833 -30.334 -58.5 -41.001s-43.167 -16 -64.5 -16c-22 0 -41.167 3.66699 -57.5 11s-32 15.333 -47 24s-30.5 16.667 -46.5 24s-35 11 -57 11c-21.333 0 -42.833 -5.33301 -64.5 -16s-41.167 -24.334 -58.5 -41.001v96z
" />
    <glyph glyph-name="Ograve" unicode="&#xd2;" horiz-adv-x="744" 
d="M46 360c0 58.667 6.5 111 19.5 157s33 85 60 117s61 56.333 102 73s89.5 25 145.5 25s104.5 -8.33301 145.5 -25s75 -41 102 -73s47 -71 60 -117s19.5 -98.333 19.5 -157s-6.5 -111 -19.5 -157s-33 -85 -60 -117s-61 -56.333 -102 -73s-89.5 -25 -145.5 -25
s-104.5 8.33301 -145.5 25s-75 41 -102 73s-47 71 -60 117s-19.5 98.333 -19.5 157zM571 360c0 90.667 -16.833 157.167 -50.5 199.5s-82.5 63.5 -146.5 63.5c-65.333 0 -114.833 -21.167 -148.5 -63.5s-50.5 -108.833 -50.5 -199.5s16.833 -157.167 50.5 -199.5
s82.5 -63.5 146.5 -63.5c64.667 0 114 21.167 148 63.5s51 108.833 51 199.5zM234 929h129l62 -154h-95z" />
    <glyph glyph-name="Oacute" unicode="&#xd3;" horiz-adv-x="744" 
d="M46 360c0 58.667 6.5 111 19.5 157s33 85 60 117s61 56.333 102 73s89.5 25 145.5 25s104.5 -8.33301 145.5 -25s75 -41 102 -73s47 -71 60 -117s19.5 -98.333 19.5 -157s-6.5 -111 -19.5 -157s-33 -85 -60 -117s-61 -56.333 -102 -73s-89.5 -25 -145.5 -25
s-104.5 8.33301 -145.5 25s-75 41 -102 73s-47 71 -60 117s-19.5 98.333 -19.5 157zM571 360c0 90.667 -16.833 157.167 -50.5 199.5s-82.5 63.5 -146.5 63.5c-65.333 0 -114.833 -21.167 -148.5 -63.5s-50.5 -108.833 -50.5 -199.5s16.833 -157.167 50.5 -199.5
s82.5 -63.5 146.5 -63.5c64.667 0 114 21.167 148 63.5s51 108.833 51 199.5zM401 775h-95l62 154h129z" />
    <glyph glyph-name="Ocircumflex" unicode="&#xd4;" horiz-adv-x="744" 
d="M46 360c0 58.667 6.5 111 19.5 157s33 85 60 117s61 56.333 102 73s89.5 25 145.5 25s104.5 -8.33301 145.5 -25s75 -41 102 -73s47 -71 60 -117s19.5 -98.333 19.5 -157s-6.5 -111 -19.5 -157s-33 -85 -60 -117s-61 -56.333 -102 -73s-89.5 -25 -145.5 -25
s-104.5 8.33301 -145.5 25s-75 41 -102 73s-47 71 -60 117s-19.5 98.333 -19.5 157zM571 360c0 90.667 -16.833 157.167 -50.5 199.5s-82.5 63.5 -146.5 63.5c-65.333 0 -114.833 -21.167 -148.5 -63.5s-50.5 -108.833 -50.5 -199.5s16.833 -157.167 50.5 -199.5
s82.5 -63.5 146.5 -63.5c64.667 0 114 21.167 148 63.5s51 108.833 51 199.5zM371 886l-35 -55.5l-34 -55.5h-107c17.333 26 34 52.333 50 79s32.667 53 50 79h151l100 -158h-106z" />
    <glyph glyph-name="Otilde" unicode="&#xd5;" horiz-adv-x="744" 
d="M46 360c0 58.667 6.5 111 19.5 157s33 85 60 117s61 56.333 102 73s89.5 25 145.5 25s104.5 -8.33301 145.5 -25s75 -41 102 -73s47 -71 60 -117s19.5 -98.333 19.5 -157s-6.5 -111 -19.5 -157s-33 -85 -60 -117s-61 -56.333 -102 -73s-89.5 -25 -145.5 -25
s-104.5 8.33301 -145.5 25s-75 41 -102 73s-47 71 -60 117s-19.5 98.333 -19.5 157zM571 360c0 90.667 -16.833 157.167 -50.5 199.5s-82.5 63.5 -146.5 63.5c-65.333 0 -114.833 -21.167 -148.5 -63.5s-50.5 -108.833 -50.5 -199.5s16.833 -157.167 50.5 -199.5
s82.5 -63.5 146.5 -63.5c64.667 0 114 21.167 148 63.5s51 108.833 51 199.5zM142 874c17.333 16.667 36.833 30.334 58.5 41.001s43.167 16 64.5 16c22 0 41.167 -3.66699 57.5 -11s32 -15.333 47 -24s30.5 -16.667 46.5 -24s35 -11 57 -11
c21.333 0 42.833 5.33301 64.5 16s41.167 24.334 58.5 41.001v-96c-17.333 -16.667 -36.833 -30.334 -58.5 -41.001s-43.167 -16 -64.5 -16c-22 0 -41.167 3.66699 -57.5 11s-32 15.333 -47 24s-30.5 16.667 -46.5 24s-35 11 -57 11c-21.333 0 -42.833 -5.33301 -64.5 -16
s-41.167 -24.334 -58.5 -41.001v96z" />
    <glyph glyph-name="Odieresis" unicode="&#xd6;" horiz-adv-x="744" 
d="M46 360c0 58.667 6.5 111 19.5 157s33 85 60 117s61 56.333 102 73s89.5 25 145.5 25s104.5 -8.33301 145.5 -25s75 -41 102 -73s47 -71 60 -117s19.5 -98.333 19.5 -157s-6.5 -111 -19.5 -157s-33 -85 -60 -117s-61 -56.333 -102 -73s-89.5 -25 -145.5 -25
s-104.5 8.33301 -145.5 25s-75 41 -102 73s-47 71 -60 117s-19.5 98.333 -19.5 157zM571 360c0 90.667 -16.833 157.167 -50.5 199.5s-82.5 63.5 -146.5 63.5c-65.333 0 -114.833 -21.167 -148.5 -63.5s-50.5 -108.833 -50.5 -199.5s16.833 -157.167 50.5 -199.5
s82.5 -63.5 146.5 -63.5c64.667 0 114 21.167 148 63.5s51 108.833 51 199.5zM551 775h-109v125h109v-125zM305 775h-109v125h109v-125z" />
    <glyph glyph-name="multiply" unicode="&#xd7;" horiz-adv-x="507" 
d="M51 145l131 132l-129 130l70 70l130 -129l132 131l70 -70l-131 -132l129 -130l-70 -70l-130 129l-132 -131z" />
    <glyph glyph-name="Oslash" unicode="&#xd8;" horiz-adv-x="745" 
d="M46 360c0 58.667 6.50098 111 19.501 157s33 85 60 117s61.167 56.333 102.5 73s90 25 146 25c57.333 0 106.666 -10 147.999 -30l36 61h114l-66 -113c32 -32 55.5 -72.167 70.5 -120.5s22.5 -104.833 22.5 -169.5c0 -118 -26.333 -209.5 -79 -274.5
s-134.667 -97.5 -246 -97.5c-28 0 -54 2.33301 -78 7s-46 10.667 -66 18c-5.33301 -9.33301 -11 -18.5 -17 -27.5s-11.667 -18.5 -17 -28.5h-116l65 108c-34 32 -59 72.667 -75 122s-24 107 -24 173zM175.001 360c0 -76.667 13.334 -135 40.001 -175l246 415
c-24.667 12.667 -54.334 19 -89.001 19c-63.333 0 -112 -20.5 -146 -61.5s-51 -106.833 -51 -197.5zM569.002 360c0 72.667 -12 128.666 -36 167.999l-243 -412c22.667 -11.333 50 -17 82 -17c64.667 0 113.667 20.833 147 62.5s50 107.834 50 198.501z" />
    <glyph glyph-name="Ugrave" unicode="&#xd9;" horiz-adv-x="722" 
d="M649 255c0 -87.333 -24.668 -153.666 -74.001 -198.999s-120.666 -68 -213.999 -68c-94 0 -165.5 22.667 -214.5 68s-73.5 111.666 -73.5 198.999v465h126v-476c0 -24.667 4.66699 -46.167 14 -64.5s21.5 -33.666 36.5 -45.999s32.333 -21.5 52 -27.5s39.5 -9 59.5 -9
c20.667 0 40.667 3 60 9s36.5 15.167 51.5 27.5s27.167 27.666 36.5 45.999s14 39.833 14 64.5v476h126v-465v0zM224.999 929h129l62 -154h-95z" />
    <glyph glyph-name="Uacute" unicode="&#xda;" horiz-adv-x="722" 
d="M649 255c0 -87.333 -24.668 -153.666 -74.001 -198.999s-120.666 -68 -213.999 -68c-94 0 -165.5 22.667 -214.5 68s-73.5 111.666 -73.5 198.999v465h126v-476c0 -24.667 4.66699 -46.167 14 -64.5s21.5 -33.666 36.5 -45.999s32.333 -21.5 52 -27.5s39.5 -9 59.5 -9
c20.667 0 40.667 3 60 9s36.5 15.167 51.5 27.5s27.167 27.666 36.5 45.999s14 39.833 14 64.5v476h126v-465v0zM396.999 775h-95l62 154h129z" />
    <glyph glyph-name="Ucircumflex" unicode="&#xdb;" horiz-adv-x="722" 
d="M649 255c0 -87.333 -24.668 -153.666 -74.001 -198.999s-120.666 -68 -213.999 -68c-94 0 -165.5 22.667 -214.5 68s-73.5 111.666 -73.5 198.999v465h126v-476c0 -24.667 4.66699 -46.167 14 -64.5s21.5 -33.666 36.5 -45.999s32.333 -21.5 52 -27.5s39.5 -9 59.5 -9
c20.667 0 40.667 3 60 9s36.5 15.167 51.5 27.5s27.167 27.666 36.5 45.999s14 39.833 14 64.5v476h126v-465v0zM360.999 886l-35 -55.5l-34 -55.5h-107c17.333 26 34 52.333 50 79s32.667 53 50 79h151l100 -158h-106z" />
    <glyph glyph-name="Udieresis" unicode="&#xdc;" horiz-adv-x="722" 
d="M649 255c0 -87.333 -24.668 -153.666 -74.001 -198.999s-120.666 -68 -213.999 -68c-94 0 -165.5 22.667 -214.5 68s-73.5 111.666 -73.5 198.999v465h126v-476c0 -24.667 4.66699 -46.167 14 -64.5s21.5 -33.666 36.5 -45.999s32.333 -21.5 52 -27.5s39.5 -9 59.5 -9
c20.667 0 40.667 3 60 9s36.5 15.167 51.5 27.5s27.167 27.666 36.5 45.999s14 39.833 14 64.5v476h126v-465v0zM539.999 775h-109v125h109v-125zM293.999 775h-109v125h109v-125z" />
    <glyph glyph-name="Yacute" unicode="&#xdd;" horiz-adv-x="622" 
d="M248 0v246l-246 474h143l167 -343h6l161 343h141l-123.5 -237l-122.5 -237v-246h-126zM368 775h-95l62 154h129z" />
    <glyph glyph-name="Thorn" unicode="&#xde;" horiz-adv-x="622" 
d="M206 623l149 0.000976562c38 0 71.5 -6.66699 100.5 -20s53.333 -31.5 73 -54.5s34.667 -49.833 45 -80.5s15.5 -63.334 15.5 -98.001c0 -34 -5.16699 -66.333 -15.5 -97s-25.166 -57.5 -44.499 -80.5s-43.333 -41.167 -72 -54.5s-61.334 -20 -98.001 -20h-153v-118h-127
v751h127v-128zM206 510.001v-279.001h125c22.667 0 42.167 4.33301 58.5 13s29.666 19.834 39.999 33.501s17.833 28.667 22.5 45s7 32.5 7 48.5c0 15.333 -2.33301 31.166 -7 47.499s-12.167 31.333 -22.5 45s-23.666 24.834 -39.999 33.501s-35.833 13 -58.5 13h-125z" />
    <glyph glyph-name="germandbls" unicode="&#xdf;" horiz-adv-x="615" 
d="M261 446c42 2 76.501 14.5029 103.501 37.5029s40.5 52.833 40.5 89.5c0 25.333 -8.83301 47.166 -26.5 65.499s-42.167 27.5 -73.5 27.5c-36.667 0 -64.834 -12.333 -84.501 -37s-29.5 -60 -29.5 -106v-523h-121v506c0 38.667 4.66699 74.5 14 107.5
s23.833 61.5 43.5 85.5s44.667 42.667 75 56s66.833 20 109.5 20c34 0 64 -5 90 -15s47.833 -23.667 65.5 -41s31.167 -37.5 40.5 -60.5s14 -47.167 14 -72.5c0 -20.667 -3 -40.334 -9 -59.001s-14.5 -35.834 -25.5 -51.501s-24.333 -29.167 -40 -40.5
s-32.834 -20 -51.501 -26c26.667 -5.33301 51.334 -13.5 74.001 -24.5s42.334 -24.667 59.001 -41s29.667 -35.666 39 -57.999s14 -47.5 14 -75.5c0 -31.333 -5.33301 -60.5 -16 -87.5s-25.834 -50.167 -45.501 -69.5s-43.5 -34.5 -71.5 -45.5s-59.333 -16.5 -94 -16.5
c-20 0 -39.833 1 -59.5 3s-40.167 4.66699 -61.5 8v102c32.667 -7.33301 63.334 -11 92.001 -11c18 0 34.667 2 50 6s28.833 10.833 40.5 20.5s20.667 22.167 27 37.5s9.5 34.666 9.5 57.999c0 42 -17.333 73.5 -52 94.5s-81.334 31.5 -140.001 31.5v105z" />
    <glyph glyph-name="agrave" unicode="&#xe0;" horiz-adv-x="563" 
d="M375 331l-0.00195312 41.001c0 25.333 -8.66699 45.666 -26 60.999s-48.333 23 -93 23c-12 0 -25.5 -0.5 -40.5 -1.5s-30.5 -2.66699 -46.5 -5s-31.833 -5 -47.5 -8s-30.5 -6.5 -44.5 -10.5v104c34 7.33301 69.833 13 107.5 17s71.167 6 100.5 6
c66.667 0 118.834 -16.167 156.501 -48.5s56.5 -80.833 56.5 -145.5v-364h-105l-9 61h-4c-30 -21.333 -59.833 -38 -89.5 -50s-59.5 -18 -89.5 -18c-23.333 0 -45.333 3.5 -66 10.5s-38.667 17.5 -54 31.5s-27.5 31.5 -36.5 52.5s-13.5 45.833 -13.5 74.5
c0 52.667 17.833 94 53.5 124s85.834 45 150.501 45h140zM374.998 244.001h-122c-65.333 0 -98 -24.333 -98 -73c0 -25.333 8 -44.333 24 -57s36.667 -19 62 -19c23.333 0 47 4.5 71 13.5s45 20.167 63 33.5v102zM138.998 769.001h129l62 -154h-95z" />
    <glyph glyph-name="aacute" unicode="&#xe1;" horiz-adv-x="563" 
d="M375 331l-0.00195312 41.001c0 25.333 -8.66699 45.666 -26 60.999s-48.333 23 -93 23c-12 0 -25.5 -0.5 -40.5 -1.5s-30.5 -2.66699 -46.5 -5s-31.833 -5 -47.5 -8s-30.5 -6.5 -44.5 -10.5v104c34 7.33301 69.833 13 107.5 17s71.167 6 100.5 6
c66.667 0 118.834 -16.167 156.501 -48.5s56.5 -80.833 56.5 -145.5v-364h-105l-9 61h-4c-30 -21.333 -59.833 -38 -89.5 -50s-59.5 -18 -89.5 -18c-23.333 0 -45.333 3.5 -66 10.5s-38.667 17.5 -54 31.5s-27.5 31.5 -36.5 52.5s-13.5 45.833 -13.5 74.5
c0 52.667 17.833 94 53.5 124s85.834 45 150.501 45h140zM374.998 244.001h-122c-65.333 0 -98 -24.333 -98 -73c0 -25.333 8 -44.333 24 -57s36.667 -19 62 -19c23.333 0 47 4.5 71 13.5s45 20.167 63 33.5v102zM306.998 615.001h-95l62 154h129z" />
    <glyph glyph-name="acircumflex" unicode="&#xe2;" horiz-adv-x="563" 
d="M375 331l-0.00195312 41.001c0 25.333 -8.66699 45.666 -26 60.999s-48.333 23 -93 23c-12 0 -25.5 -0.5 -40.5 -1.5s-30.5 -2.66699 -46.5 -5s-31.833 -5 -47.5 -8s-30.5 -6.5 -44.5 -10.5v104c34 7.33301 69.833 13 107.5 17s71.167 6 100.5 6
c66.667 0 118.834 -16.167 156.501 -48.5s56.5 -80.833 56.5 -145.5v-364h-105l-9 61h-4c-30 -21.333 -59.833 -38 -89.5 -50s-59.5 -18 -89.5 -18c-23.333 0 -45.333 3.5 -66 10.5s-38.667 17.5 -54 31.5s-27.5 31.5 -36.5 52.5s-13.5 45.833 -13.5 74.5
c0 52.667 17.833 94 53.5 124s85.834 45 150.501 45h140zM374.998 244.001h-122c-65.333 0 -98 -24.333 -98 -73c0 -25.333 8 -44.333 24 -57s36.667 -19 62 -19c23.333 0 47 4.5 71 13.5s45 20.167 63 33.5v102zM278.998 726.001l-35 -55.5l-34 -55.5h-107
c17.333 26 34 52.333 50 79s32.667 53 50 79h151l100 -158h-106z" />
    <glyph glyph-name="atilde" unicode="&#xe3;" horiz-adv-x="563" 
d="M375 331l-0.00195312 41.001c0 25.333 -8.66699 45.666 -26 60.999s-48.333 23 -93 23c-12 0 -25.5 -0.5 -40.5 -1.5s-30.5 -2.66699 -46.5 -5s-31.833 -5 -47.5 -8s-30.5 -6.5 -44.5 -10.5v104c34 7.33301 69.833 13 107.5 17s71.167 6 100.5 6
c66.667 0 118.834 -16.167 156.501 -48.5s56.5 -80.833 56.5 -145.5v-364h-105l-9 61h-4c-30 -21.333 -59.833 -38 -89.5 -50s-59.5 -18 -89.5 -18c-23.333 0 -45.333 3.5 -66 10.5s-38.667 17.5 -54 31.5s-27.5 31.5 -36.5 52.5s-13.5 45.833 -13.5 74.5
c0 52.667 17.833 94 53.5 124s85.834 45 150.501 45h140zM374.998 244.001h-122c-65.333 0 -98 -24.333 -98 -73c0 -25.333 8 -44.333 24 -57s36.667 -19 62 -19c23.333 0 47 4.5 71 13.5s45 20.167 63 33.5v102zM60.998 720.001c17.333 16.667 36.833 30.334 58.5 41.001
s43.167 16 64.5 16c22 0 41.167 -3.66699 57.5 -11s32 -15.333 47 -24s30.5 -16.667 46.5 -24s35 -11 57 -11c21.333 0 42.833 5.33301 64.5 16s41.167 24.334 58.5 41.001v-96c-17.333 -16.667 -36.833 -30.334 -58.5 -41.001s-43.167 -16 -64.5 -16
c-22 0 -41.167 3.66699 -57.5 11s-32 15.333 -47 24s-30.5 16.667 -46.5 24s-35 11 -57 11c-21.333 0 -42.833 -5.33301 -64.5 -16s-41.167 -24.334 -58.5 -41.001v96z" />
    <glyph glyph-name="adieresis" unicode="&#xe4;" horiz-adv-x="563" 
d="M375 331l-0.00195312 41.001c0 25.333 -8.66699 45.666 -26 60.999s-48.333 23 -93 23c-12 0 -25.5 -0.5 -40.5 -1.5s-30.5 -2.66699 -46.5 -5s-31.833 -5 -47.5 -8s-30.5 -6.5 -44.5 -10.5v104c34 7.33301 69.833 13 107.5 17s71.167 6 100.5 6
c66.667 0 118.834 -16.167 156.501 -48.5s56.5 -80.833 56.5 -145.5v-364h-105l-9 61h-4c-30 -21.333 -59.833 -38 -89.5 -50s-59.5 -18 -89.5 -18c-23.333 0 -45.333 3.5 -66 10.5s-38.667 17.5 -54 31.5s-27.5 31.5 -36.5 52.5s-13.5 45.833 -13.5 74.5
c0 52.667 17.833 94 53.5 124s85.834 45 150.501 45h140zM374.998 244.001h-122c-65.333 0 -98 -24.333 -98 -73c0 -25.333 8 -44.333 24 -57s36.667 -19 62 -19c23.333 0 47 4.5 71 13.5s45 20.167 63 33.5v102zM469.998 615.001h-109v125h109v-125zM223.998 615.001h-109
v125h109v-125z" />
    <glyph glyph-name="aring" unicode="&#xe5;" horiz-adv-x="563" 
d="M375 331l-0.00195312 41.001c0 25.333 -8.66699 45.666 -26 60.999s-48.333 23 -93 23c-12 0 -25.5 -0.5 -40.5 -1.5s-30.5 -2.66699 -46.5 -5s-31.833 -5 -47.5 -8s-30.5 -6.5 -44.5 -10.5v104c34 7.33301 69.833 13 107.5 17s71.167 6 100.5 6
c66.667 0 118.834 -16.167 156.501 -48.5s56.5 -80.833 56.5 -145.5v-364h-105l-9 61h-4c-30 -21.333 -59.833 -38 -89.5 -50s-59.5 -18 -89.5 -18c-23.333 0 -45.333 3.5 -66 10.5s-38.667 17.5 -54 31.5s-27.5 31.5 -36.5 52.5s-13.5 45.833 -13.5 74.5
c0 52.667 17.833 94 53.5 124s85.834 45 150.501 45h140zM374.998 244.001h-122c-65.333 0 -98 -24.333 -98 -73c0 -25.333 8 -44.333 24 -57s36.667 -19 62 -19c23.333 0 47 4.5 71 13.5s45 20.167 63 33.5v102zM228.998 701.001c0 -12.667 3.66699 -24 11 -34
s20 -15 38 -15s30.667 5 38 15s11 21.333 11 34c0 13.333 -3.66699 24.833 -11 34.5s-20 14.5 -38 14.5s-30.667 -4.83301 -38 -14.5s-11 -21.167 -11 -34.5zM165.998 701.001c0 30 9.66699 54.5 29 73.5s47 28.5 83 28.5s63.667 -9.5 83 -28.5s29 -43.5 29 -73.5
c0 -29.333 -9.66699 -53.5 -29 -72.5s-47 -28.5 -83 -28.5s-63.667 9.5 -83 28.5s-29 43.167 -29 72.5z" />
    <glyph glyph-name="ae" unicode="&#xe6;" horiz-adv-x="906" 
d="M853 23c-36.667 -11.333 -71.835 -20.0029 -105.502 -26.0029s-69.834 -9 -108.501 -9c-50 0 -93.167 7 -129.5 21s-65.833 36 -88.5 66c-20.667 -17.333 -41 -31.333 -61 -42s-39.333 -19 -58 -25s-36.5 -10 -53.5 -12s-32.833 -3 -47.5 -3
c-23.333 0 -45.166 3.33301 -65.499 10s-38.333 17 -54 31s-28 31.667 -37 53s-13.5 46.333 -13.5 75s5.66699 53.5 17 74.5s26.833 38.333 46.5 52s43.167 23.834 70.5 30.501s57 10 89 10h114v62c0 19.333 -9.16699 35 -27.5 47s-47.5 18 -87.5 18
c-11.333 0 -24.5 -0.666992 -39.5 -2s-30.333 -3 -46 -5s-31.334 -4.5 -47.001 -7.5s-30.167 -6.16699 -43.5 -9.5v103c34 7.33301 69.5 12.833 106.5 16.5s70.5 5.5 100.5 5.5c77.333 0 132 -23 164 -69c40.667 46 100.334 69 179.001 69
c47.333 0 86.333 -7.16699 117 -21.5s54.834 -33.666 72.501 -57.999s29.834 -52.166 36.501 -83.499s10 -64 10 -98v-56h-367c0.666992 -52.667 16 -90 46 -112s72 -33 126 -33c26 0 55.833 3.33301 89.5 10s65.5 14.667 95.5 24v-106zM379.999 145.997
c-3.33301 14 -6.16699 29 -8.5 45s-3.83301 32.333 -4.5 49h-113c-66.667 0 -100 -23 -100 -69c0 -26 8.16699 -45.333 24.5 -58s37.5 -19 63.5 -19c25.333 0 49.833 4.83301 73.5 14.5s45.167 22.167 64.5 37.5zM737.998 328.997c0 14.667 -1.33398 29.833 -4.00098 45.5
s-8.33398 30 -17.001 43s-20.667 23.5 -36 31.5s-35.666 12 -60.999 12c-21.333 0 -39.833 -3.5 -55.5 -10.5s-28.667 -16.5 -39 -28.5s-18.166 -26 -23.499 -42s-8 -33 -8 -51h244z" />
    <glyph glyph-name="ccedilla" unicode="&#xe7;" horiz-adv-x="527" 
d="M195 -144c8.66699 -1.33301 19.668 -2.83398 33.001 -4.50098s26.333 -2.5 39 -2.5c44 0 66 10.667 66 32c0 13.333 -9.5 22.333 -28.5 27s-42.5 7.66699 -70.5 9v11l32 63c-29.333 3.33301 -57.5 10.5 -84.5 21.5s-50.833 27.5 -71.5 49.5s-37.334 50.167 -50.001 84.5
s-19 76.5 -19 126.5c0 56 8 102.333 24 139s36.833 65.834 62.5 87.501s54.667 36.834 87 45.501s65.166 13 98.499 13c31.333 0 60.666 -2 87.999 -6s55.333 -10.333 84 -19v-108c-25.333 8 -50.666 14.167 -75.999 18.5s-51 6.5 -77 6.5c-54 0 -95.167 -14 -123.5 -42
s-42.5 -73 -42.5 -135c0 -26 3.16699 -50 9.5 -72s16.333 -40.833 30 -56.5s30.834 -27.834 51.501 -36.501s45.667 -13 75 -13c26 0 51.667 2.33301 77 7s50.666 10.667 75.999 18v-107c-24.667 -7.33301 -48.667 -12.833 -72 -16.5s-47.666 -6.16699 -72.999 -7.5l-19 -32
c66.667 -6 100 -33.333 100 -82c0 -16.667 -3.83301 -30.834 -11.5 -42.501s-18 -21.167 -31 -28.5s-28 -12.666 -45 -15.999s-35.167 -5 -54.5 -5c-17.333 0 -32.833 0.833008 -46.5 2.5s-26.167 3.5 -37.5 5.5v65z" />
    <glyph glyph-name="egrave" unicode="&#xe8;" horiz-adv-x="580" 
d="M527 23c-36.667 -11.333 -71.834 -20 -105.501 -26s-69.834 -9 -108.501 -9c-89.333 0 -157 22.833 -203 68.5s-69 117.834 -69 216.501c0 95.333 22.833 166.666 68.5 213.999s109.167 71 190.5 71c48 0 87.333 -7.33301 118 -22s54.834 -34 72.501 -58
s29.834 -51.833 36.501 -83.5s10 -64.5 10 -98.5v-56h-367c0.666992 -52.667 16 -90 46 -112s72 -33 126 -33c25.333 0 55 3.33301 89 10s66 14.667 96 24v-106zM412 329c0 14.667 -1.50098 29.833 -4.50098 45.5s-8.83301 30 -17.5 43s-20.667 23.5 -36 31.5
s-35.666 12 -60.999 12c-20.667 0 -38.834 -3.5 -54.501 -10.5s-28.667 -16.5 -39 -28.5s-18.166 -26 -23.499 -42s-8 -33 -8 -51h244zM159.999 768.999h129l62 -154h-95z" />
    <glyph glyph-name="eacute" unicode="&#xe9;" horiz-adv-x="580" 
d="M527 23c-36.667 -11.333 -71.834 -20 -105.501 -26s-69.834 -9 -108.501 -9c-89.333 0 -157 22.833 -203 68.5s-69 117.834 -69 216.501c0 95.333 22.833 166.666 68.5 213.999s109.167 71 190.5 71c48 0 87.333 -7.33301 118 -22s54.834 -34 72.501 -58
s29.834 -51.833 36.501 -83.5s10 -64.5 10 -98.5v-56h-367c0.666992 -52.667 16 -90 46 -112s72 -33 126 -33c25.333 0 55 3.33301 89 10s66 14.667 96 24v-106zM412 329c0 14.667 -1.50098 29.833 -4.50098 45.5s-8.83301 30 -17.5 43s-20.667 23.5 -36 31.5
s-35.666 12 -60.999 12c-20.667 0 -38.834 -3.5 -54.501 -10.5s-28.667 -16.5 -39 -28.5s-18.166 -26 -23.499 -42s-8 -33 -8 -51h244zM349.999 614.999h-95l62 154h129z" />
    <glyph glyph-name="ecircumflex" unicode="&#xea;" horiz-adv-x="580" 
d="M527 23c-36.667 -11.333 -71.834 -20 -105.501 -26s-69.834 -9 -108.501 -9c-89.333 0 -157 22.833 -203 68.5s-69 117.834 -69 216.501c0 95.333 22.833 166.666 68.5 213.999s109.167 71 190.5 71c48 0 87.333 -7.33301 118 -22s54.834 -34 72.501 -58
s29.834 -51.833 36.501 -83.5s10 -64.5 10 -98.5v-56h-367c0.666992 -52.667 16 -90 46 -112s72 -33 126 -33c25.333 0 55 3.33301 89 10s66 14.667 96 24v-106zM412 329c0 14.667 -1.50098 29.833 -4.50098 45.5s-8.83301 30 -17.5 43s-20.667 23.5 -36 31.5
s-35.666 12 -60.999 12c-20.667 0 -38.834 -3.5 -54.501 -10.5s-28.667 -16.5 -39 -28.5s-18.166 -26 -23.499 -42s-8 -33 -8 -51h244zM301.999 725.999l-35 -55.5l-34 -55.5h-107c17.333 26 34 52.333 50 79s32.667 53 50 79h151l100 -158h-106z" />
    <glyph glyph-name="edieresis" unicode="&#xeb;" horiz-adv-x="580" 
d="M527 23c-36.667 -11.333 -71.834 -20 -105.501 -26s-69.834 -9 -108.501 -9c-89.333 0 -157 22.833 -203 68.5s-69 117.834 -69 216.501c0 95.333 22.833 166.666 68.5 213.999s109.167 71 190.5 71c48 0 87.333 -7.33301 118 -22s54.834 -34 72.501 -58
s29.834 -51.833 36.501 -83.5s10 -64.5 10 -98.5v-56h-367c0.666992 -52.667 16 -90 46 -112s72 -33 126 -33c25.333 0 55 3.33301 89 10s66 14.667 96 24v-106zM412 329c0 14.667 -1.50098 29.833 -4.50098 45.5s-8.83301 30 -17.5 43s-20.667 23.5 -36 31.5
s-35.666 12 -60.999 12c-20.667 0 -38.834 -3.5 -54.501 -10.5s-28.667 -16.5 -39 -28.5s-18.166 -26 -23.499 -42s-8 -33 -8 -51h244zM479.999 614.999h-109v125h109v-125zM233.999 614.999h-109v125h109v-125z" />
    <glyph glyph-name="igrave" unicode="&#xec;" horiz-adv-x="261" 
d="M-17 769h129l62 -154h-95zM192 0h-123v546h123v-546z" />
    <glyph glyph-name="iacute" unicode="&#xed;" horiz-adv-x="261" 
d="M183 615h-95l62 154h129zM192 0h-123v546h123v-546z" />
    <glyph glyph-name="icircumflex" unicode="&#xee;" horiz-adv-x="261" 
d="M192 0h-123v546h123v-546zM131 726l-35 -55.5l-34 -55.5h-107c17.333 26 34 52.333 50 79s32.667 53 50 79h151l100 -158h-106z" />
    <glyph glyph-name="idieresis" unicode="&#xef;" horiz-adv-x="261" 
d="M287 615h-109v125h109v-125zM81 615h-109v125h109v-125zM192 0h-123v546h123v-546z" />
    <glyph glyph-name="eth" unicode="&#xf0;" horiz-adv-x="631" 
d="M222 646l50.999 28.998c-17.333 16.667 -34.5 32.334 -51.5 47.001l-49.5 41h146c7.33301 -5.33301 14.5 -11.333 21.5 -18s13.833 -13.667 20.5 -21l60 34l34 -57l-43 -25c23.333 -26.667 45.833 -55.5 67.5 -86.5s40.667 -63.5 57 -97.5s29.5 -69.5 39.5 -106.5
s15 -74.833 15 -113.5c0 -50 -7.33301 -93 -22 -129s-34.5 -65.5 -59.5 -88.5s-54.167 -39.833 -87.5 -50.5s-68.666 -16 -105.999 -16c-38 0 -73.667 5.33301 -107 16s-62.5 27.5 -87.5 50.5s-44.667 52.333 -59 88s-21.5 78.834 -21.5 129.501s7.16699 94 21.5 130
s34 65.5 59 88.5s54.167 39.833 87.5 50.5s69 16 107 16c11.333 0 23.333 -1.5 36 -4.5s25 -7.83301 37 -14.5c-8.66699 13.333 -19 27.833 -31 43.5s-24 30.167 -36 43.5l-63 -36zM462.999 271.998c0 56.667 -11.5 100.667 -34.5 132s-60.833 47 -113.5 47
c-52 0 -89.667 -15.667 -113 -47s-35 -75.333 -35 -132s11.667 -100.5 35 -131.5s61 -46.5 113 -46.5c52.667 0 90.5 15.5 113.5 46.5s34.5 74.833 34.5 131.5z" />
    <glyph glyph-name="ntilde" unicode="&#xf1;" horiz-adv-x="611" 
d="M423 0v374c0 23.333 -5.5 41.333 -16.5 54s-29.833 19 -56.5 19c-22.667 0 -47.834 -5.33301 -75.501 -16s-55.5 -23.667 -83.5 -39v-392h-122v546h114v-61h4c35.333 21.333 69.833 38.833 103.5 52.5s65.834 20.5 96.501 20.5c50 0 88.833 -12.833 116.5 -38.5
s41.5 -66.5 41.5 -122.5v-397h-122zM88 715c17.333 16.667 36.833 30.334 58.5 41.001s43.167 16 64.5 16c22 0 41.167 -3.66699 57.5 -11s32 -15.333 47 -24s30.5 -16.667 46.5 -24s35 -11 57 -11c21.333 0 42.833 5.33301 64.5 16s41.167 24.334 58.5 41.001v-96
c-17.333 -16.667 -36.833 -30.334 -58.5 -41.001s-43.167 -16 -64.5 -16c-22 0 -41.167 3.66699 -57.5 11s-32 15.333 -47 24s-30.5 16.667 -46.5 24s-35 11 -57 11c-21.333 0 -42.833 -5.33301 -64.5 -16s-41.167 -24.334 -58.5 -41.001v96z" />
    <glyph glyph-name="ograve" unicode="&#xf2;" horiz-adv-x="628" 
d="M166 273c0 -56.667 11.667 -100.834 35 -132.501s61.333 -47.5 114 -47.5c52 0 89.5 15.833 112.5 47.5s34.5 75.834 34.5 132.501s-11.5 100.667 -34.5 132s-60.5 47 -112.5 47c-52.667 0 -90.667 -15.667 -114 -47s-35 -75.333 -35 -132zM40 273
c0 50.667 7.16699 94 21.5 130s34 65.5 59 88.5s54.167 39.833 87.5 50.5s68.666 16 105.999 16s72.666 -5.5 105.999 -16.5s62.5 -28 87.5 -51s44.833 -52.5 59.5 -88.5s22 -79 22 -129s-7.33301 -93 -22 -129s-34.5 -65.5 -59.5 -88.5s-54.167 -40 -87.5 -51
s-68.666 -16.5 -105.999 -16.5s-72.666 5.33301 -105.999 16s-62.5 27.5 -87.5 50.5s-44.667 52.5 -59 88.5s-21.5 79.333 -21.5 130zM167 769h129l62 -154h-95z" />
    <glyph glyph-name="oacute" unicode="&#xf3;" horiz-adv-x="628" 
d="M166 273c0 -56.667 11.667 -100.834 35 -132.501s61.333 -47.5 114 -47.5c52 0 89.5 15.833 112.5 47.5s34.5 75.834 34.5 132.501s-11.5 100.667 -34.5 132s-60.5 47 -112.5 47c-52.667 0 -90.667 -15.667 -114 -47s-35 -75.333 -35 -132zM40 273
c0 50.667 7.16699 94 21.5 130s34 65.5 59 88.5s54.167 39.833 87.5 50.5s68.666 16 105.999 16s72.666 -5.5 105.999 -16.5s62.5 -28 87.5 -51s44.833 -52.5 59.5 -88.5s22 -79 22 -129s-7.33301 -93 -22 -129s-34.5 -65.5 -59.5 -88.5s-54.167 -40 -87.5 -51
s-68.666 -16.5 -105.999 -16.5s-72.666 5.33301 -105.999 16s-62.5 27.5 -87.5 50.5s-44.667 52.5 -59 88.5s-21.5 79.333 -21.5 130zM355 615h-95l62 154h129z" />
    <glyph glyph-name="ocircumflex" unicode="&#xf4;" horiz-adv-x="628" 
d="M166 273c0 -56.667 11.667 -100.834 35 -132.501s61.333 -47.5 114 -47.5c52 0 89.5 15.833 112.5 47.5s34.5 75.834 34.5 132.501s-11.5 100.667 -34.5 132s-60.5 47 -112.5 47c-52.667 0 -90.667 -15.667 -114 -47s-35 -75.333 -35 -132zM40 273
c0 50.667 7.16699 94 21.5 130s34 65.5 59 88.5s54.167 39.833 87.5 50.5s68.666 16 105.999 16s72.666 -5.5 105.999 -16.5s62.5 -28 87.5 -51s44.833 -52.5 59.5 -88.5s22 -79 22 -129s-7.33301 -93 -22 -129s-34.5 -65.5 -59.5 -88.5s-54.167 -40 -87.5 -51
s-68.666 -16.5 -105.999 -16.5s-72.666 5.33301 -105.999 16s-62.5 27.5 -87.5 50.5s-44.667 52.5 -59 88.5s-21.5 79.333 -21.5 130zM316 726l-35 -55.5l-34 -55.5h-107c17.333 26 34 52.333 50 79s32.667 53 50 79h151l100 -158h-106z" />
    <glyph glyph-name="otilde" unicode="&#xf5;" horiz-adv-x="628" 
d="M166 273c0 -56.667 11.667 -100.834 35 -132.501s61.333 -47.5 114 -47.5c52 0 89.5 15.833 112.5 47.5s34.5 75.834 34.5 132.501s-11.5 100.667 -34.5 132s-60.5 47 -112.5 47c-52.667 0 -90.667 -15.667 -114 -47s-35 -75.333 -35 -132zM40 273
c0 50.667 7.16699 94 21.5 130s34 65.5 59 88.5s54.167 39.833 87.5 50.5s68.666 16 105.999 16s72.666 -5.5 105.999 -16.5s62.5 -28 87.5 -51s44.833 -52.5 59.5 -88.5s22 -79 22 -129s-7.33301 -93 -22 -129s-34.5 -65.5 -59.5 -88.5s-54.167 -40 -87.5 -51
s-68.666 -16.5 -105.999 -16.5s-72.666 5.33301 -105.999 16s-62.5 27.5 -87.5 50.5s-44.667 52.5 -59 88.5s-21.5 79.333 -21.5 130zM91 715c17.333 16.667 36.833 30.334 58.5 41.001s43.167 16 64.5 16c22 0 41.167 -3.66699 57.5 -11s32 -15.333 47 -24
s30.5 -16.667 46.5 -24s35 -11 57 -11c21.333 0 42.833 5.33301 64.5 16s41.167 24.334 58.5 41.001v-96c-17.333 -16.667 -36.833 -30.334 -58.5 -41.001s-43.167 -16 -64.5 -16c-22 0 -41.167 3.66699 -57.5 11s-32 15.333 -47 24s-30.5 16.667 -46.5 24s-35 11 -57 11
c-21.333 0 -42.833 -5.33301 -64.5 -16s-41.167 -24.334 -58.5 -41.001v96z" />
    <glyph glyph-name="odieresis" unicode="&#xf6;" horiz-adv-x="628" 
d="M166 273c0 -56.667 11.667 -100.834 35 -132.501s61.333 -47.5 114 -47.5c52 0 89.5 15.833 112.5 47.5s34.5 75.834 34.5 132.501s-11.5 100.667 -34.5 132s-60.5 47 -112.5 47c-52.667 0 -90.667 -15.667 -114 -47s-35 -75.333 -35 -132zM40 273
c0 50.667 7.16699 94 21.5 130s34 65.5 59 88.5s54.167 39.833 87.5 50.5s68.666 16 105.999 16s72.666 -5.5 105.999 -16.5s62.5 -28 87.5 -51s44.833 -52.5 59.5 -88.5s22 -79 22 -129s-7.33301 -93 -22 -129s-34.5 -65.5 -59.5 -88.5s-54.167 -40 -87.5 -51
s-68.666 -16.5 -105.999 -16.5s-72.666 5.33301 -105.999 16s-62.5 27.5 -87.5 50.5s-44.667 52.5 -59 88.5s-21.5 79.333 -21.5 130zM494 615h-109v125h109v-125zM248 615h-109v125h109v-125z" />
    <glyph glyph-name="divide" unicode="&#xf7;" horiz-adv-x="580" 
d="M238 392v114h100v-114h-100zM526 323v-100h-472v100h472zM238 39v116h100v-116h-100z" />
    <glyph glyph-name="oslash" unicode="&#xf8;" horiz-adv-x="628" 
d="M132 44c-28.667 22.667 -51.168 52.668 -67.501 90.001s-24.5 83.666 -24.5 138.999c0 50.667 7.16699 94 21.5 130s34 65.5 59 88.5s54.167 39.833 87.5 50.5s68.666 16 105.999 16c16 0 31.833 -1 47.5 -3s30.834 -5.33301 45.501 -10l60 109h114l-85 -154
c28 -23.333 50.5 -53.5 67.5 -90.5s25.5 -82.5 25.5 -136.5c0 -50 -7.33301 -93 -22 -129s-34.5 -65.5 -59.5 -88.5s-54.167 -40 -87.5 -51s-68.666 -16.5 -105.999 -16.5c-15.333 0 -30.833 1 -46.5 3s-30.5 5.33301 -44.5 10l-64 -117h-115zM461.999 273.001
c0 46.667 -10.335 82.667 -31.002 108l-153 -280c4.66699 -2 10.334 -3.5 17.001 -4.5s13.334 -1.5 20.001 -1.5c52 0 89.5 15.5 112.5 46.5s34.5 74.833 34.5 131.5zM165.997 273.001c0 -48 10.333 -85.333 31 -112l155 283c-5.33301 2 -11 3.66699 -17 5s-12.667 2 -20 2
c-52.667 0 -90.667 -15.5 -114 -46.5s-35 -74.833 -35 -131.5z" />
    <glyph glyph-name="ugrave" unicode="&#xf9;" 
d="M189 546v-374c0 -23.333 5.5 -41.333 16.5 -54s29.5 -19 55.5 -19c22.667 0 48 5.16699 76 15.5s55.667 23.166 83 38.499v393h123v-546h-104l-10 60h-4c-36 -21.333 -70.667 -38.666 -104 -51.999s-65.333 -20 -96 -20c-50 0 -89 12.833 -117 38.5s-42 66.167 -42 121.5
v398h123zM171 769h129l62 -154h-95z" />
    <glyph glyph-name="uacute" unicode="&#xfa;" 
d="M189 546v-374c0 -23.333 5.5 -41.333 16.5 -54s29.5 -19 55.5 -19c22.667 0 48 5.16699 76 15.5s55.667 23.166 83 38.499v393h123v-546h-104l-10 60h-4c-36 -21.333 -70.667 -38.666 -104 -51.999s-65.333 -20 -96 -20c-50 0 -89 12.833 -117 38.5s-42 66.167 -42 121.5
v398h123zM334 615h-95l62 154h129z" />
    <glyph glyph-name="ucircumflex" unicode="&#xfb;" 
d="M189 546v-374c0 -23.333 5.5 -41.333 16.5 -54s29.5 -19 55.5 -19c22.667 0 48 5.16699 76 15.5s55.667 23.166 83 38.499v393h123v-546h-104l-10 60h-4c-36 -21.333 -70.667 -38.666 -104 -51.999s-65.333 -20 -96 -20c-50 0 -89 12.833 -117 38.5s-42 66.167 -42 121.5
v398h123zM301 726l-35 -55.5l-34 -55.5h-107c17.333 26 34 52.333 50 79s32.667 53 50 79h151l100 -158h-106z" />
    <glyph glyph-name="udieresis" unicode="&#xfc;" 
d="M189 546v-374c0 -23.333 5.5 -41.333 16.5 -54s29.5 -19 55.5 -19c22.667 0 48 5.16699 76 15.5s55.667 23.166 83 38.499v393h123v-546h-104l-10 60h-4c-36 -21.333 -70.667 -38.666 -104 -51.999s-65.333 -20 -96 -20c-50 0 -89 12.833 -117 38.5s-42 66.167 -42 121.5
v398h123zM483 615h-109v125h109v-125zM237 615h-109v125h109v-125z" />
    <glyph glyph-name="yacute" unicode="&#xfd;" horiz-adv-x="560" 
d="M176 -205l68 205h-52l-87.5 273l-88.5 273h134l62.5 -206.5l62.5 -207.5h9l64 207.5l64 206.5h131l-239 -751h-128zM319 615h-95l62 154h129z" />
    <glyph glyph-name="thorn" unicode="&#xfe;" horiz-adv-x="610" 
d="M69 -205l-0.000976562 925h122v-231c30 22 60.333 38.833 91 50.5s61 17.5 91 17.5c26 0 50.833 -5.16699 74.5 -15.5s44.5 -26.5 62.5 -48.5s32.333 -50 43 -84s16 -74.667 16 -122c0 -54 -6.5 -99.667 -19.5 -137s-31 -67.833 -54 -91.5s-50.167 -40.834 -81.5 -51.501
s-65.666 -16 -102.999 -16c-18.667 0 -38.5 1.33301 -59.5 4s-41.167 6.33398 -60.5 11.001v-211h-122zM442.999 280c0 60 -10.167 103.168 -30.5 129.501s-46.5 39.5 -78.5 39.5c-42.667 0 -90.334 -18.667 -143.001 -56v-286c18.667 -4.66699 37 -8.33398 55 -11.001
s34.667 -4 50 -4c50.667 0 87.834 15.833 111.501 47.5s35.5 78.5 35.5 140.5z" />
    <glyph glyph-name="ydieresis" unicode="&#xff;" horiz-adv-x="560" 
d="M176 -205l68 205h-52l-87.5 273l-88.5 273h134l62.5 -206.5l62.5 -207.5h9l64 207.5l64 206.5h131l-239 -751h-128zM467 613h-109v125h109v-125zM221 613h-109v125h109v-125z" />
    <glyph glyph-name="Amacron" unicode="&#x100;" horiz-adv-x="675" 
d="M250 721h175l246 -721h-133l-50 151h-300l-50 -151h-133zM215 262h241l-114 351h-11zM137 884h401v-99h-401v99z" />
    <glyph glyph-name="amacron" unicode="&#x101;" horiz-adv-x="563" 
d="M375 331l-0.00195312 41.001c0 25.333 -8.66699 45.666 -26 60.999s-48.333 23 -93 23c-12 0 -25.5 -0.5 -40.5 -1.5s-30.5 -2.66699 -46.5 -5s-31.833 -5 -47.5 -8s-30.5 -6.5 -44.5 -10.5v104c34 7.33301 69.833 13 107.5 17s71.167 6 100.5 6
c66.667 0 118.834 -16.167 156.501 -48.5s56.5 -80.833 56.5 -145.5v-364h-105l-9 61h-4c-30 -21.333 -59.833 -38 -89.5 -50s-59.5 -18 -89.5 -18c-23.333 0 -45.333 3.5 -66 10.5s-38.667 17.5 -54 31.5s-27.5 31.5 -36.5 52.5s-13.5 45.833 -13.5 74.5
c0 52.667 17.833 94 53.5 124s85.834 45 150.501 45h140zM374.998 244.001h-122c-65.333 0 -98 -24.333 -98 -73c0 -25.333 8 -44.333 24 -57s36.667 -19 62 -19c23.333 0 47 4.5 71 13.5s45 20.167 63 33.5v102zM76.998 727.001h401v-99h-401v99z" />
    <glyph glyph-name="Aogonek" unicode="&#x104;" horiz-adv-x="675" 
d="M671 0c-13.333 -4 -27.334 -9.33105 -42.001 -15.998s-28 -14.834 -40 -24.501s-21.833 -20.834 -29.5 -33.501s-11.5 -26.667 -11.5 -42c0 -17.333 6 -31.5 18 -42.5s30 -16.5 54 -16.5c16.667 0 33 2 49 6v-74c-11.333 -3.33301 -23.666 -5.83301 -36.999 -7.5
s-27.666 -2.5 -42.999 -2.5c-20.667 0 -39.834 2.66699 -57.501 8s-33 12.833 -46 22.5s-23.167 21.5 -30.5 35.5s-11 30 -11 48c0 27.333 8.33301 52.5 25 75.5s39.667 44.167 69 63.5l-50 151h-300l-50 -151h-133l245 721h175zM214.999 262.002h241l-114 351h-11z" />
    <glyph glyph-name="aogonek" unicode="&#x105;" horiz-adv-x="563" 
d="M375 331l-0.00195312 40.999c0 25.333 -8.66699 45.666 -26 60.999s-48.333 23 -93 23c-12 0 -25.5 -0.5 -40.5 -1.5s-30.5 -2.66699 -46.5 -5s-31.833 -5 -47.5 -8s-30.5 -6.5 -44.5 -10.5v104c34 7.33301 69.833 13 107.5 17s71.167 6 100.5 6
c66.667 0 118.834 -16.167 156.501 -48.5s56.5 -80.833 56.5 -145.5v-364c-30 -14.667 -54.333 -31.667 -73 -51s-28 -40.666 -28 -63.999c0 -17.333 6 -31.666 18 -42.999s29.333 -17 52 -17c15.333 0 31 2 47 6v-74c-11.333 -3.33301 -23 -5.83301 -35 -7.5
s-25.667 -2.5 -41 -2.5c-42 0 -76 10.333 -102 31s-39 49 -39 85c0 25.333 8.33301 50 25 74s40 45.667 70 65l-8 59h-4c-30 -21.333 -59.833 -38 -89.5 -50s-59.5 -18 -89.5 -18c-23.333 0 -45.333 3.5 -66 10.5s-38.667 17.5 -54 31.5s-27.5 31.5 -36.5 52.5
s-13.5 45.833 -13.5 74.5c0 52.667 17.833 94 53.5 124s85.834 45 150.501 45h140zM374.998 243.999h-122c-65.333 0 -98 -24.333 -98 -73c0 -25.333 8 -44.333 24 -57s36.667 -19 62 -19c23.333 0 47 4.5 71 13.5s45 20.167 63 33.5v102z" />
    <glyph glyph-name="Cacute" unicode="&#x106;" 
d="M45 361c0 56.667 7.00195 107.998 21.002 153.998s35 85 63 117s62.667 56.667 104 74s89.333 26 144 26c30 0 60.667 -1.66699 92 -5s64.666 -9.66602 99.999 -18.999v-115c-11.333 3.33301 -23.833 6.83301 -37.5 10.5s-28 7 -43 10s-30 5.33301 -45 7
s-29.5 2.5 -43.5 2.5c-35.333 0 -66.833 -4.66699 -94.5 -14s-51.334 -24.166 -71.001 -44.499s-34.667 -47 -45 -80s-15.5 -73.167 -15.5 -120.5c0 -50 5.83301 -92.167 17.5 -126.5s27.5 -61.833 47.5 -82.5s43.333 -35.5 70 -44.5s54.667 -13.5 84 -13.5
c28 0 57.667 3 89 9s61 14.667 89 26v-113c-32 -11.333 -65.167 -19.333 -99.5 -24s-65.5 -7 -93.5 -7c-56 0 -105 8.5 -147 25.5s-76.667 41.5 -104 73.5s-47.833 71 -61.5 117s-20.5 98.333 -20.5 157zM390.002 771.998h-95l62 154h129z" />
    <glyph glyph-name="cacute" unicode="&#x107;" horiz-adv-x="526" 
d="M331 95c26 0 51.666 2.33203 76.999 6.99902s50.666 10.667 75.999 18v-107c-28.667 -8.66699 -56.667 -15 -84 -19s-56.666 -6 -87.999 -6c-33.333 0 -66.166 4.33301 -98.499 13s-61.333 23.667 -87 45s-46.5 50.5 -62.5 87.5s-24 83.5 -24 139.5s8 102.333 24 139
s36.833 65.834 62.5 87.501s54.667 36.834 87 45.501s65.166 13 98.499 13c31.333 0 60.666 -2 87.999 -6s55.333 -10.333 84 -19v-108c-25.333 8 -50.666 14.167 -75.999 18.5s-51 6.5 -77 6.5c-54 0 -95.167 -14 -123.5 -42s-42.5 -73 -42.5 -135
c0 -26 3.16699 -50 9.5 -72s16.333 -40.833 30 -56.5s30.834 -27.834 51.501 -36.501s45.667 -13 75 -13zM344.999 614.999h-95l62 154h129z" />
    <glyph glyph-name="Ccaron" unicode="&#x10c;" 
d="M45 361c0 56.667 7.00195 107.998 21.002 153.998s35 85 63 117s62.667 56.667 104 74s89.333 26 144 26c30 0 60.667 -1.66699 92 -5s64.666 -9.66602 99.999 -18.999v-115c-11.333 3.33301 -23.833 6.83301 -37.5 10.5s-28 7 -43 10s-30 5.33301 -45 7
s-29.5 2.5 -43.5 2.5c-35.333 0 -66.833 -4.66699 -94.5 -14s-51.334 -24.166 -71.001 -44.499s-34.667 -47 -45 -80s-15.5 -73.167 -15.5 -120.5c0 -50 5.83301 -92.167 17.5 -126.5s27.5 -61.833 47.5 -82.5s43.333 -35.5 70 -44.5s54.667 -13.5 84 -13.5
c28 0 57.667 3 89 9s61 14.667 89 26v-113c-32 -11.333 -65.167 -19.333 -99.5 -24s-65.5 -7 -93.5 -7c-56 0 -105 8.5 -147 25.5s-76.667 41.5 -104 73.5s-47.833 71 -61.5 117s-20.5 98.333 -20.5 157zM361.002 817.998l69 112h106l-48 -79l-49 -79h-155l-99 158h107z" />
    <glyph glyph-name="ccaron" unicode="&#x10d;" horiz-adv-x="526" 
d="M331 95c26 0 51.666 2.33203 76.999 6.99902s50.666 10.667 75.999 18v-107c-28.667 -8.66699 -56.667 -15 -84 -19s-56.666 -6 -87.999 -6c-33.333 0 -66.166 4.33301 -98.499 13s-61.333 23.667 -87 45s-46.5 50.5 -62.5 87.5s-24 83.5 -24 139.5s8 102.333 24 139
s36.833 65.834 62.5 87.501s54.667 36.834 87 45.501s65.166 13 98.499 13c31.333 0 60.666 -2 87.999 -6s55.333 -10.333 84 -19v-108c-25.333 8 -50.666 14.167 -75.999 18.5s-51 6.5 -77 6.5c-54 0 -95.167 -14 -123.5 -42s-42.5 -73 -42.5 -135
c0 -26 3.16699 -50 9.5 -72s16.333 -40.833 30 -56.5s30.834 -27.834 51.501 -36.501s45.667 -13 75 -13zM309.999 660.999l69 112h106l-48 -79l-49 -79h-155l-99 158h107z" />
    <glyph glyph-name="Emacron" unicode="&#x112;" horiz-adv-x="605" 
d="M562 720v-109h-357v-195h308v-108h-308v-199h355v-109h-481v720h483zM115 884h401v-99h-401v99z" />
    <glyph glyph-name="emacron" unicode="&#x113;" horiz-adv-x="580" 
d="M527 23c-36.667 -11.333 -71.834 -20 -105.501 -26s-69.834 -9 -108.501 -9c-89.333 0 -157 22.833 -203 68.5s-69 117.834 -69 216.501c0 95.333 22.833 166.666 68.5 213.999s109.167 71 190.5 71c48 0 87.333 -7.33301 118 -22s54.834 -34 72.501 -58
s29.834 -51.833 36.501 -83.5s10 -64.5 10 -98.5v-56h-367c0.666992 -52.667 16 -90 46 -112s72 -33 126 -33c25.333 0 55 3.33301 89 10s66 14.667 96 24v-106zM412 329c0 14.667 -1.50098 29.833 -4.50098 45.5s-8.83301 30 -17.5 43s-20.667 23.5 -36 31.5
s-35.666 12 -60.999 12c-20.667 0 -38.834 -3.5 -54.501 -10.5s-28.667 -16.5 -39 -28.5s-18.166 -26 -23.499 -42s-8 -33 -8 -51h244zM97.999 726.999h401v-99h-401v99z" />
    <glyph glyph-name="Edotaccent" unicode="&#x116;" horiz-adv-x="605" 
d="M562 720v-109h-357v-195h308v-108h-308v-199h355v-109h-481v720h483zM378 773h-102v123h102v-123z" />
    <glyph glyph-name="edotaccent" unicode="&#x117;" horiz-adv-x="580" 
d="M527 23c-36.667 -11.333 -71.834 -20 -105.501 -26s-69.834 -9 -108.501 -9c-89.333 0 -157 22.833 -203 68.5s-69 117.834 -69 216.501c0 95.333 22.833 166.666 68.5 213.999s109.167 71 190.5 71c48 0 87.333 -7.33301 118 -22s54.834 -34 72.501 -58
s29.834 -51.833 36.501 -83.5s10 -64.5 10 -98.5v-56h-367c0.666992 -52.667 16 -90 46 -112s72 -33 126 -33c25.333 0 55 3.33301 89 10s66 14.667 96 24v-106zM412 329c0 14.667 -1.50098 29.833 -4.50098 45.5s-8.83301 30 -17.5 43s-20.667 23.5 -36 31.5
s-35.666 12 -60.999 12c-20.667 0 -38.834 -3.5 -54.501 -10.5s-28.667 -16.5 -39 -28.5s-18.166 -26 -23.499 -42s-8 -33 -8 -51h244zM348.999 615.999h-102v123h102v-123z" />
    <glyph glyph-name="Eogonek" unicode="&#x118;" horiz-adv-x="605" 
d="M562 720l0.00195312 -108.998h-357v-195h308v-108h-308v-199h355v-109c-19.333 -4.66699 -36.333 -11.334 -51 -20.001s-26.834 -18.334 -36.501 -29.001s-17 -21.834 -22 -33.501s-7.5 -22.5 -7.5 -32.5c0 -17.333 6 -31.666 18 -42.999s29.667 -17 53 -17
c15.333 0 30.666 2 45.999 6v-74c-11.333 -3.33301 -23 -5.83301 -35 -7.5s-25.667 -2.5 -41 -2.5c-41.333 0 -75 10.333 -101 31s-39 49 -39 85c0 24.667 8 49 24 73s38.333 45.333 67 64h-356v720h483z" />
    <glyph glyph-name="eogonek" unicode="&#x119;" horiz-adv-x="580" 
d="M527 23l-40.001 -21.502c-15.333 -8.33301 -29.833 -18.333 -43.5 -30s-25.334 -24.667 -35.001 -39s-14.5 -30.166 -14.5 -47.499s6 -31.666 18 -42.999s29.667 -17 53 -17c15.333 0 30.666 2 45.999 6v-74c-11.333 -3.33301 -23 -5.83301 -35 -7.5
s-25.667 -2.5 -41 -2.5c-41.333 0 -75 10.333 -101 31s-39 49 -39 85c0 22.667 6.83301 45.167 20.5 67.5s32.834 42.5 57.501 60.5c-20 -2 -40 -3 -60 -3c-89.333 0 -157 22.833 -203 68.5s-69 117.834 -69 216.501c0 95.333 22.833 166.666 68.5 213.999
s109.167 71 190.5 71c48 0 87.333 -7.33301 118 -22s54.834 -34 72.501 -58s29.834 -51.833 36.501 -83.5s10 -64.5 10 -98.5v-56h-367c0.666992 -52.667 16 -90 46 -112s72 -33 126 -33c25.333 0 55 3.33301 89 10s66 14.667 96 24v-106zM411.999 328.998
c0 14.667 -1.50098 29.833 -4.50098 45.5s-8.83301 30 -17.5 43s-20.667 23.5 -36 31.5s-35.666 12 -60.999 12c-20.667 0 -38.834 -3.5 -54.501 -10.5s-28.667 -16.5 -39 -28.5s-18.166 -26 -23.499 -42s-8 -33 -8 -51h244z" />
    <glyph glyph-name="uni0122" unicode="&#x122;" horiz-adv-x="709" 
d="M655 36c-38.667 -13.333 -80.667 -24.665 -126 -33.998s-92 -14 -140 -14c-59.333 0 -110.5 8.5 -153.5 25.5s-78.833 41.667 -107.5 74s-49.834 71.666 -63.501 117.999s-20.5 98.833 -20.5 157.5c0 54 8 103.5 24 148.5s40 83.833 72 116.5s71.667 58.167 119 76.5
s102.333 27.5 165 27.5c33.333 0 67.833 -2.16699 103.5 -6.5s69.167 -10.166 100.5 -17.499v-18.5c0 -11.667 -0.166992 -24.5 -0.5 -38.5s-0.5 -26.833 -0.5 -38.5v-18.5c-31.333 9.33301 -65.5 16.5 -102.5 21.5s-69.167 7.5 -96.5 7.5c-32 0 -63.167 -4.66699 -93.5 -14
s-57.5 -24.5 -81.5 -45.5s-43.333 -48.167 -58 -81.5s-22 -74 -22 -122c0 -44.667 5.66699 -83.5 17 -116.5s27.333 -60.333 48 -82s45.334 -37.834 74.001 -48.501s60.667 -16 96 -16c20.667 0 40.5 1.66699 59.5 5s39.5 7.66602 61.5 12.999v170h-158v108h284v-357z
M340 -50.999h82.999c2 -8.66699 3.5 -17.167 4.5 -25.5s1.5 -18.5 1.5 -30.5c0 -18.667 -3.66699 -41 -11 -67s-16.666 -49.667 -27.999 -71h-50v194z" />
    <glyph glyph-name="uni0123" unicode="&#x123;" horiz-adv-x="594" 
d="M321 611h-82.999c-2 8.66699 -3.5 17.167 -4.5 25.5s-1.5 18.5 -1.5 30.5c0 18.667 3.66699 41 11 67s16.666 49.667 27.999 71h50v-194zM40.001 360c0 62 20.834 110.495 62.501 145.495s99.167 52.5 172.5 52.5c31.333 0 62.333 -2 93 -6s60.667 -6 90 -6
c19.333 0 39 0.833008 59 2.5s39.333 4.16699 58 7.5v-98c-16 0 -33.167 0.166992 -51.5 0.5s-36.833 0.5 -55.5 0.5c13.333 -11.333 23.833 -25.666 31.5 -42.999s11.5 -37 11.5 -59c0 -35.333 -6.83301 -64.666 -20.5 -87.999s-31.5 -42 -53.5 -56
s-47.167 -23.833 -75.5 -29.5s-57.5 -8.5 -87.5 -8.5c-11.333 0 -22.833 0.333008 -34.5 1s-23.167 1.66699 -34.5 3c-4.66699 -6 -8.5 -12.667 -11.5 -20s-4.5 -15.666 -4.5 -24.999c0 -11.333 3.33301 -20.666 10 -27.999s17.667 -11 33 -11h163c22 0 43 -2 63 -6
s37.833 -11.167 53.5 -21.5s28.167 -24.5 37.5 -42.5s14 -41 14 -69c0 -59.333 -25.833 -103 -77.5 -131s-124.5 -42 -218.5 -42c-80.667 0 -140 10.833 -178 32.5s-57 54.5 -57 98.5c0 24.667 6.5 47.834 19.5 69.501s37.167 38.5 72.5 50.5v5
c-14.667 8.66699 -25.5 19.667 -32.5 33s-10.5 26.333 -10.5 39c0 16 4.16699 32.5 12.5 49.5s21.166 32.167 38.499 45.5c-28 13.333 -50.333 32.833 -67 58.5s-25 57.5 -25 95.5zM388.002 361.995c0 30.667 -8.66699 55.166 -26 73.499s-45.666 27.5 -84.999 27.5
c-40 0 -68.667 -9.16699 -86 -27.5s-26 -43.166 -26 -74.499s8.66699 -55.833 26 -73.5s46 -26.5 86 -26.5c39.333 0 67.666 8.83301 84.999 26.5s26 42.5 26 74.5zM238.002 0.994141c-24 -3.33301 -43.333 -10.8301 -58 -22.4971s-22 -28.167 -22 -49.5
c0 -24.667 10.333 -40.834 31 -48.501s52 -11.5 94 -11.5c50 0 88 5.16699 114 15.5s39 30.166 39 59.499c0 19.333 -6 33.666 -18 42.999s-28.667 14 -50 14h-130z" />
    <glyph glyph-name="Imacron" unicode="&#x12a;" horiz-adv-x="284" 
d="M79 720h126v-720h-126v720zM-57 884h401v-99h-401v99z" />
    <glyph glyph-name="imacron" unicode="&#x12b;" horiz-adv-x="261" 
d="M-40 727h341v-99h-341v99zM192 0h-123v546h123v-546z" />
    <glyph glyph-name="Iogonek" unicode="&#x12e;" horiz-adv-x="284" 
d="M205 0c-32 -20 -54.168 -39.6689 -66.501 -59.002s-18.5 -37.666 -18.5 -54.999c0 -18.667 7.66699 -33.5 23 -44.5s38 -16.5 68 -16.5c12.667 0 23.334 1.33301 32.001 4v-72c-12 -3.33301 -24.667 -5.83301 -38 -7.5s-27 -2.5 -41 -2.5
c-17.333 0 -34.5 2.16699 -51.5 6.5s-32.167 11 -45.5 20s-24 20.833 -32 35.5s-12 32.334 -12 53.001c0 21.333 4.5 43 13.5 65s23.167 42.333 42.5 61v732h126v-720z" />
    <glyph glyph-name="iogonek" unicode="&#x12f;" horiz-adv-x="261" 
d="M192 0c-32 -19.333 -54.335 -38.8311 -67.002 -58.498s-19 -38.167 -19 -55.5c0 -18.667 7.66699 -33.5 23 -44.5s38 -16.5 68 -16.5c12.667 0 23.334 1.33301 32.001 4v-72c-12 -3.33301 -24.667 -5.83301 -38 -7.5s-27 -2.5 -41 -2.5c-17.333 0 -34.5 2 -51.5 6
s-32.167 10.667 -45.5 20s-24 21.166 -32 35.499s-12 32.166 -12 53.499s4.83301 43 14.5 65s24.834 42.667 45.501 62v557h123v-546zM192.998 620.002h-126v122h126v-122z" />
    <glyph glyph-name="dotlessi" unicode="&#x131;" horiz-adv-x="261" 
d="M192 0h-123v546h123v-546z" />
    <glyph glyph-name="uni0136" unicode="&#x136;" horiz-adv-x="667" 
d="M79 720l126.004 -0.000976562v-328l98 34c23.333 8 45 18.833 65 32.5s37.167 31 51.5 52s25.666 46.5 33.999 76.5s12.5 65.667 12.5 107v26h127v-17c0 -32 -2.16699 -64.5 -6.5 -97.5s-12.333 -64.667 -24 -95s-27.834 -58.666 -48.501 -84.999
s-47.334 -49.166 -80.001 -68.499l-17 -10l85 -148c10.667 -18.667 21 -33.834 31 -45.501s20.667 -20.667 32 -27s23.666 -10.5 36.999 -12.5s28 -3 44 -3v-113c-17.333 -2 -33.333 -3 -48 -3c-50 0 -93 14.333 -129 43s-67 67.667 -93 117l-77 142l-94 -36v-261h-126v720z
M292.004 -51.001h82.999c2 -8.66699 3.5 -17.167 4.5 -25.5s1.5 -18.5 1.5 -30.5c0 -18.667 -3.66699 -41 -11 -67s-16.666 -49.667 -27.999 -71h-50v194z" />
    <glyph glyph-name="uni0137" unicode="&#x137;" horiz-adv-x="570" 
d="M500 530c0 -23.333 -2.16797 -46.668 -6.50098 -70.001s-11.666 -45.833 -21.999 -67.5s-24 -42 -41 -61s-38.167 -35.833 -63.5 -50.5l54 -93c15.333 -27.333 33 -47.666 53 -60.999s44 -20.333 72 -21v-110c-6.66699 -1.33301 -13.167 -2.16602 -19.5 -2.49902
s-13.166 -0.5 -20.499 -0.5c-40.667 0 -76.834 11.167 -108.501 33.5s-60.5 56.833 -86.5 103.5l-55 101l-65 -27v-204h-122v763h122v-453l68 28c14 6 28 13.5 42 22.5s26.667 20.833 38 35.5s20.5 32.167 27.5 52.5s10.5 45.166 10.5 74.499v23h123v-16zM257.999 -51.002
h82.999c2 -8.66699 3.5 -17.167 4.5 -25.5s1.5 -18.5 1.5 -30.5c0 -18.667 -3.66699 -41 -11 -67s-16.666 -49.667 -27.999 -71h-50v194z" />
    <glyph glyph-name="Lacute" unicode="&#x139;" horiz-adv-x="546" 
d="M205 720v-611h331v-109h-457v720h126zM183 773h-95l62 154h129z" />
    <glyph glyph-name="lacute" unicode="&#x13a;" horiz-adv-x="264" 
d="M193 0h-122v763h122v-763zM176 808h-95l62 154h129z" />
    <glyph glyph-name="uni013B" unicode="&#x13b;" horiz-adv-x="546" 
d="M205 720v-611h331v-109h-457v720h126zM267 -51h82.999c2 -8.66699 3.5 -17.167 4.5 -25.5s1.5 -18.5 1.5 -30.5c0 -18.667 -3.66699 -41 -11 -67s-16.666 -49.667 -27.999 -71h-50v194z" />
    <glyph glyph-name="uni013C" unicode="&#x13c;" horiz-adv-x="264" 
d="M193 0h-122v763h122v-763zM87 -51h82.999c2 -8.66699 3.5 -17.167 4.5 -25.5s1.5 -18.5 1.5 -30.5c0 -18.667 -3.66699 -41 -11 -67s-16.666 -49.667 -27.999 -71h-50v194z" />
    <glyph glyph-name="Lslash" unicode="&#x141;" horiz-adv-x="569" 
d="M-2 332l103 52v336h127v-272l176 88v-114l-176 -88v-222h331v-112h-458v272l-103 -52v112z" />
    <glyph glyph-name="lslash" unicode="&#x142;" horiz-adv-x="330" 
d="M223 493l100 55v-114l-100 -55v-379h-123v311l-89 -49v111l89 50v340h123v-270z" />
    <glyph glyph-name="Nacute" unicode="&#x143;" horiz-adv-x="760" 
d="M205 511v-511h-126v720h137l339 -523v523h126v-720h-136zM420 773h-95l62 154h129z" />
    <glyph glyph-name="nacute" unicode="&#x144;" horiz-adv-x="611" 
d="M423 0v374c0 23.333 -5.5 41.333 -16.5 54s-29.833 19 -56.5 19c-22.667 0 -47.834 -5.33301 -75.501 -16s-55.5 -23.667 -83.5 -39v-392h-122v546h114v-61h4c35.333 21.333 69.833 38.833 103.5 52.5s65.834 20.5 96.501 20.5c50 0 88.833 -12.833 116.5 -38.5
s41.5 -66.5 41.5 -122.5v-397h-122zM322 616h-95l62 154h129z" />
    <glyph glyph-name="uni0145" unicode="&#x145;" horiz-adv-x="751" 
d="M205 511v-511h-126v720h137l339 -523v523h126v-720h-136zM346 -51h82.999c2 -8.66699 3.5 -17.167 4.5 -25.5s1.5 -18.5 1.5 -30.5c0 -18.667 -3.66699 -41 -11 -67s-16.666 -49.667 -27.999 -71h-50v194z" />
    <glyph glyph-name="uni0146" unicode="&#x146;" horiz-adv-x="608" 
d="M423 0v374c0 23.333 -5.5 41.333 -16.5 54s-29.833 19 -56.5 19c-22.667 0 -47.834 -5.33301 -75.501 -16s-55.5 -23.667 -83.5 -39v-392h-122v546h114v-61h4c35.333 21.333 69.833 38.833 103.5 52.5s65.834 20.5 96.501 20.5c50 0 88.833 -12.833 116.5 -38.5
s41.5 -66.5 41.5 -122.5v-397h-122zM272 -51h82.999c2 -8.66699 3.5 -17.167 4.5 -25.5s1.5 -18.5 1.5 -30.5c0 -18.667 -3.66699 -41 -11 -67s-16.666 -49.667 -27.999 -71h-50v194z" />
    <glyph glyph-name="Ncaron" unicode="&#x147;" horiz-adv-x="760" 
d="M205 511v-511h-126v720h137l339 -523v523h126v-720h-136zM384 818l69 112h106l-48 -79l-49 -79h-155l-99 158h107z" />
    <glyph glyph-name="ncaron" unicode="&#x148;" horiz-adv-x="611" 
d="M423 0v374c0 23.333 -5.5 41.333 -16.5 54s-29.833 19 -56.5 19c-22.667 0 -47.834 -5.33301 -75.501 -16s-55.5 -23.667 -83.5 -39v-392h-122v546h114v-61h4c35.333 21.333 69.833 38.833 103.5 52.5s65.834 20.5 96.501 20.5c50 0 88.833 -12.833 116.5 -38.5
s41.5 -66.5 41.5 -122.5v-397h-122zM316 661l69 112h106l-48 -79l-49 -79h-155l-99 158h107z" />
    <glyph glyph-name="Omacron" unicode="&#x14c;" horiz-adv-x="744" 
d="M46 360c0 58.667 6.5 111 19.5 157s33 85 60 117s61 56.333 102 73s89.5 25 145.5 25s104.5 -8.33301 145.5 -25s75 -41 102 -73s47 -71 60 -117s19.5 -98.333 19.5 -157s-6.5 -111 -19.5 -157s-33 -85 -60 -117s-61 -56.333 -102 -73s-89.5 -25 -145.5 -25
s-104.5 8.33301 -145.5 25s-75 41 -102 73s-47 71 -60 117s-19.5 98.333 -19.5 157zM571 360c0 90.667 -16.833 157.167 -50.5 199.5s-82.5 63.5 -146.5 63.5c-65.333 0 -114.833 -21.167 -148.5 -63.5s-50.5 -108.833 -50.5 -199.5s16.833 -157.167 50.5 -199.5
s82.5 -63.5 146.5 -63.5c64.667 0 114 21.167 148 63.5s51 108.833 51 199.5zM170 877h401v-99h-401v99z" />
    <glyph glyph-name="omacron" unicode="&#x14d;" horiz-adv-x="628" 
d="M166 273c0 -56.667 11.667 -100.834 35 -132.501s61.333 -47.5 114 -47.5c52 0 89.5 15.833 112.5 47.5s34.5 75.834 34.5 132.501s-11.5 100.667 -34.5 132s-60.5 47 -112.5 47c-52.667 0 -90.667 -15.667 -114 -47s-35 -75.333 -35 -132zM40 273
c0 50.667 7.16699 94 21.5 130s34 65.5 59 88.5s54.167 39.833 87.5 50.5s68.666 16 105.999 16s72.666 -5.5 105.999 -16.5s62.5 -28 87.5 -51s44.833 -52.5 59.5 -88.5s22 -79 22 -129s-7.33301 -93 -22 -129s-34.5 -65.5 -59.5 -88.5s-54.167 -40 -87.5 -51
s-68.666 -16.5 -105.999 -16.5s-72.666 5.33301 -105.999 16s-62.5 27.5 -87.5 50.5s-44.667 52.5 -59 88.5s-21.5 79.333 -21.5 130zM113 720h401v-99h-401v99z" />
    <glyph glyph-name="OE" unicode="&#x152;" horiz-adv-x="1022" 
d="M978 720l0.000976562 -113.001h-357v-188h307v-113h-307v-194h355v-112h-481c-20 -4 -40.667 -7 -62 -9s-41 -3 -59 -3c-56 0 -104.667 8.33301 -146 25s-75.5 41 -102.5 73s-47 71 -60 117s-19.5 98.333 -19.5 157s6.5 111 19.5 157s33 85 60 117
s61.167 56.333 102.5 73s90 25 146 25c22 0 43.167 -1.16699 63.5 -3.5s39.166 -5.16602 56.499 -8.49902h484zM175.001 359.999c0 -92 17.5 -158.332 52.5 -198.999s84.5 -61 148.5 -61c20 0 39.833 1 59.5 3s39.167 5.33301 58.5 10v489
c-19.333 5.33301 -39 9.66602 -59 12.999s-39.667 5 -59 5c-64 0 -113.5 -20.333 -148.5 -61s-52.5 -107 -52.5 -199z" />
    <glyph glyph-name="oe" unicode="&#x153;" horiz-adv-x="1003" 
d="M834 329c0 14.667 -1.33301 29.833 -4 45.5s-8.33398 30 -17.001 43s-20.667 23.5 -36 31.5s-35.666 12 -60.999 12c-20.667 0 -38.834 -3.5 -54.501 -10.5s-28.667 -16.5 -39 -28.5s-18.166 -26 -23.499 -42s-8 -33 -8 -51h243zM523 463.999
c21.333 30.667 48.501 53.999 81.501 69.999s72.5 24 118.5 24c48 0 87.333 -7.33301 118 -22s54.834 -34 72.501 -58s29.834 -51.833 36.501 -83.5s10 -64.5 10 -98.5v-56h-368c1.33301 -52.667 17 -90 47 -112s72 -33 126 -33c12.667 0 26.667 1 42 3s31 4.5 47 7.5
s32.167 6.5 48.5 10.5s32.166 8.33301 47.499 13v-106c-36.667 -11.333 -71.834 -20 -105.501 -26s-69.834 -9 -108.501 -9c-50 0 -92.833 7.5 -128.5 22.5s-64.167 38.5 -85.5 70.5c-23.333 -33.333 -53.5 -57 -90.5 -71s-76.167 -21 -117.5 -21
c-37.333 0 -72.666 5.33301 -105.999 16s-62.5 27.334 -87.5 50.001s-44.667 52 -59 88s-21.5 79.333 -21.5 130s7.16699 94 21.5 130s34 65.5 59 88.5s54.167 39.833 87.5 50.5s68.666 16 105.999 16c42 0 81.5 -7.16699 118.5 -21.5s67.167 -38.5 90.5 -72.5z
M463.001 272.998c0 56.667 -11.5 100.667 -34.5 132s-60.833 47 -113.5 47c-52 0 -89.667 -15.667 -113 -47s-35 -75.333 -35 -132s11.667 -100.5 35 -131.5s61 -46.5 113 -46.5c52.667 0 90.5 15.5 113.5 46.5s34.5 74.833 34.5 131.5z" />
    <glyph glyph-name="uni0156" unicode="&#x156;" horiz-adv-x="640" 
d="M402 100c-14 19.333 -27.665 39.498 -40.998 60.498l-40 63.5h-116v-224h-126v720h266c38 0 72 -6.5 102 -19.5s55.5 -30.833 76.5 -53.5s37 -49.167 48 -79.5s16.5 -62.5 16.5 -96.5c0 -49.333 -11.5 -94.166 -34.5 -134.499s-55.5 -70.166 -97.5 -89.499l36 -56
c10.667 -17.333 20.667 -31.5 30 -42.5s19.166 -19.667 29.499 -26s21.666 -10.833 33.999 -13.5s27.166 -4 44.499 -4v-107c-9.33301 -1.33301 -18.666 -2 -27.999 -2h-25c-34.667 0 -66 8.33301 -94 25s-55 43 -81 79zM205.002 332.998h126
c22.667 0 42.167 3.83301 58.5 11.5s29.666 18 39.999 31s17.833 27.667 22.5 44s7 33.5 7 51.5s-2.33301 35.333 -7 52s-12.167 31.5 -22.5 44.5s-23.666 23.5 -39.999 31.5s-35.833 12 -58.5 12h-126v-278zM294.002 -51.002h82.999c2 -8.66699 3.5 -17.167 4.5 -25.5
s1.5 -18.5 1.5 -30.5c0 -18.667 -3.66699 -41 -11 -67s-16.666 -49.667 -27.999 -71h-50v194z" />
    <glyph glyph-name="uni0157" unicode="&#x157;" horiz-adv-x="408" 
d="M392 422c-36 -5.33301 -69.332 -13.998 -99.999 -25.998s-64.334 -26 -101.001 -42v-354h-122v546h116v-92l45 30c15.333 10.667 31.5 20.667 48.5 30s34.833 17.166 53.5 23.499s38.667 10.166 60 11.499v-127zM85.001 -50.998h82.999c2 -8.66699 3.5 -17.167 4.5 -25.5
s1.5 -18.5 1.5 -30.5c0 -18.667 -3.66699 -41 -11 -67s-16.666 -49.667 -27.999 -71h-50v194z" />
    <glyph glyph-name="Sacute" unicode="&#x15a;" horiz-adv-x="577" 
d="M256 97c50.667 0 89.167 9.49805 115.5 28.498s39.5 47.5 39.5 85.5c0 20.667 -4.66699 37.334 -14 50.001s-21.666 22.5 -36.999 29.5s-32.833 12.167 -52.5 15.5s-40.167 6.33301 -61.5 9c-24 3.33301 -48.167 8.5 -72.5 15.5s-46 18 -65 33s-34.5 35 -46.5 60
s-18 57.167 -18 96.5c0 43.333 8 78.833 24 106.5s37 49.334 63 65.001s55.667 26.334 89 32.001s67 8.5 101 8.5c33.333 0 65.166 -1.5 95.499 -4.5s60.166 -6.16699 89.499 -9.5v-112l-86.5 11c-32.333 4 -64.5 6 -96.5 6c-50 0 -87.5 -8 -112.5 -24
s-37.5 -41.333 -37.5 -76c0 -18.667 3.83301 -33.667 11.5 -45s18.167 -20.5 31.5 -27.5s28.5 -12.333 45.5 -16s35.167 -6.83398 54.5 -9.50098c26 -4 52.333 -9 79 -15s50.834 -16 72.501 -30s39.167 -33.833 52.5 -59.5s20 -60.5 20 -104.5
c0 -40 -6.66699 -74.333 -20 -103s-32 -52.167 -56 -70.5s-52.833 -32 -86.5 -41s-70.834 -13.5 -111.501 -13.5c-40 0 -77.667 2 -113 6s-68.666 9 -99.999 15v113c38 -7.33301 73.667 -13.333 107 -18s65.333 -7 96 -7zM332 771.998h-95l62 154h129z" />
    <glyph glyph-name="sacute" unicode="&#x15b;" horiz-adv-x="495" 
d="M228 92c36.667 0 63.501 5.83008 80.501 17.4971s25.5 29.167 25.5 52.5c0 12 -3 21.833 -9 29.5s-14.5 13.834 -25.5 18.501s-23.833 8.33398 -38.5 11.001s-30.667 5.33398 -48 8.00098c-19.333 2.66699 -39.166 6.83398 -59.499 12.501s-38.666 14.334 -54.999 26.001
s-29.666 27 -39.999 46s-15.5 43.5 -15.5 73.5c0 32 5.66699 58.833 17 80.5s27.166 39.167 47.499 52.5s44.333 23 72 29s57.834 9 90.501 9c26.667 0 54.167 -1.33301 82.5 -4s54.5 -6 78.5 -10l-4 -106c-20.667 3.33301 -44.334 6.66602 -71.001 9.99902s-50.667 5 -72 5
c-41.333 0 -70.833 -4.83301 -88.5 -14.5s-26.5 -24.834 -26.5 -45.501c0 -11.333 2.66699 -20.5 8 -27.5s13 -12.833 23 -17.5s21.833 -8.33398 35.5 -11.001s28.5 -5.33398 44.5 -8.00098c20.667 -3.33301 41.834 -7.66602 63.501 -12.999s41 -13.666 58 -24.999
s31 -26.833 42 -46.5s16.5 -45.5 16.5 -77.5c0 -60 -19 -104.833 -57 -134.5s-94.333 -44.5 -169 -44.5c-14.667 0 -30.334 0.333008 -47.001 1s-33.334 1.5 -50.001 2.5s-32.834 2.33301 -48.501 4l-41.5 4.5l4 109c32 -4.66699 63.667 -8.66699 95 -12
s58.666 -5 81.999 -5zM274.001 615.997h-95l62 154h129z" />
    <glyph glyph-name="Scaron" unicode="&#x160;" horiz-adv-x="577" 
d="M256 97c50.667 0 89.167 9.49805 115.5 28.498s39.5 47.5 39.5 85.5c0 20.667 -4.66699 37.334 -14 50.001s-21.666 22.5 -36.999 29.5s-32.833 12.167 -52.5 15.5s-40.167 6.33301 -61.5 9c-24 3.33301 -48.167 8.5 -72.5 15.5s-46 18 -65 33s-34.5 35 -46.5 60
s-18 57.167 -18 96.5c0 43.333 8 78.833 24 106.5s37 49.334 63 65.001s55.667 26.334 89 32.001s67 8.5 101 8.5c33.333 0 65.166 -1.5 95.499 -4.5s60.166 -6.16699 89.499 -9.5v-112l-86.5 11c-32.333 4 -64.5 6 -96.5 6c-50 0 -87.5 -8 -112.5 -24
s-37.5 -41.333 -37.5 -76c0 -18.667 3.83301 -33.667 11.5 -45s18.167 -20.5 31.5 -27.5s28.5 -12.333 45.5 -16s35.167 -6.83398 54.5 -9.50098c26 -4 52.333 -9 79 -15s50.834 -16 72.501 -30s39.167 -33.833 52.5 -59.5s20 -60.5 20 -104.5
c0 -40 -6.66699 -74.333 -20 -103s-32 -52.167 -56 -70.5s-52.833 -32 -86.5 -41s-70.834 -13.5 -111.501 -13.5c-40 0 -77.667 2 -113 6s-68.666 9 -99.999 15v113c38 -7.33301 73.667 -13.333 107 -18s65.333 -7 96 -7zM293 820.998l69 112h106l-48 -79l-49 -79h-155
l-99 158h107z" />
    <glyph glyph-name="scaron" unicode="&#x161;" horiz-adv-x="495" 
d="M228 92c36.667 0 63.501 5.83008 80.501 17.4971s25.5 29.167 25.5 52.5c0 12 -3 21.833 -9 29.5s-14.5 13.834 -25.5 18.501s-23.833 8.33398 -38.5 11.001s-30.667 5.33398 -48 8.00098c-19.333 2.66699 -39.166 6.83398 -59.499 12.501s-38.666 14.334 -54.999 26.001
s-29.666 27 -39.999 46s-15.5 43.5 -15.5 73.5c0 32 5.66699 58.833 17 80.5s27.166 39.167 47.499 52.5s44.333 23 72 29s57.834 9 90.501 9c26.667 0 54.167 -1.33301 82.5 -4s54.5 -6 78.5 -10l-4 -106c-20.667 3.33301 -44.334 6.66602 -71.001 9.99902s-50.667 5 -72 5
c-41.333 0 -70.833 -4.83301 -88.5 -14.5s-26.5 -24.834 -26.5 -45.501c0 -11.333 2.66699 -20.5 8 -27.5s13 -12.833 23 -17.5s21.833 -8.33398 35.5 -11.001s28.5 -5.33398 44.5 -8.00098c20.667 -3.33301 41.834 -7.66602 63.501 -12.999s41 -13.666 58 -24.999
s31 -26.833 42 -46.5s16.5 -45.5 16.5 -77.5c0 -60 -19 -104.833 -57 -134.5s-94.333 -44.5 -169 -44.5c-14.667 0 -30.334 0.333008 -47.001 1s-33.334 1.5 -50.001 2.5s-32.834 2.33301 -48.501 4l-41.5 4.5l4 109c32 -4.66699 63.667 -8.66699 95 -12
s58.666 -5 81.999 -5zM253.001 660.997l69 112h106l-48 -79l-49 -79h-155l-99 158h107z" />
    <glyph glyph-name="Umacron" unicode="&#x16a;" horiz-adv-x="722" 
d="M649 255c0 -87.333 -24.668 -153.666 -74.001 -198.999s-120.666 -68 -213.999 -68c-94 0 -165.5 22.667 -214.5 68s-73.5 111.666 -73.5 198.999v465h126v-476c0 -24.667 4.66699 -46.167 14 -64.5s21.5 -33.666 36.5 -45.999s32.333 -21.5 52 -27.5s39.5 -9 59.5 -9
c20.667 0 40.667 3 60 9s36.5 15.167 51.5 27.5s27.167 27.666 36.5 45.999s14 39.833 14 64.5v476h126v-465v0zM158.999 877h401v-99h-401v99z" />
    <glyph glyph-name="umacron" unicode="&#x16b;" 
d="M189 546v-374c0 -23.333 5.5 -41.333 16.5 -54s29.5 -19 55.5 -19c22.667 0 48 5.16699 76 15.5s55.667 23.166 83 38.499v393h123v-546h-104l-10 60h-4c-36 -21.333 -70.667 -38.666 -104 -51.999s-65.333 -20 -96 -20c-50 0 -89 12.833 -117 38.5s-42 66.167 -42 121.5
v398h123zM104 720h401v-99h-401v99z" />
    <glyph glyph-name="Uogonek" unicode="&#x172;" horiz-adv-x="714" 
d="M294 -137c0 22 6.16895 43.8311 18.502 65.498s30.166 41.5 53.499 59.5h-5c-94 0 -165.5 22.667 -214.5 68s-73.5 111.666 -73.5 198.999v465h126v-476c0 -24.667 4.66699 -46.167 14 -64.5s21.5 -33.666 36.5 -45.999s32.333 -21.5 52 -27.5s39.5 -9 59.5 -9
c20.667 0 40.667 3 60 9s36.5 15.167 51.5 27.5s27.167 27.666 36.5 45.999s14 39.833 14 64.5v476h126v-465c0 -24 -2.5 -48.167 -7.5 -72.5s-13 -47.166 -24 -68.499s-25.167 -40.5 -42.5 -57.5s-38.333 -30.5 -63 -40.5c-19.333 -7.33301 -36.333 -16.666 -51 -27.999
s-27 -23 -37 -35s-17.667 -24 -23 -36s-8 -22.667 -8 -32c0 -17.333 6 -31.666 18 -42.999s29.667 -17 53 -17c15.333 0 30.666 2 45.999 6v-74c-11.333 -3.33301 -23 -5.83301 -35 -7.5s-25.667 -2.5 -41 -2.5c-41.333 0 -75 10.333 -101 31s-39 49 -39 85z" />
    <glyph glyph-name="uogonek" unicode="&#x173;" 
d="M189 546l0.000976562 -374.001c0 -23.333 5.5 -41.333 16.5 -54s29.5 -19 55.5 -19c22.667 0 48 5.16699 76 15.5s55.667 23.166 83 38.499v393h123v-546c-29.333 -14.667 -53.5 -31.667 -72.5 -51s-28.5 -40.666 -28.5 -63.999c0 -17.333 6 -31.666 18 -42.999
s29.667 -17 53 -17c15.333 0 30.666 2 45.999 6v-74c-11.333 -3.33301 -23 -5.83301 -35 -7.5s-25.667 -2.5 -41 -2.5c-41.333 0 -75 10.333 -101 31s-39 49 -39 85c0 25.333 8.33301 50.166 25 74.499s40 45.833 70 64.5l-9 58h-4
c-36 -21.333 -70.667 -38.666 -104 -51.999s-65.333 -20 -96 -20c-50 0 -89 12.833 -117 38.5s-42 66.167 -42 121.5v398h123z" />
    <glyph glyph-name="Ydieresis" unicode="&#x178;" horiz-adv-x="622" 
d="M248 0v246l-246 474h143l167 -343h6l161 343h141l-123.5 -237l-122.5 -237v-246h-126zM493 775h-109v125h109v-125zM247 775h-109v125h109v-125z" />
    <glyph glyph-name="Zacute" unicode="&#x179;" horiz-adv-x="647" 
d="M595 601l-392 -492h409v-109h-566v119l394 492h-401v109h556v-119zM348 772h-95l62 154h129z" />
    <glyph glyph-name="zacute" unicode="&#x17a;" horiz-adv-x="549" 
d="M39 546h457v-88l-285 -353h305v-105h-471v89l289 352h-295v105zM302 616h-95l62 154h129z" />
    <glyph glyph-name="Zdotaccent" unicode="&#x17b;" horiz-adv-x="647" 
d="M595 601l-392 -492h409v-109h-566v119l394 492h-401v109h556v-119zM370 796h-102v123h102v-123z" />
    <glyph glyph-name="zdotaccent" unicode="&#x17c;" horiz-adv-x="549" 
d="M39 546h457v-88l-285 -353h305v-105h-471v89l289 352h-295v105zM319 616h-102v123h102v-123z" />
    <glyph glyph-name="Zcaron" unicode="&#x17d;" horiz-adv-x="647" 
d="M595 601l-392 -492h409v-109h-566v119l394 492h-401v109h556v-119zM335 821l69 112h106l-48 -79l-49 -79h-155l-99 158h107z" />
    <glyph glyph-name="zcaron" unicode="&#x17e;" horiz-adv-x="549" 
d="M39 546h457v-88l-285 -353h305v-105h-471v89l289 352h-295v105zM278 661l69 112h106l-48 -79l-49 -79h-155l-99 158h107z" />
    <glyph glyph-name="florin" unicode="&#x192;" horiz-adv-x="598" 
d="M360 30c0 -84 -18.835 -146.167 -56.502 -186.5s-92.5 -60.5 -164.5 -60.5c-20 0 -39.833 0.833008 -59.5 2.5s-37.167 3.83398 -52.5 6.50098l10 105c16.667 -4.66699 31.834 -7.5 45.501 -8.5s24.834 -1.5 33.501 -1.5c46 0 77.5 12.333 94.5 37s25.5 63.667 25.5 117
v235h-136v103h136v127c0 89.333 18.667 154.166 56 194.499s94.333 60.5 171 60.5c19.333 0 38.333 -0.833008 57 -2.5s35 -3.83398 49 -6.50098l-11 -104c-16 4.66699 -31 7.33398 -45 8.00098s-25 1 -33 1c-45.333 0 -77 -12.167 -95 -36.5s-27 -63.5 -27 -117.5v-124h155
v-103h-153v-246v0z" />
    <glyph glyph-name="circumflex" unicode="&#x2c6;" horiz-adv-x="680" 
d="M339 726l-35 -55.5l-34 -55.5h-107c17.333 26 34 52.333 50 79s32.667 53 50 79h151l100 -158h-106z" />
    <glyph glyph-name="caron" unicode="&#x2c7;" horiz-adv-x="680" 
d="M339 661l69 112h106l-48 -79l-49 -79h-155l-99 158h107z" />
    <glyph glyph-name="breve" unicode="&#x2d8;" horiz-adv-x="638" 
d="M319 613c-36 0 -70.501 5.33301 -103.501 16s-59.833 26.667 -80.5 48l24 73c25.333 -15.333 52 -26.833 80 -34.5s54.667 -11.5 80 -11.5s52 3.83301 80 11.5s54.667 19.167 80 34.5l23 -73c-19.333 -20.667 -45.666 -36.5 -78.999 -47.5s-68 -16.5 -104 -16.5z" />
    <glyph glyph-name="dotaccent" unicode="&#x2d9;" horiz-adv-x="347" 
d="M229 616h-102v123h102v-123z" />
    <glyph glyph-name="ring" unicode="&#x2da;" horiz-adv-x="447" 
d="M172 697c0 -12.667 3.66699 -24 11 -34s20 -15 38 -15s30.667 5 38 15s11 21.333 11 34c0 13.333 -3.66699 24.833 -11 34.5s-20 14.5 -38 14.5s-30.667 -4.83301 -38 -14.5s-11 -21.167 -11 -34.5zM109 697c0 30 9.66699 54.5 29 73.5s47 28.5 83 28.5
s63.667 -9.5 83 -28.5s29 -43.5 29 -73.5c0 -29.333 -9.66699 -53.5 -29 -72.5s-47 -28.5 -83 -28.5s-63.667 9.5 -83 28.5s-29 43.167 -29 72.5z" />
    <glyph glyph-name="ogonek" unicode="&#x2db;" horiz-adv-x="463" 
d="M298 0c-24 -20 -41.668 -39.666 -53.001 -58.999s-17 -37.666 -17 -54.999c0 -18.667 7.66699 -33.5 23 -44.5s38 -16.5 68 -16.5c12.667 0 23.334 1.33301 32.001 4v-72c-12 -3.33301 -24.667 -5.83301 -38 -7.5s-27 -2.5 -41 -2.5c-17.333 0 -34.5 2 -51.5 6
s-32.167 10.333 -45.5 19s-24 20 -32 34s-12 31 -12 51c0 23.333 7.16699 48.166 21.5 74.499s36.5 49.166 66.5 68.499h79z" />
    <glyph glyph-name="tilde" unicode="&#x2dc;" horiz-adv-x="702" 
d="M124 715c17.333 16.667 36.833 30.334 58.5 41.001s43.167 16 64.5 16c22 0 41.167 -3.66699 57.5 -11s32 -15.333 47 -24s30.5 -16.667 46.5 -24s35 -11 57 -11c21.333 0 42.833 5.33301 64.5 16s41.167 24.334 58.5 41.001v-96
c-17.333 -16.667 -36.833 -30.334 -58.5 -41.001s-43.167 -16 -64.5 -16c-22 0 -41.167 3.66699 -57.5 11s-32 15.333 -47 24s-30.5 16.667 -46.5 24s-35 11 -57 11c-21.333 0 -42.833 -5.33301 -64.5 -16s-41.167 -24.334 -58.5 -41.001v96z" />
    <glyph glyph-name="hungarumlaut" unicode="&#x2dd;" horiz-adv-x="808" 
d="M235 615h-96l66 154h129zM435 615h-96l66 154h129z" />
    <glyph glyph-name="Omega" unicode="&#x3a9;" horiz-adv-x="772" 
d="M386 602c-30.667 0 -58.667 -5.33105 -84 -15.998s-47 -25.334 -65 -44.001s-32 -40.834 -42 -66.501s-15 -53.5 -15 -83.5c0 -26.667 4.16699 -53.334 12.5 -80.001s20 -52 35 -76s32.667 -46.167 53 -66.5s42.166 -37.5 65.499 -51.5v-118h-299v116h162
c-18.667 12 -37.167 27.333 -55.5 46s-34.833 40.167 -49.5 64.5s-26.5 51.5 -35.5 81.5s-13.5 62.667 -13.5 98c0 42.667 8 82.834 24 120.501s38.5 70.667 67.5 99s63.833 50.833 104.5 67.5s85.667 25 135 25s94.5 -8.33301 135.5 -25s76 -39.167 105 -67.5
s51.5 -61.333 67.5 -99s24 -77.834 24 -120.501c0 -35.333 -4.66699 -68 -14 -98s-21.333 -57.167 -36 -81.5s-31.167 -45.833 -49.5 -64.5s-36.5 -34 -54.5 -46h162v-116h-299v118c24 14 46 31.167 66 51.5s37.5 42.5 52.5 66.5s26.667 49.333 35 76
s12.5 53.334 12.5 80.001c0 30 -5 57.667 -15 83s-24.167 47.5 -42.5 66.5s-40.166 33.833 -65.499 44.5s-53.333 16 -84 16z" />
    <glyph glyph-name="mu" unicode="&#x3bc;" horiz-adv-x="615" 
d="M191 545l-0.000976562 -375.999c0 -22.667 5.66699 -40 17 -52s30 -18 56 -18c22.667 0 47.834 5.16699 75.501 15.5s55.5 23.166 83.5 38.499v392h123v-545h-105l-10 60h-4c-36 -22 -70.667 -39.5 -104 -52.5s-65.333 -19.5 -96 -19.5c-14.667 0 -26.667 4 -36 12v-205
h-122v750h122z" />
    <glyph glyph-name="pi" unicode="&#x3c0;" horiz-adv-x="742" 
d="M553 161c0 -23.333 5.99707 -38.999 17.9971 -46.999s27.667 -12 47 -12c12.667 0 25.834 1.16699 39.501 3.5s26.5 5.16602 38.5 8.49902v-109l-58.5 -10c-20.333 -3.33301 -40.166 -5 -59.499 -5c-21.333 0 -41.166 2.5 -59.499 7.5s-34 13.333 -47 25
s-23.167 27.5 -30.5 47.5s-11 45 -11 75v302h-159v-447h-123v447h-129v99h682v-99h-148v-286z" />
    <glyph glyph-name="endash" unicode="&#x2013;" horiz-adv-x="602" 
d="M63 328h476v-112h-476v112z" />
    <glyph glyph-name="emdash" unicode="&#x2014;" horiz-adv-x="823" 
d="M63 328h697v-112h-697v112z" />
    <glyph glyph-name="quoteleft" unicode="&#x2018;" horiz-adv-x="232" 
d="M168 491h-108c-1.33301 10.667 -2.33301 21 -3 31s-1 19.667 -1 29c0 34.667 5.33301 69 16 103s24.667 65.333 42 94h54v-257z" />
    <glyph glyph-name="quoteright" unicode="&#x2019;" horiz-adv-x="222" 
d="M65 743l108.001 -0.000976562c1.33301 -9.33301 2.16602 -18.166 2.49902 -26.499s0.5 -16.833 0.5 -25.5c0 -36 -5.33301 -71.667 -16 -107s-24.667 -68 -42 -98h-53v257z" />
    <glyph glyph-name="quotesinglbase" unicode="&#x201a;" horiz-adv-x="241" 
d="M66 136h108c1.33301 -9.33301 2.33301 -18.166 3 -26.499s1 -16.833 1 -25.5c0 -34.667 -5.33301 -69.334 -16 -104.001s-24.667 -68 -42 -100h-54v256z" />
    <glyph glyph-name="quotedblleft" unicode="&#x201c;" horiz-adv-x="422" 
d="M358 490h-108c-2 18 -3 35.333 -3 52c0 36 5.33301 71.667 16 107s24.667 68 42 98h53v-257zM167 490h-108c-2 20.667 -3 41 -3 61c0 34 5.5 67.833 16.5 101.5s24.833 65.167 41.5 94.5h53v-257z" />
    <glyph glyph-name="quotedblright" unicode="&#x201d;" horiz-adv-x="413" 
d="M65 743h108c2 -18 3 -35.333 3 -52c0 -36 -5.33301 -71.667 -16 -107s-24.667 -68 -42 -98h-53v257zM256 743l108 -0.000976562c2 -21.333 3 -41.666 3 -60.999c0 -34 -5.5 -67.833 -16.5 -101.5s-24.833 -65.167 -41.5 -94.5h-53v257z" />
    <glyph glyph-name="quotedblbase" unicode="&#x201e;" horiz-adv-x="411" 
d="M66 136l108 -0.00195312c1.33301 -9.33301 2.33301 -18.166 3 -26.499s1 -17.166 1 -26.499c0 -34.667 -5.5 -69.5 -16.5 -104.5s-25.167 -67.833 -42.5 -98.5h-53v256zM237 135.998l108 -0.000976562c2 -18 3 -35.333 3 -52c0 -34 -5.16699 -68.667 -15.5 -104
s-24.5 -68.666 -42.5 -99.999h-53v256z" />
    <glyph glyph-name="dagger" unicode="&#x2020;" horiz-adv-x="476" 
d="M177 34v374h-144v113h144v181h122v-181h144v-113h-144v-374h-122z" />
    <glyph glyph-name="daggerdbl" unicode="&#x2021;" horiz-adv-x="514" 
d="M196 311v97h-144v113h144v181h122v-181h144v-113h-144v-97h144v-113h-144v-165h-122v165h-144v113h144z" />
    <glyph glyph-name="bullet" unicode="&#x2022;" horiz-adv-x="328" 
d="M87 429h154v-153h-154v153z" />
    <glyph glyph-name="ellipsis" unicode="&#x2026;" horiz-adv-x="763" 
d="M173 0h-108v136h108v-136zM441 0h-108v136h108v-136zM698 0h-109v136h109v-136z" />
    <glyph glyph-name="perthousand" unicode="&#x2030;" horiz-adv-x="1087" 
d="M590 720l-340 -720h-89l339 720h90zM32 560c0 24.667 2.66699 47.5 8 68.5s13.666 39.167 24.999 54.5s26 27.333 44 36s40 13 66 13s48.167 -4.33301 66.5 -13s33.166 -20.667 44.499 -36s19.666 -33.5 24.999 -54.5s8 -43.833 8 -68.5s-2.66699 -47.5 -8 -68.5
s-13.666 -39.167 -24.999 -54.5s-26.166 -27.333 -44.499 -36s-40.5 -13 -66.5 -13s-48 4.33301 -66 13s-32.667 20.667 -44 36s-19.666 33.5 -24.999 54.5s-8 43.833 -8 68.5zM239 560c0 32 -4.16699 58.167 -12.5 78.5s-25.5 30.5 -51.5 30.5
c-13.333 0 -24 -2.66699 -32 -8s-14.333 -12.833 -19 -22.5s-7.83398 -21.167 -9.50098 -34.5s-2.5 -28 -2.5 -44s0.833008 -30.667 2.5 -44s4.83398 -24.833 9.50098 -34.5s11 -17.167 19 -22.5s18.667 -8 32 -8c26 0 43.167 10.167 51.5 30.5s12.5 46.5 12.5 78.5z
M432 165c0 24.667 2.66699 47.5 8 68.5s13.666 39.167 24.999 54.5s26 27.333 44 36s40 13 66 13s48.167 -4.33301 66.5 -13s33.166 -20.667 44.499 -36s19.666 -33.5 24.999 -54.5s8 -43.833 8 -68.5s-2.66699 -47.5 -8 -68.5s-13.666 -39.167 -24.999 -54.5
s-26.166 -27.333 -44.499 -36s-40.5 -13 -66.5 -13s-48 4.33301 -66 13s-32.667 20.667 -44 36s-19.666 33.5 -24.999 54.5s-8 43.833 -8 68.5zM639 165c0 32 -4.16699 58.167 -12.5 78.5s-25.5 30.5 -51.5 30.5c-13.333 0 -24 -2.66699 -32 -8s-14.333 -12.833 -19 -22.5
s-7.83398 -21.167 -9.50098 -34.5s-2.5 -28 -2.5 -44s0.833008 -30.667 2.5 -44s4.83398 -24.833 9.50098 -34.5s11 -17.167 19 -22.5s18.667 -8 32 -8c26 0 43.167 10.167 51.5 30.5s12.5 46.5 12.5 78.5zM769 165c0 24.667 2.66699 47.5 8 68.5s13.666 39.167 24.999 54.5
s26 27.333 44 36s40 13 66 13s48.167 -4.33301 66.5 -13s33.166 -20.667 44.499 -36s19.666 -33.5 24.999 -54.5s8 -43.833 8 -68.5s-2.66699 -47.5 -8 -68.5s-13.666 -39.167 -24.999 -54.5s-26.166 -27.333 -44.499 -36s-40.5 -13 -66.5 -13s-48 4.33301 -66 13
s-32.667 20.667 -44 36s-19.666 33.5 -24.999 54.5s-8 43.833 -8 68.5zM976 165c0 32 -4.16699 58.167 -12.5 78.5s-25.5 30.5 -51.5 30.5c-13.333 0 -24 -2.66699 -32 -8s-14.333 -12.833 -19 -22.5s-7.83398 -21.167 -9.50098 -34.5s-2.5 -28 -2.5 -44
s0.833008 -30.667 2.5 -44s4.83398 -24.833 9.50098 -34.5s11 -17.167 19 -22.5s18.667 -8 32 -8c26 0 43.167 10.167 51.5 30.5s12.5 46.5 12.5 78.5z" />
    <glyph glyph-name="guilsinglleft" unicode="&#x2039;" horiz-adv-x="344" 
d="M308 531l-152 -258l152 -259h-117l-154 259l153 258h118z" />
    <glyph glyph-name="guilsinglright" unicode="&#x203a;" horiz-adv-x="344" 
d="M36 14l152 258l-152 259h117l154 -259l-154 -258h-117z" />
    <glyph glyph-name="fraction" unicode="&#x2044;" horiz-adv-x="522" 
d="M430 763h106l-441 -856h-105z" />
    <glyph glyph-name="Euro" unicode="&#x20ac;" horiz-adv-x="710" 
d="M44 503h106.001c20 72 56.167 128.167 108.5 168.5s120.833 60.5 205.5 60.5c30 0 60.667 -1.5 92 -4.5s64.666 -9.16699 99.999 -18.5v-120c-25.333 5.33301 -53 10.5 -83 15.5s-59 7.5 -87 7.5c-48 0 -89 -8 -123 -24s-59 -44.333 -75 -85h227v-103h-253
c-0.666992 -3.33301 -1 -9.33301 -1 -18v-18v-24.5c0 -7.66699 0.666992 -15.167 2 -22.5h252v-103h-219c15.333 -38 37.833 -65.5 67.5 -82.5s63.5 -25.5 101.5 -25.5c35.333 0 68.833 2.83301 100.5 8.5s62.167 12.834 91.5 21.501v-19.5
c0 -12.333 0.166992 -25.833 0.5 -40.5s0.5 -28.167 0.5 -40.5v-18.5c-34.667 -12.667 -68.5 -20.667 -101.5 -24s-63.5 -5 -91.5 -5c-86.667 0 -156 19.667 -208 59s-87.667 95 -107 167h-106v103h89c-0.666992 4.66699 -1.16699 11.167 -1.5 19.5s-0.5 17.166 -0.5 26.499
v19c0 6 0.333008 12 1 18h-88v103z" />
    <glyph glyph-name="trademark" unicode="&#x2122;" horiz-adv-x="736" 
d="M208 660v-208h-65v208h-84v60h235v-60h-86zM560 720h104v-268h-64v199h-4l-63 -200h-70l-63 200h-4v-199h-64v268h104l61 -197h4z" />
    <glyph glyph-name="minus" unicode="&#x2212;" horiz-adv-x="605" 
d="M67 324h471v-100h-471v100z" />
    <glyph glyph-name="radical" unicode="&#x221a;" horiz-adv-x="723" 
d="M359 96c4 -15.333 8.5 -30.168 13.5 -44.501s9.16699 -29.166 12.5 -44.499l194 818h142l-255 -1002h-162l-83 293l-83 293h-124v114h230z" />
    <glyph glyph-name="infinity" unicode="&#x221e;" horiz-adv-x="1030" 
d="M973 277c0 -30 -5.16797 -57.167 -15.501 -81.5s-24.666 -45 -42.999 -62s-40.166 -30.167 -65.499 -39.5s-53 -14 -83 -14c-46 0 -89 11.167 -129 33.5s-81 52.166 -123 89.499c-40.667 -37.333 -81 -67.166 -121 -89.499s-83 -33.5 -129 -33.5
c-30.667 0 -58.667 4.66699 -84 14s-47.166 22.5 -65.499 39.5s-32.5 37.667 -42.5 62s-15 51.5 -15 81.5c0 29.333 5 56.166 15 80.499s24.167 45 42.5 62s40.166 30.167 65.499 39.5s53.333 14 84 14c45.333 0 88.333 -11.5 129 -34.5s81.334 -52.167 122.001 -87.5
c42 36 82.833 65.333 122.5 88s82.5 34 128.5 34c30 0 57.667 -4.66699 83 -14s47.166 -22.5 65.499 -39.5s32.666 -37.667 42.999 -62s15.5 -51.166 15.5 -80.499zM167.999 277c0 -25.333 8.16699 -45.834 24.5 -61.501s41.166 -23.5 74.499 -23.5s64 8.33301 92 25
s57 36.667 87 60c-30 22.667 -59 42.334 -87 59.001s-58.667 25 -92 25s-58.166 -8 -74.499 -24s-24.5 -36 -24.5 -60zM861.999 276.999c0 24 -8.16699 44.002 -24.5 60.002s-41.166 24 -74.499 24c-16.667 0 -32.5 -2.33301 -47.5 -7s-29.667 -10.834 -44 -18.501
s-28.666 -16.5 -42.999 -26.5s-28.833 -20.667 -43.5 -32l43.5 -32.5c14.333 -10.333 28.666 -19.333 42.999 -27s29 -13.667 44 -18s30.833 -6.5 47.5 -6.5c33.333 0 58.166 7.66699 74.499 23s24.5 35.666 24.5 60.999z" />
    <glyph glyph-name="integral" unicode="&#x222b;" horiz-adv-x="411" 
d="M267 -46c0 -34 -4.33301 -63 -13 -87s-20.5 -43.333 -35.5 -58s-32.667 -25.334 -53 -32.001s-42.5 -10 -66.5 -10c-11.333 0 -20.833 0.166992 -28.5 0.5s-14.5 0.666016 -20.5 0.999023s-12.167 1.16602 -18.5 2.49902s-13.833 3 -22.5 5l8 105
c12 -2.66699 22 -4.5 30 -5.5s18.667 -1.5 32 -1.5c21.333 0 37.666 7 48.999 21s17 38 17 72v634c0 34 4.16699 63 12.5 87s20 43.333 35 58s32.833 25.334 53.5 32.001s43 10 67 10c11.333 0 20.833 -0.166992 28.5 -0.5s14.5 -0.666016 20.5 -0.999023
s12.167 -1.16602 18.5 -2.49902s13.833 -3 22.5 -5l-8 -105c-12 2 -22 3.5 -30 4.5s-18.667 1.5 -32 1.5c-21.333 0 -37.666 -6.83301 -48.999 -20.5s-17 -37.5 -17 -71.5v-634v0z" />
    <glyph glyph-name="approxequal" unicode="&#x2248;" horiz-adv-x="578" 
d="M514 340c-19.333 -16.667 -39.3301 -28.8369 -59.9971 -36.5039s-41 -11.5 -61 -11.5c-14.667 0 -30 2.5 -46 7.5s-32.5 10.667 -49.5 17s-34.167 12 -51.5 17s-35 7.5 -53 7.5c-30.667 0 -62.334 -9.66699 -95.001 -29
c-0.666992 0.666992 -2.83398 5.33398 -6.50098 14.001s-7.5 18.334 -11.5 29.001s-7.83301 20.334 -11.5 29.001s-5.83398 13.334 -6.50098 14.001c20 14 40.5 25.167 61.5 33.5s41.167 12.5 60.5 12.5c18 0 36 -2.66699 54 -8s35.5 -11 52.5 -17l50 -17
c16.333 -5.33301 31.5 -8 45.5 -8c17.333 0 34.833 3.33301 52.5 10s32.5 14.667 44.5 24zM514.003 139.997c-19.333 -17.333 -39.3311 -29.835 -59.998 -37.502s-40.667 -11.5 -60 -11.5c-15.333 0 -31 2.66699 -47 8l-49.5 17c-17 6 -34.167 11.667 -51.5 17
s-34.666 8 -51.999 8c-31.333 0 -63 -9.66699 -95 -29c-0.666992 0.666992 -2.83398 5.33398 -6.50098 14.001l-11.5 28.5l-11.5 28.5c-3.66699 8.66699 -5.83398 13.334 -6.50098 14.001c20 14 40.333 25 61 33s40.667 12 60 12c18 0 36 -2.5 54 -7.5
s35.667 -10.667 53 -17s34 -12 50 -17s31.333 -7.5 46 -7.5c17.333 0 34.666 3.33301 51.999 10s32.333 14.667 45 24z" />
    <glyph glyph-name="notequal" unicode="&#x2260;" horiz-adv-x="592" 
d="M60 434h276l50 93h84l-50 -93h112v-100h-167l-64 -119h231v-101h-286l-47 -89h-83l48 89h-104v101h158l64 119h-222v100z" />
    <glyph glyph-name="lessequal" unicode="&#x2264;" horiz-adv-x="595" 
d="M528 237v-109l-472 198v129l472 198v-109l-378 -154zM56 89h472v-89h-472v89z" />
    <glyph glyph-name="greaterequal" unicode="&#x2265;" horiz-adv-x="595" 
d="M445 390l-378 154v109l472 -198v-129l-472 -198v109zM539 0h-472v89h472v-89z" />
    <glyph glyph-name="lozenge" unicode="&#x25ca;" horiz-adv-x="554" 
d="M398 335l-23.499 37.999l-37 59.5l-37 59.5c-11.667 18.667 -19.834 31.334 -24.501 38.001l-120 -195l120 -196zM315.001 669.999l212 -337l-212 -333h-76l-211 337l211 333h76z" />
    <glyph glyph-name="commaacaron" horiz-adv-x="269" 
d="M90 763h82.999c2 -8.66699 3.5 -17.167 4.5 -25.5s1.5 -18.5 1.5 -30.5c0 -18.667 -3.66699 -41 -11 -67s-16.666 -49.667 -27.999 -71h-50v194z" />
    <glyph glyph-name="commaaccentlow" horiz-adv-x="269" 
d="M90 -51h82.999c2 -8.66699 3.5 -17.167 4.5 -25.5s1.5 -18.5 1.5 -30.5c0 -18.667 -3.66699 -41 -11 -67s-16.666 -49.667 -27.999 -71h-50v194z" />
    </font>
</defs>
</svg>
